<?xml version="1.0" encoding="UTF-8" standalone="no"?>
<!-- Created with Inkscape (http://www.inkscape.org/) -->

<svg
   xmlns:dc="http://purl.org/dc/elements/1.1/"
   xmlns:cc="http://creativecommons.org/ns#"
   xmlns:rdf="http://www.w3.org/1999/02/22-rdf-syntax-ns#"
   xmlns:svg="http://www.w3.org/2000/svg"
   xmlns="http://www.w3.org/2000/svg"
   xmlns:sodipodi="http://sodipodi.sourceforge.net/DTD/sodipodi-0.dtd"
   xmlns:inkscape="http://www.inkscape.org/namespaces/inkscape"
   width="96"
   height="96"
   id="svg6517"
   version="1.1"
   inkscape:version="0.91 r13725"
   sodipodi:docname="icon.svg"
   enable-background="new">
  <defs
     id="defs6519">
    <linearGradient
       id="Background">
      <stop
         id="stop4178"
         offset="0"
         style="stop-color:#b8b8b8;stop-opacity:1" />
      <stop
         id="stop4180"
         offset="1"
         style="stop-color:#c9c9c9;stop-opacity:1" />
    </linearGradient>
    <filter
       style="color-interpolation-filters:sRGB;"
       inkscape:label="Inner Shadow"
       id="filter1121">
      <feFlood
         flood-opacity="0.59999999999999998"
         flood-color="rgb(0,0,0)"
         result="flood"
         id="feFlood1123" />
      <feComposite
         in="flood"
         in2="SourceGraphic"
         operator="out"
         result="composite1"
         id="feComposite1125" />
      <feGaussianBlur
         in="composite1"
         stdDeviation="1"
         result="blur"
         id="feGaussianBlur1127" />
      <feOffset
         dx="0"
         dy="2"
         result="offset"
         id="feOffset1129" />
      <feComposite
         in="offset"
         in2="SourceGraphic"
         operator="atop"
         result="composite2"
         id="feComposite1131" />
    </filter>
    <filter
       style="color-interpolation-filters:sRGB;"
       inkscape:label="Drop Shadow"
       id="filter950">
      <feFlood
         flood-opacity="0.25"
         flood-color="rgb(0,0,0)"
         result="flood"
         id="feFlood952" />
      <feComposite
         in="flood"
         in2="SourceGraphic"
         operator="in"
         result="composite1"
         id="feComposite954" />
      <feGaussianBlur
         in="composite1"
         stdDeviation="1"
         result="blur"
         id="feGaussianBlur956" />
      <feOffset
         dx="0"
         dy="1"
         result="offset"
         id="feOffset958" />
      <feComposite
         in="SourceGraphic"
         in2="offset"
         operator="over"
         result="composite2"
         id="feComposite960" />
    </filter>
    <clipPath
       clipPathUnits="userSpaceOnUse"
       id="clipPath873">
      <g
         transform="matrix(0,-0.66666667,0.66604479,0,-258.25992,677.00001)"
         id="g875"
         inkscape:label="Layer 1"
         style="fill:#ff00ff;fill-opacity:1;stroke:none;display:inline">
        <path
           style="fill:#ff00ff;fill-opacity:1;stroke:none;display:inline"
           d="m 46.702703,898.22775 50.594594,0 C 138.16216,898.22775 144,904.06497 144,944.92583 l 0,50.73846 c 0,40.86071 -5.83784,46.69791 -46.702703,46.69791 l -50.594594,0 C 5.8378378,1042.3622 0,1036.525 0,995.66429 L 0,944.92583 C 0,904.06497 5.8378378,898.22775 46.702703,898.22775 Z"
           id="path877"
           inkscape:connector-curvature="0"
           sodipodi:nodetypes="sssssssss" />
      </g>
    </clipPath>
    <filter
       inkscape:collect="always"
       id="filter891"
       inkscape:label="Badge Shadow">
      <feGaussianBlur
         inkscape:collect="always"
         stdDeviation="0.71999962"
         id="feGaussianBlur893" />
    </filter>
  </defs>
  <sodipodi:namedview
     id="base"
     pagecolor="#ffffff"
     bordercolor="#666666"
     borderopacity="1.0"
     inkscape:pageopacity="0.0"
     inkscape:pageshadow="2"
     inkscape:zoom="4"
     inkscape:cx="-47.45752"
     inkscape:cy="45.252605"
     inkscape:document-units="px"
     inkscape:current-layer="layer1"
     showgrid="true"
     fit-margin-top="0"
     fit-margin-left="0"
     fit-margin-right="0"
     fit-margin-bottom="0"
     inkscape:window-width="1920"
     inkscape:window-height="1056"
     inkscape:window-x="1280"
     inkscape:window-y="24"
     inkscape:window-maximized="1"
     showborder="true"
     showguides="true"
     inkscape:guide-bbox="true"
     inkscape:showpageshadow="false">
    <inkscape:grid
       type="xygrid"
       id="grid821" />
    <sodipodi:guide
       orientation="1,0"
       position="16,48"
       id="guide823" />
    <sodipodi:guide
       orientation="0,1"
       position="64,80"
       id="guide825" />
    <sodipodi:guide
       orientation="1,0"
       position="80,40"
       id="guide827" />
    <sodipodi:guide
       orientation="0,1"
       position="64,16"
       id="guide829" />
  </sodipodi:namedview>
  <metadata
     id="metadata6522">
    <rdf:RDF>
      <cc:Work
         rdf:about="">
        <dc:format>image/svg+xml</dc:format>
        <dc:type
           rdf:resource="http://purl.org/dc/dcmitype/StillImage" />
        <dc:title></dc:title>
      </cc:Work>
    </rdf:RDF>
  </metadata>
  <g
     inkscape:label="BACKGROUND"
     inkscape:groupmode="layer"
     id="layer1"
     transform="translate(268,-635.29076)"
     style="display:inline">
    <path
       style="display:inline;fill:#ffffff;fill-opacity:1;stroke:none"
       d="m -268,700.15563 0,-33.72973 c 0,-27.24324 3.88785,-31.13513 31.10302,-31.13513 l 33.79408,0 c 27.21507,0 31.1029,3.89189 31.1029,31.13513 l 0,33.72973 c 0,27.24325 -3.88783,31.13514 -31.1029,31.13514 l -33.79408,0 c -27.21517,0 -31.10302,-3.89189 -31.10302,-31.13514 z"
       id="path6455"
       inkscape:connector-curvature="0"
       sodipodi:nodetypes="sssssssss" />
  </g>
  <g
     inkscape:groupmode="layer"
     id="layer3"
     inkscape:label="PLACE YOUR PICTOGRAM HERE"
     style="display:inline"
     sodipodi:insensitive="true">
    <g
       id="g4362"
       transform="matrix(0.09999086,0,0,0.09999086,15.995615,15.936166)">
      <path
         id="path6"
         d="m 312.74,0 11.77,0 c 25.39,0.86 50.68,4.97 74.91,12.65 50.31,15.74 95.98,44.64 133.88,81.06 25.02,24.17 46.75,51.76 64.15,81.89 20.75,36.06 35.3,75.98 40.44,117.36 1.07,8.57 1.55,17.19 2.11,25.81 l 0,11.77 c -1.54,42.84 -11.29,85.42 -29.05,124.47 -15.64,34.7 -37.54,66.55 -64.24,93.66 -28.13,28.25 -61.61,51.23 -98.34,66.78 -19.99,8.89 -41.69,12.94 -63.22,16.05 -21.16,2.71 -42.33,5.77 -63.68,6.5 l -12.96,0 c -20.1,-0.86 -40.18,-3.05 -59.78,-7.71 C 226.98,625.32 206.02,617.42 185.66,608.4 146.47,590.96 110.34,566.31 80.88,535.05 68.37,521.42 56.13,507.32 46.69,491.33 36.68,474.21 29.46,455.66 23.04,436.96 9.85,399.8 0.91,360.87 0,321.33 l 0,-7.94 c 0.46,-20.76 2.84,-41.51 7.83,-61.68 4.01,-15.44 12.51,-29.1 19.3,-43.39 C 47.17,164.23 74.72,123.33 109.68,89.68 137.91,62.24 171.02,39.69 207.25,24.17 240.58,9.86 276.5,1.6 312.74,0 Z"
         inkscape:connector-curvature="0"
         style="fill:#05813f" />
      <path
         id="path10"
         d="m 308.22,12.28 c 38.68,-2.97 77.59,5.28 113.05,20.54 40.52,17.5 77.13,43.46 108.31,74.59 27.4,27.51 50.81,59.2 67.73,94.2 9.65,19.89 17.08,40.91 21.38,62.62 14.09,75.24 -1.75,155.31 -42.24,220.15 -31.07,50.16 -77.11,91.27 -131.42,114.67 C 405.2,616.5 361.32,623.71 317.98,622.26 272.55,621.1 227.29,610.94 185.88,592.17 154.93,578.15 126.56,558.46 102.82,534.15 44.1,473.96 11.24,389.05 15.2,304.96 c 2.59,-50.33 19.9,-99.4 47.26,-141.56 15,-23.05 33.03,-44.08 53.05,-62.92 21.06,-19.36 43.62,-37.42 68.77,-51.22 38.23,-20.58 80.86,-32.49 123.94,-36.98 z"
         inkscape:connector-curvature="0"
         style="fill:#5fbf01" />
      <path
         id="path12"
         d="m 328.39,64.55 c 34.59,-1.82 69.39,6.32 100.21,21.92 36.94,18.61 68.42,47.1 92.68,80.43 25.81,35.46 44,76.68 51.48,119.97 7.5,42.59 2.84,87.26 -13.62,127.28 -13.1,32.56 -33.51,61.92 -58.22,86.75 -15.03,15.2 -31.73,28.68 -49.31,40.82 -18.84,12.7 -39.1,23.82 -61.12,29.85 -11.73,3.31 -23.95,4.01 -36.02,5.17 -27.13,2.06 -54.55,2.26 -81.52,-1.72 -22.19,-3.34 -44.14,-9.5 -64.12,-19.86 C 196.63,548.72 185.14,541 174,532.87 136.54,505.19 105,468.85 85.46,426.38 68.92,390.82 61.58,351.12 63.79,312 c 3.89,-76.62 43.15,-150.6 104.39,-196.79 13.39,-10.19 27.8,-19.09 43.21,-25.89 22.34,-10.03 46.4,-15.62 70.53,-19.29 15.44,-2.17 30.89,-4.61 46.47,-5.48 z"
         inkscape:connector-curvature="0"
         style="fill:#d4feaa" />
      <path
         id="path14"
         d="m 305.24,80.27 c 11.24,-0.49 22.5,-0.24 33.75,-0.24 11.25,0.52 22.6,1.94 33.28,5.69 6.36,2.28 12.71,5.48 17.07,10.8 3.82,4.53 5.06,10.79 4.34,16.57 -1.05,8.44 -4.7,16.22 -7.14,24.3 -7.94,26.52 -15.56,53.24 -26.35,78.78 -7.4,16.45 -12.55,33.87 -20.99,49.85 -2.55,4.67 -5.26,9.37 -9.15,13.06 -1.89,1.75 -4.37,3.4 -7.08,2.87 -3.13,-0.76 -5.28,-3.44 -7,-5.98 -12.92,-21.32 -16.77,-46.35 -25.66,-69.33 -9.36,-25.28 -14.73,-51.77 -22.14,-77.64 -2.13,-6.94 -5.73,-13.61 -5.85,-21.02 0.01,-7.66 5.44,-14 11.22,-18.42 9.11,-6.7 20.69,-8.51 31.7,-9.29 z"
         inkscape:connector-curvature="0"
         style="fill:#8ed944" />
      <path
         id="path16"
         d="m 209.36,122.45 c 7.71,-2.02 16.79,-1.37 22.86,4.3 7.85,7.21 10.67,17.88 14.57,27.43 13.05,31.95 28.8,62.7 42.81,94.22 3.88,8.54 7.38,17.35 9.15,26.6 0.69,4.8 1.31,10.12 -1.08,14.57 -1.85,3.39 -6.01,4.33 -9.58,4.21 -13.63,-0.27 -26.99,-3.61 -39.8,-8.07 -30.94,-10.96 -59.33,-27.78 -87.32,-44.67 -9.28,-5.51 -19.15,-10.45 -26.85,-18.17 -3.56,-3.66 -6.82,-8.56 -5.8,-13.91 1.55,-8.63 7.13,-15.69 11.55,-23.02 9.84,-16.29 22.18,-31.06 36.34,-43.76 9.71,-8.46 20.52,-16.38 33.15,-19.73 z"
         inkscape:connector-curvature="0"
         style="fill:#8ed944" />
      <path
         id="path18"
         d="m 442.44,127.63 c 9.76,-1.23 19.42,2.36 27.71,7.24 13.28,8.01 24.31,19.55 32.31,32.79 5.96,10.17 10.68,22.15 8.34,34.11 -2.65,10.25 -9.91,18.59 -17.82,25.29 -14.8,12.3 -32.63,19.93 -48.98,29.83 -22.43,13.36 -44.07,28.64 -68.83,37.49 -5.58,1.72 -11.63,3.65 -17.45,1.98 -4.13,-1.13 -6.52,-5.32 -6.86,-9.37 -0.89,-7.37 2.05,-14.45 5.03,-21.01 3.09,-6.5 6.64,-12.78 9.64,-19.32 13.53,-28.71 30.33,-55.69 45.95,-83.26 5.12,-9.43 8.63,-19.93 15.9,-28.04 3.83,-4.35 9.35,-6.98 15.06,-7.73 z"
         inkscape:connector-curvature="0"
         style="fill:#8ed944" />
      <path
         id="path20"
         d="m 522.25,256.34 c 5.66,-1.48 11.3,1.3 15.57,4.83 7.87,6.61 14.18,15.62 15.84,25.93 3.71,20.75 2.95,42.29 -1.8,62.81 -2.71,10.23 -6.68,21 -15.22,27.8 -3.62,2.75 -8.09,4.45 -12.66,4.41 -17.54,0.36 -34.91,-3.32 -51.56,-8.59 -23.88,-7.58 -46.44,-18.58 -69.39,-28.51 -9.2,-3.71 -19.06,-6.13 -27.44,-11.65 -3.53,-2.39 -7.15,-5.82 -7.16,-10.41 0.09,-4.82 3.82,-8.49 7.47,-11.15 8.84,-6.26 19.34,-9.4 29.16,-13.74 32,-13.69 64.18,-28.03 98.58,-34.56 6.55,-1.46 12.09,-5.64 18.61,-7.17 z"
         inkscape:connector-curvature="0"
         style="fill:#8ed944" />
      <path
         id="path22"
         d="m 121.47,257.61 c 6.7,-0.69 13.46,0.31 19.97,1.9 13.4,3.43 25.92,9.45 38.94,14.01 16.29,5.8 32.99,10.48 48.93,17.22 5.16,2.1 10.07,4.77 15.3,6.72 7.56,2.87 15.44,5.26 22.26,9.74 3.65,2.46 7.25,6.1 7.3,10.8 0.26,4.53 -2.7,8.46 -6.01,11.23 -5.15,4.18 -11.26,6.9 -17.21,9.7 -6.34,2.89 -12.36,6.42 -18.57,9.57 -28.39,14.16 -58.47,24.69 -89.08,32.88 -9.99,2.49 -20.91,3.97 -30.76,0.11 -7.82,-2.96 -13.53,-9.84 -16.56,-17.46 -4.41,-11.1 -5.31,-23.17 -5.77,-34.98 -0.1,-14.55 -0.45,-29.34 3.16,-43.55 2.08,-7.88 5.5,-15.81 11.75,-21.27 4.5,-4 10.42,-6.06 16.35,-6.62 z"
         inkscape:connector-curvature="0"
         style="fill:#8ed944" />
      <path
         id="path28"
         d="m 279.4,343.63 c 4.38,-0.82 9.79,-0.64 12.82,3.15 3.7,4.87 3.07,11.48 1.97,17.14 -1.77,9.47 -6.68,17.86 -10.87,26.41 -15.03,29.43 -31.46,58.13 -46.43,87.6 -4.57,8.91 -8.81,18.09 -15.01,26.02 -4.23,5.27 -9.75,10.58 -16.86,11.08 -13.36,1.02 -26.21,-4.7 -37,-12.1 -13.88,-9.75 -25.71,-23.09 -31.8,-39.07 -3.55,-9.45 -4.52,-20.39 -0.16,-29.75 5.2,-10.84 13.77,-19.65 22.98,-27.2 25.26,-20.31 55.62,-32.48 84.64,-46.24 11.95,-5.56 22.5,-14.53 35.72,-17.04 z"
         inkscape:connector-curvature="0"
         style="fill:#8ed944" />
      <path
         id="path30"
         d="m 357.4,351.52 c 7.15,-2.3 14.48,0.74 21.49,2.2 19.09,3.92 37.25,11.3 54.75,19.74 19.87,9.73 41.18,16.4 60.37,27.54 9.1,5.51 18.55,11.98 23.23,21.89 3.74,8.67 -0.33,18.12 -4.36,25.9 -11.74,20.78 -29.29,37.46 -47.35,52.73 -7.85,6.68 -15.85,13.7 -25.68,17.26 -6.39,2.27 -14.26,2.61 -19.83,-1.81 -6.45,-5.17 -8.99,-13.39 -12.5,-20.55 -8.62,-17.87 -16.76,-35.96 -24.96,-54.02 -6.6,-14.6 -13.96,-28.84 -20.35,-43.53 -4.66,-11.53 -9.77,-23.31 -10.36,-35.9 -0.34,-4.39 1.03,-9.72 5.55,-11.45 z"
         inkscape:connector-curvature="0"
         style="fill:#8ed944" />
      <path
         id="path32"
         d="m 318.23,366.36 c 5.09,-2.01 10.73,0.36 13.99,4.46 7.87,9.42 10.37,21.8 15.12,32.85 15.03,33.99 26.9,69.3 36.85,105.09 2.75,10.31 6.25,21.78 1.77,32.11 -3.92,8.58 -13.65,11.61 -22.01,14 -23.49,5.8 -48.16,3.47 -71.65,-1.12 -9.58,-2.26 -19.58,-3.84 -28.28,-8.71 -4.65,-2.52 -8.5,-6.85 -9.58,-12.13 -2.5,-11.59 0.38,-23.5 3.94,-34.55 6.56,-19.81 16.91,-38.07 24.52,-57.45 6.72,-19.61 10.31,-40.43 20.15,-58.87 3.59,-6.34 8.05,-13.04 15.18,-15.68 z"
         inkscape:connector-curvature="0"
         style="fill:#8ed944" />
    </g>
  </g>
  <g
     inkscape:groupmode="layer"
     id="layer2"
     inkscape:label="BADGE"
     style="display:none"
     sodipodi:insensitive="true">
    <g
       style="display:inline"
       transform="translate(-340.00001,-581)"
       id="g4394"
       clip-path="none">
      <g
         id="g855">
        <g
           inkscape:groupmode="maskhelper"
           id="g870"
           clip-path="url(#clipPath873)"
           style="opacity:0.6;filter:url(#filter891)">
          <circle
             transform="matrix(1.4999992,0,0,1.4999992,-29.999795,-237.54282)"
             id="path844"
             style="color:#000000;display:inline;overflow:visible;visibility:visible;fill:#000000;fill-opacity:1;fill-rule:nonzero;stroke:none;stroke-width:4;marker:none;enable-background:accumulate"
             cx="252"
             cy="552.36218"
             r="12" />
        </g>
        <g
           id="g862">
          <circle
             style="color:#000000;display:inline;overflow:visible;visibility:visible;fill:#f5f5f5;fill-opacity:1;fill-rule:nonzero;stroke:none;stroke-width:4;marker:none;enable-background:accumulate"
             id="path4398"
             transform="matrix(1.4999992,0,0,1.4999992,-29.999795,-238.54282)"
             cx="252"
             cy="552.36218"
             r="12" />
          <circle
             transform="matrix(1.25,0,0,1.25,33,-100.45273)"
             id="path4400"
             style="color:#000000;display:inline;overflow:visible;visibility:visible;fill:#dd4814;fill-opacity:1;fill-rule:nonzero;stroke:none;stroke-width:4;marker:none;enable-background:accumulate"
             cx="252"
             cy="552.36218"
             r="12" />
          <path
             sodipodi:type="star"
             style="color:#000000;display:inline;overflow:visible;visibility:visible;fill:#f5f5f5;fill-opacity:1;fill-rule:nonzero;stroke:none;stroke-width:3;marker:none;enable-background:accumulate"
             id="path4459"
             sodipodi:sides="5"
             sodipodi:cx="666.19574"
             sodipodi:cy="589.50385"
             sodipodi:r1="7.2431178"
             sodipodi:r2="4.3458705"
             sodipodi:arg1="1.0471976"
             sodipodi:arg2="1.6755161"
             inkscape:flatsided="false"
             inkscape:rounded="0.1"
             inkscape:randomized="0"
             d="m 669.8173,595.77657 c -0.39132,0.22593 -3.62645,-1.90343 -4.07583,-1.95066 -0.44938,-0.0472 -4.05653,1.36297 -4.39232,1.06062 -0.3358,-0.30235 0.68963,-4.03715 0.59569,-4.47913 -0.0939,-0.44198 -2.5498,-3.43681 -2.36602,-3.8496 0.18379,-0.41279 4.05267,-0.59166 4.44398,-0.81759 0.39132,-0.22593 2.48067,-3.48704 2.93005,-3.4398 0.44938,0.0472 1.81505,3.67147 2.15084,3.97382 0.3358,0.30236 4.08294,1.2817 4.17689,1.72369 0.0939,0.44198 -2.9309,2.86076 -3.11469,3.27355 -0.18379,0.41279 0.0427,4.27917 -0.34859,4.5051 z"
             transform="matrix(1.511423,-0.16366377,0.16366377,1.511423,-755.37346,-191.93651)" />
        </g>
      </g>
    </g>
  </g>
</svg>
