<?xml version="1.0" encoding="UTF-8" standalone="no"?>
<!-- Created with Inkscape (http://www.inkscape.org/) -->

<svg
   xmlns:dc="http://purl.org/dc/elements/1.1/"
   xmlns:cc="http://creativecommons.org/ns#"
   xmlns:rdf="http://www.w3.org/1999/02/22-rdf-syntax-ns#"
   xmlns:svg="http://www.w3.org/2000/svg"
   xmlns="http://www.w3.org/2000/svg"
   xmlns:sodipodi="http://sodipodi.sourceforge.net/DTD/sodipodi-0.dtd"
   xmlns:inkscape="http://www.inkscape.org/namespaces/inkscape"
   width="96"
   height="96"
   id="svg6517"
   version="1.1"
   inkscape:version="0.91 r13725"
   sodipodi:docname="icon.svg"
   enable-background="new">
  <defs
     id="defs6519">
    <linearGradient
       id="Background">
      <stop
         id="stop4178"
         offset="0"
         style="stop-color:#b8b8b8;stop-opacity:1" />
      <stop
         id="stop4180"
         offset="1"
         style="stop-color:#c9c9c9;stop-opacity:1" />
    </linearGradient>
    <filter
       style="color-interpolation-filters:sRGB;"
       inkscape:label="Inner Shadow"
       id="filter1121">
      <feFlood
         flood-opacity="0.59999999999999998"
         flood-color="rgb(0,0,0)"
         result="flood"
         id="feFlood1123" />
      <feComposite
         in="flood"
         in2="SourceGraphic"
         operator="out"
         result="composite1"
         id="feComposite1125" />
      <feGaussianBlur
         in="composite1"
         stdDeviation="1"
         result="blur"
         id="feGaussianBlur1127" />
      <feOffset
         dx="0"
         dy="2"
         result="offset"
         id="feOffset1129" />
      <feComposite
         in="offset"
         in2="SourceGraphic"
         operator="atop"
         result="composite2"
         id="feComposite1131" />
    </filter>
    <filter
       style="color-interpolation-filters:sRGB;"
       inkscape:label="Drop Shadow"
       id="filter950">
      <feFlood
         flood-opacity="0.25"
         flood-color="rgb(0,0,0)"
         result="flood"
         id="feFlood952" />
      <feComposite
         in="flood"
         in2="SourceGraphic"
         operator="in"
         result="composite1"
         id="feComposite954" />
      <feGaussianBlur
         in="composite1"
         stdDeviation="1"
         result="blur"
         id="feGaussianBlur956" />
      <feOffset
         dx="0"
         dy="1"
         result="offset"
         id="feOffset958" />
      <feComposite
         in="SourceGraphic"
         in2="offset"
         operator="over"
         result="composite2"
         id="feComposite960" />
    </filter>
    <clipPath
       clipPathUnits="userSpaceOnUse"
       id="clipPath873">
      <g
         transform="matrix(0,-0.66666667,0.66604479,0,-258.25992,677.00001)"
         id="g875"
         inkscape:label="Layer 1"
         style="fill:#ff00ff;fill-opacity:1;stroke:none;display:inline">
        <path
           style="fill:#ff00ff;fill-opacity:1;stroke:none;display:inline"
           d="m 46.702703,898.22775 50.594594,0 C 138.16216,898.22775 144,904.06497 144,944.92583 l 0,50.73846 c 0,40.86071 -5.83784,46.69791 -46.702703,46.69791 l -50.594594,0 C 5.8378378,1042.3622 0,1036.525 0,995.66429 L 0,944.92583 C 0,904.06497 5.8378378,898.22775 46.702703,898.22775 Z"
           id="path877"
           inkscape:connector-curvature="0"
           sodipodi:nodetypes="sssssssss" />
      </g>
    </clipPath>
    <filter
       inkscape:collect="always"
       id="filter891"
       inkscape:label="Badge Shadow">
      <feGaussianBlur
         inkscape:collect="always"
         stdDeviation="0.71999962"
         id="feGaussianBlur893" />
    </filter>
  </defs>
  <sodipodi:namedview
     id="base"
     pagecolor="#ffffff"
     bordercolor="#666666"
     borderopacity="1.0"
     inkscape:pageopacity="0.0"
     inkscape:pageshadow="2"
     inkscape:zoom="8.1490725"
     inkscape:cx="73.647127"
     inkscape:cy="40.68614"
     inkscape:document-units="px"
     inkscape:current-layer="layer3"
     showgrid="true"
     fit-margin-top="0"
     fit-margin-left="0"
     fit-margin-right="0"
     fit-margin-bottom="0"
     inkscape:window-width="1920"
     inkscape:window-height="1056"
     inkscape:window-x="1280"
     inkscape:window-y="24"
     inkscape:window-maximized="1"
     showborder="true"
     showguides="true"
     inkscape:guide-bbox="true"
     inkscape:showpageshadow="false">
    <inkscape:grid
       type="xygrid"
       id="grid821" />
    <sodipodi:guide
       orientation="1,0"
       position="16,48"
       id="guide823" />
    <sodipodi:guide
       orientation="0,1"
       position="64,80"
       id="guide825" />
    <sodipodi:guide
       orientation="1,0"
       position="80,40"
       id="guide827" />
    <sodipodi:guide
       orientation="0,1"
       position="64,16"
       id="guide829" />
  </sodipodi:namedview>
  <metadata
     id="metadata6522">
    <rdf:RDF>
      <cc:Work
         rdf:about="">
        <dc:format>image/svg+xml</dc:format>
        <dc:type
           rdf:resource="http://purl.org/dc/dcmitype/StillImage" />
        <dc:title></dc:title>
      </cc:Work>
    </rdf:RDF>
  </metadata>
  <g
     inkscape:label="BACKGROUND"
     inkscape:groupmode="layer"
     id="layer1"
     transform="translate(268,-635.29076)"
     style="display:inline"
     sodipodi:insensitive="true">
    <path
       style="display:inline;fill:#ffffff;fill-opacity:1;stroke:none"
       d="m -268,700.15563 0,-33.72973 c 0,-27.24324 3.88785,-31.13513 31.10302,-31.13513 l 33.79408,0 c 27.21507,0 31.1029,3.89189 31.1029,31.13513 l 0,33.72973 c 0,27.24325 -3.88783,31.13514 -31.1029,31.13514 l -33.79408,0 c -27.21517,0 -31.10302,-3.89189 -31.10302,-31.13514 z"
       id="path6455"
       inkscape:connector-curvature="0"
       sodipodi:nodetypes="sssssssss" />
  </g>
  <g
     inkscape:groupmode="layer"
     id="layer3"
     inkscape:label="PLACE YOUR PICTOGRAM HERE"
     style="display:inline">
    <g
       id="g4222"
       transform="matrix(0.19441967,0,0,0.19441967,11.805048,6.5607746)">
      <path
         id="path6"
         d="m 160.61,65.48 c 19.14,-9.57 41.42,-10.92 62.31,-7.83 19.58,3.11 38.8,11.32 53.01,25.4 9.07,9.16 16.14,20.95 17.46,33.96 0.66,7.32 -0.27,15 -4.11,21.39 14.76,-0.02 30.14,3.14 42.19,12.09 10.36,7.5 17.32,19.61 18.25,32.41 1.59,14.95 -3.65,30.73 -14.7,41.1 -10.12,9.73 -23.99,14.52 -37.69,16.29 -12.96,1.78 -26.08,1.01 -39.12,1.16 -7.51,-0.24 -15.03,-0.01 -22.54,-0.16 7.26,-6.03 14.63,-11.93 21.88,-17.97 15.55,-0.32 31.49,1.48 46.64,-2.94 8.48,-2.43 16.62,-7.14 21.71,-14.51 6.24,-9.02 7.34,-21.79 1.49,-31.26 -3.3,-5.59 -8.63,-9.69 -14.38,-12.53 -8.69,-4.15 -18.43,-5.62 -27.99,-5.63 -9.28,-0.01 -18.55,0.01 -27.82,-0.01 8.73,-10.01 15.51,-22.85 14.72,-36.47 -0.45,-10.5 -6.47,-19.94 -14.28,-26.63 -20.11,-18.2 -49.87,-22.86 -75.63,-16.23 -20.76,5.92 -36.71,21.34 -52.52,35.22 -0.27,0.13 -0.8,0.4 -1.07,0.53 -12.28,2.01 -23.75,7.21 -35.94,9.6 9.27,-9.38 19,-18.3 28.58,-27.37 12.2,-11.06 24.67,-22.25 39.55,-29.61 z"
         inkscape:connector-curvature="0"
         style="fill:#1366a8" />
      <path
         id="path8"
         d="m 129.49,112.33 c 19.67,-4.05 40.53,-4.78 59.92,1.09 15.01,4.44 28.47,14.81 35.32,29.04 8.25,16.45 8.6,37.25 -0.99,53.22 -7.24,12.13 -19.48,20.42 -32.37,25.65 -19.24,7.88 -40.2,10.24 -60.8,11.11 -36.27,0.09 -72.55,0.2 -108.82,-0.05 28.46,-22.07 56.96,-44.09 85.42,-66.16 9.89,0.03 19.78,0.02 29.66,0.12 -20.3,16.22 -41.14,31.8 -61.54,47.91 22.59,-0.24 45.21,0.56 67.75,-0.89 14.77,-1.44 29.7,-3.83 43.28,-10.1 8.64,-4.05 16.82,-9.93 21.73,-18.3 6.71,-11.22 5.62,-26.04 -1.12,-36.99 -6.04,-9.92 -16.87,-15.98 -27.98,-18.41 -23.24,-4.81 -47.04,0.6 -69.46,6.86 5.8,-8.26 13.25,-15.21 18.93,-23.57 0.27,-0.13 0.8,-0.4 1.07,-0.53 z"
         inkscape:connector-curvature="0"
         style="fill:#00a0d1" />
      <path
         id="path10"
         d="m 92.48,122.46 c 12.19,-2.39 23.66,-7.59 35.94,-9.6 -5.68,8.36 -13.13,15.31 -18.93,23.57 -18.47,6.05 -35.99,14.75 -54.21,21.4 10.77,-10.74 21.97,-21.05 32.84,-31.69 1.39,-1.29 2.7,-2.73 4.36,-3.68 z"
         inkscape:connector-curvature="0"
         style="fill:#0087c0" />
      <path
         id="path16"
         d="m 227.19,223.32 c 10.11,-0.3 20.25,-0.12 30.36,0 -7.25,6.04 -14.62,11.94 -21.88,17.97 7.51,0.15 15.03,-0.08 22.54,0.16 -7.7,0.4 -15.42,-0.01 -23.12,0.24 -10.45,0.02 -20.91,0.14 -31.36,-0.08 7.69,-6.25 15.56,-12.34 23.46,-18.29 z"
         inkscape:connector-curvature="0"
         style="fill:#96877f" />
      <path
         id="path18"
         d="m 146.01,286.63 c 19.18,-15.08 38.57,-29.9 57.72,-45.02 10.45,0.22 20.91,0.1 31.36,0.08 -11.99,8.97 -24.07,17.83 -36,26.88 31.81,0 63.62,-0.03 95.44,0.01 -43.44,33.57 -86.82,67.22 -130.33,100.69 -9.44,-0.1 -18.88,-0.01 -28.32,-0.05 35.18,-27.65 70.65,-54.92 105.82,-82.57 -31.9,-0.02 -63.79,0.03 -95.69,-0.02 z"
         inkscape:connector-curvature="0"
         style="fill:#fca834" />
    </g>
  </g>
  <g
     inkscape:groupmode="layer"
     id="layer2"
     inkscape:label="BADGE"
     style="display:none"
     sodipodi:insensitive="true">
    <g
       style="display:inline"
       transform="translate(-340.00001,-581)"
       id="g4394"
       clip-path="none">
      <g
         id="g855">
        <g
           inkscape:groupmode="maskhelper"
           id="g870"
           clip-path="url(#clipPath873)"
           style="opacity:0.6;filter:url(#filter891)">
          <circle
             transform="matrix(1.4999992,0,0,1.4999992,-29.999795,-237.54282)"
             id="path844"
             style="color:#000000;display:inline;overflow:visible;visibility:visible;fill:#000000;fill-opacity:1;fill-rule:nonzero;stroke:none;stroke-width:4;marker:none;enable-background:accumulate"
             cx="252"
             cy="552.36218"
             r="12" />
        </g>
        <g
           id="g862">
          <circle
             style="color:#000000;display:inline;overflow:visible;visibility:visible;fill:#f5f5f5;fill-opacity:1;fill-rule:nonzero;stroke:none;stroke-width:4;marker:none;enable-background:accumulate"
             id="path4398"
             transform="matrix(1.4999992,0,0,1.4999992,-29.999795,-238.54282)"
             cx="252"
             cy="552.36218"
             r="12" />
          <circle
             transform="matrix(1.25,0,0,1.25,33,-100.45273)"
             id="path4400"
             style="color:#000000;display:inline;overflow:visible;visibility:visible;fill:#dd4814;fill-opacity:1;fill-rule:nonzero;stroke:none;stroke-width:4;marker:none;enable-background:accumulate"
             cx="252"
             cy="552.36218"
             r="12" />
          <path
             sodipodi:type="star"
             style="color:#000000;display:inline;overflow:visible;visibility:visible;fill:#f5f5f5;fill-opacity:1;fill-rule:nonzero;stroke:none;stroke-width:3;marker:none;enable-background:accumulate"
             id="path4459"
             sodipodi:sides="5"
             sodipodi:cx="666.19574"
             sodipodi:cy="589.50385"
             sodipodi:r1="7.2431178"
             sodipodi:r2="4.3458705"
             sodipodi:arg1="1.0471976"
             sodipodi:arg2="1.6755161"
             inkscape:flatsided="false"
             inkscape:rounded="0.1"
             inkscape:randomized="0"
             d="m 669.8173,595.77657 c -0.39132,0.22593 -3.62645,-1.90343 -4.07583,-1.95066 -0.44938,-0.0472 -4.05653,1.36297 -4.39232,1.06062 -0.3358,-0.30235 0.68963,-4.03715 0.59569,-4.47913 -0.0939,-0.44198 -2.5498,-3.43681 -2.36602,-3.8496 0.18379,-0.41279 4.05267,-0.59166 4.44398,-0.81759 0.39132,-0.22593 2.48067,-3.48704 2.93005,-3.4398 0.44938,0.0472 1.81505,3.67147 2.15084,3.97382 0.3358,0.30236 4.08294,1.2817 4.17689,1.72369 0.0939,0.44198 -2.9309,2.86076 -3.11469,3.27355 -0.18379,0.41279 0.0427,4.27917 -0.34859,4.5051 z"
             transform="matrix(1.511423,-0.16366377,0.16366377,1.511423,-755.37346,-191.93651)" />
        </g>
      </g>
    </g>
  </g>
</svg>
