<?xml version="1.0" encoding="UTF-8" standalone="no"?>
<!-- Created with Inkscape (http://www.inkscape.org/) -->

<svg
   xmlns:dc="http://purl.org/dc/elements/1.1/"
   xmlns:cc="http://creativecommons.org/ns#"
   xmlns:rdf="http://www.w3.org/1999/02/22-rdf-syntax-ns#"
   xmlns:svg="http://www.w3.org/2000/svg"
   xmlns="http://www.w3.org/2000/svg"
   xmlns:sodipodi="http://sodipodi.sourceforge.net/DTD/sodipodi-0.dtd"
   xmlns:inkscape="http://www.inkscape.org/namespaces/inkscape"
   width="96"
   height="96"
   id="svg6517"
   version="1.1"
   inkscape:version="0.91 r13725"
   sodipodi:docname="icon.svg"
   enable-background="new"
   inkscape:export-filename="/home/merlijn/Desktop/kafka-logo.png"
   inkscape:export-xdpi="468"
   inkscape:export-ydpi="468">
  <defs
     id="defs6519">
    <linearGradient
       id="Background">
      <stop
         id="stop4178"
         offset="0"
         style="stop-color:#b8b8b8;stop-opacity:1" />
      <stop
         id="stop4180"
         offset="1"
         style="stop-color:#c9c9c9;stop-opacity:1" />
    </linearGradient>
    <filter
       style="color-interpolation-filters:sRGB;"
       inkscape:label="Inner Shadow"
       id="filter1121">
      <feFlood
         flood-opacity="0.59999999999999998"
         flood-color="rgb(0,0,0)"
         result="flood"
         id="feFlood1123" />
      <feComposite
         in="flood"
         in2="SourceGraphic"
         operator="out"
         result="composite1"
         id="feComposite1125" />
      <feGaussianBlur
         in="composite1"
         stdDeviation="1"
         result="blur"
         id="feGaussianBlur1127" />
      <feOffset
         dx="0"
         dy="2"
         result="offset"
         id="feOffset1129" />
      <feComposite
         in="offset"
         in2="SourceGraphic"
         operator="atop"
         result="composite2"
         id="feComposite1131" />
    </filter>
    <filter
       style="color-interpolation-filters:sRGB;"
       inkscape:label="Drop Shadow"
       id="filter950">
      <feFlood
         flood-opacity="0.25"
         flood-color="rgb(0,0,0)"
         result="flood"
         id="feFlood952" />
      <feComposite
         in="flood"
         in2="SourceGraphic"
         operator="in"
         result="composite1"
         id="feComposite954" />
      <feGaussianBlur
         in="composite1"
         stdDeviation="1"
         result="blur"
         id="feGaussianBlur956" />
      <feOffset
         dx="0"
         dy="1"
         result="offset"
         id="feOffset958" />
      <feComposite
         in="SourceGraphic"
         in2="offset"
         operator="over"
         result="composite2"
         id="feComposite960" />
    </filter>
    <clipPath
       clipPathUnits="userSpaceOnUse"
       id="clipPath873">
      <g
         transform="matrix(0,-0.66666667,0.66604479,0,-258.25992,677.00001)"
         id="g875"
         inkscape:label="Layer 1"
         style="fill:#ff00ff;fill-opacity:1;stroke:none;display:inline">
        <path
           style="fill:#ff00ff;fill-opacity:1;stroke:none;display:inline"
           d="m 46.702703,898.22775 50.594594,0 C 138.16216,898.22775 144,904.06497 144,944.92583 l 0,50.73846 c 0,40.86071 -5.83784,46.69791 -46.702703,46.69791 l -50.594594,0 C 5.8378378,1042.3622 0,1036.525 0,995.66429 L 0,944.92583 C 0,904.06497 5.8378378,898.22775 46.702703,898.22775 Z"
           id="path877"
           inkscape:connector-curvature="0"
           sodipodi:nodetypes="sssssssss" />
      </g>
    </clipPath>
    <filter
       inkscape:collect="always"
       id="filter891"
       inkscape:label="Badge Shadow">
      <feGaussianBlur
         inkscape:collect="always"
         stdDeviation="0.71999962"
         id="feGaussianBlur893" />
    </filter>
  </defs>
  <sodipodi:namedview
     id="base"
     pagecolor="#ffffff"
     bordercolor="#666666"
     borderopacity="1.0"
     inkscape:pageopacity="0.0"
     inkscape:pageshadow="2"
     inkscape:zoom="2.8811322"
     inkscape:cx="-134.38887"
     inkscape:cy="49.552094"
     inkscape:document-units="px"
     inkscape:current-layer="g4275"
     showgrid="true"
     fit-margin-top="0"
     fit-margin-left="0"
     fit-margin-right="0"
     fit-margin-bottom="0"
     inkscape:window-width="1855"
     inkscape:window-height="1056"
     inkscape:window-x="65"
     inkscape:window-y="24"
     inkscape:window-maximized="1"
     showborder="true"
     showguides="true"
     inkscape:guide-bbox="true"
     inkscape:showpageshadow="false">
    <inkscape:grid
       type="xygrid"
       id="grid821" />
    <sodipodi:guide
       orientation="1,0"
       position="16,48"
       id="guide823" />
    <sodipodi:guide
       orientation="0,1"
       position="64,80"
       id="guide825" />
    <sodipodi:guide
       orientation="1,0"
       position="80,40"
       id="guide827" />
    <sodipodi:guide
       orientation="0,1"
       position="64,16"
       id="guide829" />
  </sodipodi:namedview>
  <metadata
     id="metadata6522">
    <rdf:RDF>
      <cc:Work
         rdf:about="">
        <dc:format>image/svg+xml</dc:format>
        <dc:type
           rdf:resource="http://purl.org/dc/dcmitype/StillImage" />
        <dc:title />
      </cc:Work>
    </rdf:RDF>
  </metadata>
  <g
     inkscape:label="BACKGROUND"
     inkscape:groupmode="layer"
     id="layer1"
     transform="translate(268,-635.29076)"
     style="display:inline"
     sodipodi:insensitive="true">
    <path
       style="display:inline;fill:#a71f28;fill-opacity:1;stroke:none"
       d="m -268,700.15563 0,-33.72973 c 0,-27.24324 3.88785,-31.13513 31.10302,-31.13513 l 33.79408,0 c 27.21507,0 31.1029,3.89189 31.1029,31.13513 l 0,33.72973 c 0,27.24325 -3.88783,31.13514 -31.1029,31.13514 l -33.79408,0 c -27.21517,0 -31.10302,-3.89189 -31.10302,-31.13514 z"
       id="path6455"
       inkscape:connector-curvature="0"
       sodipodi:nodetypes="sssssssss" />
  </g>
  <g
     inkscape:groupmode="layer"
     id="layer3"
     inkscape:label="PLACE YOUR PICTOGRAM HERE"
     style="display:inline">
    <g
       id="g4275"
       transform="matrix(0.57480766,0,0,0.83873957,27.49051,15.312293)">
      <path
         inkscape:connector-curvature="0"
         style="opacity:0;fill:#fffffe;fill-opacity:0.94977172"
         id="path3203"
         d="m -3.4794248,0.04322 76.7999998,0 0,76.8 -76.7999998,0 0,-76.8 z" />
      <path
         style="fill:#ffffff;fill-opacity:1"
         inkscape:connector-curvature="0"
         id="path3205"
         d="m 10.283135,3.6403482 c 7.22944,-3.69558974 19.26144,-1.6738461 22.66112,3.8531283 3.95264,5.3956925 -1.60768,12.2420515 -10.6496,13.4235895 0,1.732924 0.01024,3.459282 0,5.185642 4.6592,0.708923 8.87808,2.258051 12.05248,4.56205 2.21184,-0.892717 4.526079,-1.700102 6.72768,-2.605948 -0.59392,-3.209847 -0.59392,-6.833231 3.10272,-9.340718 5.77536,-4.719589 18.51392,-4.476718 23.72608,0.531692 4.751359,4.076308 3.266559,10.450051 -3.21536,13.403898 -6.03136,3.012923 -15.28832,2.271179 -20.41856,-1.266872 -2.16064,0.833641 -4.43392,1.549128 -6.52288,2.454975 -0.307201,1.122461 0.45056,2.251486 0.6144,3.373948 0.70656,1.956103 -0.78848,3.859693 -0.68608,5.809231 2.11968,0.951795 4.47488,1.68041 6.79936,2.415589 6.36928,-4.653948 19.445759,-3.918768 24.10496,1.575386 5.12,5.087179 0.62464,12.668717 -8.52992,14.211281 -6.85056,1.273436 -14.7968,-0.794256 -17.84832,-4.988717 -1.81248,-2.23836 -1.69984,-4.857437 -0.8704,-7.259898 -2.29376,-0.951795 -4.67968,-1.805128 -6.97344,-2.756923 -3.16416,2.284307 -7.34208,3.885949 -12.01152,4.516102 -0.06144,1.746051 -0.04096,3.498667 -0.0512,5.251283 4.78208,0.728615 8.98048,2.921025 10.81344,5.868307 2.75456,4.299487 0.07168,9.872411 -6.51264,12.025436 -6.2464,2.422154 -15.06304,1.234052 -19.3331198,-2.546872 -4.89472,-3.846564 -3.84,-10.095589 2.17088,-13.213539 1.9148798,-1.102768 4.4134398,-1.634461 6.7891198,-2.19241 0.03072,-1.68041 0.04096,-3.367384 0.07168,-5.047794 -4.79232,-0.873026 -9.5539198,-2.284308 -12.5132798,-4.962461 -5.81632,-4.739283 -5.00736,-12.248616 1.9456,-16.338052 2.78528,-1.93641 6.7788798,-2.776616 10.5676788,-3.577436 -0.03072,-1.68041 -0.04096,-3.360821 -0.07168,-5.034667 C 12.116095,20.181887 8.1224952,18.678708 6.0847351,16.164655 2.3471352,12.081784 4.2108152,6.3644508 10.283135,3.6403482 Z" />
      <path
         style="fill:#a71f28;fill-opacity:1"
         inkscape:connector-curvature="0"
         id="path3207"
         d="m 15.474815,7.4869124 c 4.62848,-2.1530257 11.58144,0.7745641 10.9056,4.3126156 -0.37888,3.124513 -6.35904,5.382564 -10.65984,3.662769 -4.77184,-1.536 -4.92544,-6.3212308 -0.24576,-7.9753846 z" />
      <path
         style="fill:#a71f28;fill-opacity:1"
         inkscape:connector-curvature="0"
         id="path3209"
         d="m 52.287615,20.844861 c 4.51584,-1.673846 10.91584,0.761436 10.56768,4.135384 0.235519,3.649642 -7.33184,5.96677 -11.64288,3.557744 -4.106241,-1.897025 -3.38944,-6.255589 1.0752,-7.693128 z" />
      <path
         style="fill:#a71f28;fill-opacity:1"
         inkscape:connector-curvature="0"
         id="path3211"
         d="m 15.300735,32.305784 c 7.311359,-2.303999 16.35328,2.829129 13.8752,7.75877 -1.44384,4.555487 -11.17184,6.721641 -16.5376,3.472409 -6.0518398,-2.894768 -4.3519998,-9.570461 2.6624,-11.231179 z" />
      <path
         style="fill:#a71f28;fill-opacity:1"
         inkscape:connector-curvature="0"
         id="path3213"
         d="m 51.212415,48.348451 c 4.66944,-2.619077 12.759039,0.347897 11.601919,4.253538 -0.409599,3.629949 -8.345599,5.218462 -12.103679,2.651898 -3.2256,-1.772308 -2.8672,-5.303795 0.50176,-6.905436 z" />
      <path
         style="fill:#a71f28;fill-opacity:1"
         inkscape:connector-curvature="0"
         id="path3215"
         d="m 17.195135,61.030297 c 5.10976,-1.13559 10.78272,2.566565 8.82688,5.809231 -1.269761,3.190153 -8.48896,4.483282 -11.84768,1.857641 -4.06528,-2.19241 -2.03776,-6.872615 3.0208,-7.666872 z" />
      <g
         style="opacity:1"
         inkscape:label="Alpha"
         id="layer1-7" />
    </g>
  </g>
  <g
     inkscape:groupmode="layer"
     id="layer2"
     inkscape:label="BADGE"
     style="display:none"
     sodipodi:insensitive="true">
    <g
       style="display:inline"
       transform="translate(-340.00001,-581)"
       id="g4394"
       clip-path="none">
      <g
         id="g855">
        <g
           inkscape:groupmode="maskhelper"
           id="g870"
           clip-path="url(#clipPath873)"
           style="opacity:0.6;filter:url(#filter891)">
          <circle
             transform="matrix(1.4999992,0,0,1.4999992,-29.999795,-237.54282)"
             id="path844"
             style="color:#000000;display:inline;overflow:visible;visibility:visible;fill:#000000;fill-opacity:1;fill-rule:nonzero;stroke:none;stroke-width:4;marker:none;enable-background:accumulate"
             cx="252"
             cy="552.36218"
             r="12" />
        </g>
        <g
           id="g862">
          <circle
             style="color:#000000;display:inline;overflow:visible;visibility:visible;fill:#f5f5f5;fill-opacity:1;fill-rule:nonzero;stroke:none;stroke-width:4;marker:none;enable-background:accumulate"
             id="path4398"
             transform="matrix(1.4999992,0,0,1.4999992,-29.999795,-238.54282)"
             cx="252"
             cy="552.36218"
             r="12" />
          <circle
             transform="matrix(1.25,0,0,1.25,33,-100.45273)"
             id="path4400"
             style="color:#000000;display:inline;overflow:visible;visibility:visible;fill:#dd4814;fill-opacity:1;fill-rule:nonzero;stroke:none;stroke-width:4;marker:none;enable-background:accumulate"
             cx="252"
             cy="552.36218"
             r="12" />
          <path
             sodipodi:type="star"
             style="color:#000000;display:inline;overflow:visible;visibility:visible;fill:#f5f5f5;fill-opacity:1;fill-rule:nonzero;stroke:none;stroke-width:3;marker:none;enable-background:accumulate"
             id="path4459"
             sodipodi:sides="5"
             sodipodi:cx="666.19574"
             sodipodi:cy="589.50385"
             sodipodi:r1="7.2431178"
             sodipodi:r2="4.3458705"
             sodipodi:arg1="1.0471976"
             sodipodi:arg2="1.6755161"
             inkscape:flatsided="false"
             inkscape:rounded="0.1"
             inkscape:randomized="0"
             d="m 669.8173,595.77657 c -0.39132,0.22593 -3.62645,-1.90343 -4.07583,-1.95066 -0.44938,-0.0472 -4.05653,1.36297 -4.39232,1.06062 -0.3358,-0.30235 0.68963,-4.03715 0.59569,-4.47913 -0.0939,-0.44198 -2.5498,-3.43681 -2.36602,-3.8496 0.18379,-0.41279 4.05267,-0.59166 4.44398,-0.81759 0.39132,-0.22593 2.48067,-3.48704 2.93005,-3.4398 0.44938,0.0472 1.81505,3.67147 2.15084,3.97382 0.3358,0.30236 4.08294,1.2817 4.17689,1.72369 0.0939,0.44198 -2.9309,2.86076 -3.11469,3.27355 -0.18379,0.41279 0.0427,4.27917 -0.34859,4.5051 z"
             transform="matrix(1.511423,-0.16366377,0.16366377,1.511423,-755.37346,-191.93651)" />
        </g>
      </g>
    </g>
  </g>
</svg>
