<?xml version="1.0" encoding="UTF-8" standalone="no"?>
<!-- Created with Inkscape (http://www.inkscape.org/) -->

<svg
   xmlns:dc="http://purl.org/dc/elements/1.1/"
   xmlns:cc="http://creativecommons.org/ns#"
   xmlns:rdf="http://www.w3.org/1999/02/22-rdf-syntax-ns#"
   xmlns:svg="http://www.w3.org/2000/svg"
   xmlns="http://www.w3.org/2000/svg"
   xmlns:sodipodi="http://sodipodi.sourceforge.net/DTD/sodipodi-0.dtd"
   xmlns:inkscape="http://www.inkscape.org/namespaces/inkscape"
   width="96"
   height="96"
   id="svg6517"
   version="1.1"
   inkscape:version="0.91 r13725"
   sodipodi:docname="icon.svg">
  <defs
     id="defs6519">
    <linearGradient
       id="Background">
      <stop
         id="stop4178"
         offset="0"
         style="stop-color:#b8b8b8;stop-opacity:1" />
      <stop
         id="stop4180"
         offset="1"
         style="stop-color:#c9c9c9;stop-opacity:1" />
    </linearGradient>
    <filter
       style="color-interpolation-filters:sRGB;"
       inkscape:label="Inner Shadow"
       id="filter1121">
      <feFlood
         flood-opacity="0.59999999999999998"
         flood-color="rgb(0,0,0)"
         result="flood"
         id="feFlood1123" />
      <feComposite
         in="flood"
         in2="SourceGraphic"
         operator="out"
         result="composite1"
         id="feComposite1125" />
      <feGaussianBlur
         in="composite1"
         stdDeviation="1"
         result="blur"
         id="feGaussianBlur1127" />
      <feOffset
         dx="0"
         dy="2"
         result="offset"
         id="feOffset1129" />
      <feComposite
         in="offset"
         in2="SourceGraphic"
         operator="atop"
         result="composite2"
         id="feComposite1131" />
    </filter>
    <filter
       style="color-interpolation-filters:sRGB;"
       inkscape:label="Drop Shadow"
       id="filter950">
      <feFlood
         flood-opacity="0.25"
         flood-color="rgb(0,0,0)"
         result="flood"
         id="feFlood952" />
      <feComposite
         in="flood"
         in2="SourceGraphic"
         operator="in"
         result="composite1"
         id="feComposite954" />
      <feGaussianBlur
         in="composite1"
         stdDeviation="1"
         result="blur"
         id="feGaussianBlur956" />
      <feOffset
         dx="0"
         dy="1"
         result="offset"
         id="feOffset958" />
      <feComposite
         in="SourceGraphic"
         in2="offset"
         operator="over"
         result="composite2"
         id="feComposite960" />
    </filter>
    <clipPath
       clipPathUnits="userSpaceOnUse"
       id="clipPath873">
      <g
         transform="matrix(0,-0.66666667,0.66604479,0,-258.25992,677.00001)"
         id="g875"
         inkscape:label="Layer 1"
         style="fill:#ff00ff;fill-opacity:1;stroke:none;display:inline">
        <path
           style="fill:#ff00ff;fill-opacity:1;stroke:none;display:inline"
           d="m 46.702703,898.22775 50.594594,0 C 138.16216,898.22775 144,904.06497 144,944.92583 l 0,50.73846 c 0,40.86071 -5.83784,46.69791 -46.702703,46.69791 l -50.594594,0 C 5.8378378,1042.3622 0,1036.525 0,995.66429 L 0,944.92583 C 0,904.06497 5.8378378,898.22775 46.702703,898.22775 Z"
           id="path877"
           inkscape:connector-curvature="0"
           sodipodi:nodetypes="sssssssss" />
      </g>
    </clipPath>
    <filter
       inkscape:collect="always"
       id="filter891"
       inkscape:label="Badge Shadow">
      <feGaussianBlur
         inkscape:collect="always"
         stdDeviation="0.71999962"
         id="feGaussianBlur893" />
    </filter>
    <filter
       inkscape:collect="always"
       style="color-interpolation-filters:sRGB"
       id="filter4306"
       x="-0.06"
       width="1.12"
       y="-0.06"
       height="1.12">
      <feGaussianBlur
         inkscape:collect="always"
         stdDeviation="2.4"
         id="feGaussianBlur4308" />
    </filter>
  </defs>
  <sodipodi:namedview
     id="base"
     pagecolor="#ffffff"
     bordercolor="#666666"
     borderopacity="1.0"
     inkscape:pageopacity="0.0"
     inkscape:pageshadow="2"
     inkscape:zoom="5.7622644"
     inkscape:cx="62.338309"
     inkscape:cy="40.701934"
     inkscape:document-units="px"
     inkscape:current-layer="layer3"
     showgrid="true"
     fit-margin-top="0"
     fit-margin-left="0"
     fit-margin-right="0"
     fit-margin-bottom="0"
     inkscape:window-width="1920"
     inkscape:window-height="1056"
     inkscape:window-x="1280"
     inkscape:window-y="24"
     inkscape:window-maximized="1"
     showborder="true"
     showguides="true"
     inkscape:guide-bbox="true"
     inkscape:showpageshadow="false">
    <inkscape:grid
       type="xygrid"
       id="grid821" />
    <sodipodi:guide
       orientation="1,0"
       position="16,48"
       id="guide823" />
    <sodipodi:guide
       orientation="0,1"
       position="64,80"
       id="guide825" />
    <sodipodi:guide
       orientation="1,0"
       position="80,40"
       id="guide827" />
    <sodipodi:guide
       orientation="0,1"
       position="64,16"
       id="guide829" />
  </sodipodi:namedview>
  <metadata
     id="metadata6522">
    <rdf:RDF>
      <cc:Work
         rdf:about="">
        <dc:format>image/svg+xml</dc:format>
        <dc:type
           rdf:resource="http://purl.org/dc/dcmitype/StillImage" />
        <dc:title></dc:title>
      </cc:Work>
    </rdf:RDF>
  </metadata>
  <g
     inkscape:label="BACKGROUND"
     inkscape:groupmode="layer"
     id="layer1"
     transform="translate(268,-635.29076)"
     style="display:inline"
     sodipodi:insensitive="true">
    <path
       style="display:inline;fill:#ffffff;fill-opacity:1;stroke:none;stroke-opacity:1;filter:url(#filter4306)"
       d="m -268,700.15563 0,-33.72973 c 0,-27.24324 3.88785,-31.13513 31.10302,-31.13513 l 33.79408,0 c 27.21507,0 31.1029,3.89189 31.1029,31.13513 l 0,33.72973 c 0,27.24325 -3.88783,31.13514 -31.1029,31.13514 l -33.79408,0 c -27.21517,0 -31.10302,-3.89189 -31.10302,-31.13514 z"
       id="path6455"
       inkscape:connector-curvature="0"
       sodipodi:nodetypes="sssssssss" />
  </g>
  <g
     inkscape:groupmode="layer"
     id="layer3"
     inkscape:label="PLACE YOUR PICTOGRAM HERE"
     style="display:inline">
    <g
       id="g4253"
       style="fill:#000000"
       transform="matrix(0.19450007,0,0,0.19450007,23.086107,16.015524)">
      <path
         id="path4255"
         d="M 76.501097,203.35134 C 66.751751,195.6811 56.347873,188.33059 49.240092,177.97358 34.2796,159.7103 22.76419,138.56942 14.891392,116.34881 10.130551,101.89889 8.5017538,86.407737 2.3615409,72.518602 -4.0532073,62.427762 3.4663774,51.404506 14.518091,48.198806 19.434614,47.251325 28.085819,42.609337 17.643439,45.930543 8.2791125,52.79727 7.3768293,39.691564 16.97719,38.861263 23.529205,37.99246 25.941432,32.630654 23.698279,27.804527 16.662478,23.214433 40.752938,18.179057 28.629867,11.332418 16.009621,-2.2888776 46.290513,-4.9103535 38.8178,10.560707 37.031647,22.456114 59.98379,8.3761433 54.653791,22.114619 c 5.415373,6.598887 20.272077,1.504921 19.898776,10.75709 7.88619,0.542375 10.593039,7.173068 17.988748,7.683637 7.676945,3.465169 21.579465,6.192106 24.187555,14.836616 -7.60998,6.023033 -25.227105,-12.442804 -26.077495,4.231858 2.301743,24.637856 1.714171,50.01729 10.725285,73.47833 4.26199,14.20384 14.60058,25.38446 23.93143,36.44956 8.93244,10.8341 21.0304,18.46584 33.36272,24.88728 10.81568,5.10066 22.47505,8.48046 34.265,10.60643 4.77925,-3.656 13.22121,-17.25051 20.67551,-11.5221 0.3599,6.44823 -14.79644,13.47063 -0.71145,12.75751 8.2779,-2.4976 14.01301,6.39466 20.82617,-1.6288 6.27748,7.43589 26.09088,-4.74744 21.62466,10.45075 -6.04145,3.89706 -14.85001,1.54175 -20.89815,6.90523 -9.97199,-4.98348 -17.91174,4.45283 -28.95509,3.26262 -12.26034,2.19628 -24.73829,3.08015 -37.1677,3.09856 -20.39596,-1.60871 -41.22213,-2.28835 -60.62373,-9.38943 -10.932856,-3.17725 -21.597877,-9.40283 -31.204933,-15.62842 l 0,0 z m 17.223733,7.46769 c 10.67172,4.61018 21.10907,9.47481 32.80695,10.94625 18.55791,2.57628 37.72347,6.55202 56.34666,2.92949 -8.42856,-3.80499 -17.14505,1.47814 -25.54181,-2.72024 -10.06908,2.16448 -20.87806,-0.55576 -31.11956,-1.89663 -11.63929,-5.18436 -24.20597,-8.7483 -35.10702,-15.48446 -13.627992,-4.97511 7.042496,6.38295 10.72361,7.30532 8.51394,4.83115 -9.364326,-2.47919 -11.888711,-4.48631 -7.132892,-4.00252 -8.041871,-3.16552 -0.704751,0.89559 1.476463,0.86378 2.936186,1.77276 4.484632,2.51099 l 0,0 z M 73.414251,196.4662 c 10.345288,3.83177 -0.0452,-7.27183 -4.779255,-6.63069 -2.09919,-3.64262 -8.023458,-5.94436 -3.845167,-7.89959 -7.512888,2.60976 -7.872797,-9.92009 -11.403252,-8.12724 -7.951476,-2.51099 -3.093543,-11.40493 -12.568353,-16.87052 -0.863782,-5.75519 -9.409525,-10.7437 -12.129767,-19.42169 -1.203602,-4.44613 -9.65895,-17.20364 -4.466218,-5.33 4.419346,11.43004 12.195052,21.22626 18.66839,31.00239 5.021985,9.31076 10.959644,19.04838 20.108026,24.85547 3.086846,2.9613 6.061535,7.4928 10.415596,8.42187 l 0,0 z M 43.623839,163.75132 c 0.358235,-1.56351 1.88994,3.37979 0,0 l 0,0 z m 42.182995,37.30497 c 2.288351,-1.02616 -3.296096,-1.29399 0,0 l 0,0 z m 5.609557,2.0473 c -0.580876,-2.8257 -2.562886,1.58192 0,0 l 0,0 z m 7.030778,2.92949 c 3.341291,-3.18561 -5.159252,-2.00879 0,0 l 0,0 z m 12.044391,6.71439 c 2.0339,-3.00147 -6.50682,-1.12994 0,0 l 0,0 z M 87.363649,196.62356 c 5.191058,-3.36139 -6.716067,-0.0469 0,0 l 0,0 z m 5.269736,2.62817 c -0.15066,-1.77276 -1.876548,0.79682 0,0 l 0,0 z m 26.345325,16.44532 c 4.23689,2.67505 24.7383,5.85898 11.90211,1.09814 -2.15276,0.45198 -23.80253,-6.12682 -11.90211,-1.09814 l 0,0 z M 77.155629,183.11944 c -0.411803,-1.77778 -6.5788,-1.96862 0,0 l 0,0 z m 12.260338,7.15465 c 3.19733,-2.22976 -6.623997,-1.72086 0,0 l 0,0 z m 10.318504,6.32268 c 4.583399,-1.72589 -7.427515,-1.73258 0,0 l 0,0 z M 72.158754,177.68565 c 4.970091,3.81169 20.049436,0.49048 7.611655,-2.27496 -5.656429,-3.01486 -18.407247,-5.08057 -9.715866,1.81796 l 2.104211,0.457 0,0 z m 34.566316,21.09569 c 2.07241,-3.52544 -8.684682,-2.01549 0,0 l 0,0 z m -10.50264,-8.34487 c 12.14985,3.43336 -10.219738,-7.69033 -2.999799,-1.26889 l 1.602013,0.72652 1.397786,0.54237 0,0 z m 21.05718,12.16994 c 11.50871,0.11049 -10.39718,-1.58862 0,0 l 0,0 z M 67.732712,171.02817 c -0.451978,-2.14438 -2.837421,0.17745 0,0 l 0,0 z m 69.013788,42.49771 c 0.30634,-3.87028 -3.75477,2.88429 0,0 l 0,0 z M 87.375367,183.05415 c -0.69973,-2.0406 -3.59574,-0.0854 0,0 l 0,0 z m -18.55121,-13.37187 c 6.605583,-0.39841 -9.049616,-2.9094 0,0 l 0,0 z M 46.846279,155.47844 c -0.823605,-3.17055 -7.18646,-5.69493 0,0 l 0,0 z m 57.694231,36.61361 c -1.20862,-1.38104 -0.56916,0.29965 0,0 l 0,0 z m 35.90551,22.03647 c -0.11048,-2.11258 -1.95522,0.79682 0,0 l 0,0 z m -39.08275,-25.31917 c 0.64783,-2.72024 -5.636342,-0.82528 0,0 l 0,0 z m -26.752113,-16.9559 c 4.918197,-0.52396 -7.879494,-3.32288 0,0 l 0,0 z m 45.251423,28.1181 c 7.66355,-3.03496 -7.46769,-1.47814 0,0 l 0,0 z M 96.327892,183.99661 c 8.826978,1.13664 -10.507666,-6.00964 -1.941834,-0.64114 l 1.941834,0.64114 0,0 z m 30.680978,18.86425 c 8.2461,-4.92322 5.52585,11.54219 13.9879,1.39276 8.34319,-6.09334 -7.20655,7.53298 3.07345,1.08643 7.44091,-4.97679 18.42566,2.36033 25.36437,4.74745 4.98851,-0.24273 9.84142,4.31555 14.96049,1.54174 9.84812,-2.65495 -19.26265,-3.93556 -11.63259,-8.63781 -9.01111,2.62315 -15.66691,-3.12535 -20.10133,-8.89895 -10.10925,-2.33523 -21.79373,-7.50118 -26.8425,-16.45203 -2.05901,-3.35468 2.96966,0.47709 -1.77778,-5.01528 -6.08832,-5.41538 -9.1283,-11.56898 -13.21619,-18.1528 -4.88472,-2.60307 -5.46057,-10.27331 -5.95106,-0.25445 0.0402,-6.32435 -5.897479,-10.58132 -7.348832,-8.81526 -0.02678,-6.08832 6.356162,-3.03495 1.88994,-7.53967 -0.960873,-6.31096 -4.126397,-12.88809 -5.075552,-20.01596 -1.476464,-3.43336 -0.20925,-10.78889 -5.047095,-3.01486 -1.759368,8.21931 -0.58255,-10.09586 2.15778,-4.06111 3.595741,-6.15863 -1.295672,-5.43379 -1.49153,-4.5834 2.341919,-5.19775 1.484834,-12.575049 -0.614356,-9.762738 1.2488,-5.512464 1.975314,-20.283795 -1.863156,-17.662319 2.326853,-5.766912 4.414324,-26.37881 -5.696604,-18.51773 -4.092918,0.05859 -11.187308,1.484833 -14.535297,3.152132 10.507665,5.793696 -1.059639,2.092493 -5.343392,1.170122 -0.555766,5.361806 -4.792647,3.046671 -10.089166,3.098565 8.462043,1.046246 -4.119702,8.651205 -8.964243,5.696604 -6.304264,3.008169 5.433787,10.527753 0.123876,12.854606 0.654532,3.498649 -9.652254,-1.267214 -8.847063,6.828225 -6.115103,-2.577952 -0.836997,9.598683 2.223065,5.478985 10.403878,2.819008 7.323728,9.233758 7.584871,15.333788 -1.694083,3.55055 -8.369974,-8.34988 -1.484833,-7.80081 -5.433788,-8.821954 -6.007968,-3.19064 -10.521058,0.90898 -1.046247,0.29462 11.508715,5.8322 3.629221,8.56583 6.932012,1.07303 7.134566,7.14126 8.547418,10.97973 4.164899,4.34067 3.307813,-4.79432 8.297992,0.4252 -3.158828,-4.65036 -16.714838,-13.09901 -5.800392,-10.39049 -0.05859,-4.67547 -1.975314,-8.44865 1.372675,-8.35826 3.316184,-5.99625 -3.471865,14.79142 3.995826,7.16805 2.06571,-0.90228 2.582974,-6.00295 6.297569,0.48378 5.393611,5.30992 1.948529,9.15341 -5.663125,4.28878 1.359284,4.62357 10.181237,6.27078 8.520634,13.49742 1.757694,6.35616 4.216793,4.01424 6.36118,3.64763 1.680691,6.1737 2.636542,1.6355 2.71522,-1.30739 7.695354,1.64889 5.890787,6.19881 8.303014,9.37772 5.303215,2.39214 -7.591567,-16.22435 1.511617,-5.59784 9.578598,8.65121 3.595741,12.26034 -5.001896,10.87427 5.440483,-0.43858 7.191481,7.35721 13.999618,7.08268 6.205499,2.9546 10.410574,14.29424 -0.287927,9.5719 -3.707898,-3.34799 -16.84541,-7.47439 -6.113429,-1.11153 9.900005,4.59009 17.7728,7.33042 27.32629,13.09231 6.83325,4.87802 9.78785,10.46749 12.37752,11.574 -5.74683,2.74535 -17.31413,-2.19126 -8.72319,-3.7012 -5.3618,-0.97427 -11.38986,-3.68781 -6.25739,2.98808 4.36745,3.64931 15.46436,3.26261 17.45976,3.67442 -1.68738,3.71459 -4.58339,4.00921 0.0653,4.29714 -5.18604,2.76544 1.6673,3.19733 2.14439,4.77256 l 0,0 z M 116.40244,172.9064 c -3.15883,-3.30279 -3.97574,-9.48151 -0.56247,-4.10799 1.75268,0.70643 5.60454,10.10424 0.56247,4.10799 l 0,0 z m 34.54623,21.94439 c 1.96862,-0.13057 0.0586,1.49656 0,0 l 0,0 z m -39.52804,-30.03983 c -0.12555,-4.99018 1.13664,3.85019 0,0 l 0,0 z m -3.43337,-4.61688 c -3.97573,-7.67024 5.0019,2.17117 0,0 l 0,0 z M 66.371754,131.47503 c 2.335223,-0.62273 1.151709,3.98745 0,0 l 0,0 z m 33.121662,17.94857 c 1.431264,-5.3819 1.680694,4.51309 0,0 l 0,0 z M 76.09599,133.15404 c -1.647211,-2.96799 3.446756,2.7872 0,0 l 0,0 z m 20.074546,6.43484 c -3.759792,-8.42187 2.668348,-4.60349 0.836997,1.37937 l -0.836997,-1.37937 0,0 z M 61.547301,116.49947 c -1.68069,-2.76544 -4.459522,-10.87427 -3.563934,-13.35178 0.803517,4.03432 8.572527,17.3543 3.80499,5.51916 -5.26304,-9.920097 6.297568,3.21574 7.487778,5.69493 0.555767,2.4591 -3.250897,-0.67295 -0.674619,5.10066 -4.700578,-6.57211 -2.772136,3.62922 -7.054215,-2.96297 l 0,0 z m -10.6985,-7.37562 c 0.438586,-6.42814 2.445706,4.40763 0,0 l 0,0 z m 4.812735,1.6606 c 2.295047,-4.85124 3.890364,6.76127 0,0 l 0,0 z M 44.08084,101.8269 c -3.982434,-3.964016 -6.866727,-7.611651 0.189161,-2.459095 2.713546,0.103788 -6.041447,-8.297992 0.654532,-2.668347 7.0358,1.28228 3.471865,11.542192 -0.843693,5.127442 l 0,0 z m 6.081623,-0.15735 c 2.315135,-2.295049 1.228712,2.25654 0,0 l 0,0 z m 3.7464,1.1969 c -3.512041,-6.572099 4.256969,2.75875 0,0 l 0,0 z m -7.440907,-7.107777 c -11.580696,-10.313483 14.548689,5.386917 1.88994,1.908354 l -1.88994,-1.908354 0,0 z m 33.185273,19.276047 c -5.015288,-3.00147 -1.334174,-21.152596 0.379997,-8.7416 4.871325,-1.5769 -0.269513,6.41475 3.359708,6.33607 -0.567484,5.0404 -2.196282,6.85334 -3.739705,2.40553 l 0,0 z m 12.27373,7.25844 c 0.490481,-5.47228 1.032855,3.74138 0,0 l 0,0 z m -2.130995,-2.11258 c 0.54907,-2.33355 0.05189,2.75372 0,0 l 0,0 z M 48.736219,92.370507 c -7.440907,-10.26661 21.624665,10.383793 4.767537,2.603062 -1.759368,-0.463697 -3.883668,-0.627748 -4.767537,-2.603062 l 0,0 z M 72.3747,104.90036 c -0.704752,-8.644511 1.570207,1.43126 0,0 l 0,0 z m 17.94355,11.51373 c 1.386068,-4.92321 0.105462,3.2576 0,0 l 0,0 z M 49.881232,88.453359 c 4.42102,-0.947481 18.321873,7.762314 5.557662,2.485882 -1.417873,-1.570207 -4.44613,-0.857085 -5.557662,-2.485882 l 0,0 z m 37.971224,18.924511 c 0.472066,-8.840366 2.643238,-5.27643 0.02009,1.26889 l -0.02009,-1.26889 0,0 z M 53.170631,85.374883 c 1.804567,-2.643238 -4.787625,-11.947301 0.947481,-3.336272 2.479187,1.968618 7.173068,3.296096 3.028257,4.126397 6.518536,5.748498 -1.588621,1.556815 -3.975738,-0.790125 l 0,0 z m 32.805277,19.244247 c 1.243778,-10.070756 1.099814,5.89748 0,0 l 0,0 z M 49.404143,76.075841 c 1.379372,-0.589246 0.731536,1.836373 0,0 l 0,0 z m 8.559135,5.093967 c 2.202978,-4.623574 4.061112,5.152556 0,0 l 0,0 z m 24.135658,13.423764 c -0.02009,-1.771086 0.457,2.582974 0,0 l 0,0 z m -1.39946,-3.091868 c -3.34799,-8.266187 3.118652,4.374148 0,0 l 0,0 z m -2.053992,-5.42207 c -0.560788,-3.413275 1.910029,4.290449 0,0 l 0,0 z m 3.34799,-5.440483 c -2.301743,-4.047719 2.904381,-17.85148 3.486931,-9.290671 -2.427292,6.669195 -0.69973,10.397182 0.985983,1.451354 3.127023,-7.035801 -0.672946,13.895831 -4.472914,7.839317 l 0,0 z m 3.440059,-20.52485 c 1.001049,-1.230386 0.222642,1.483159 0,0 l 0,0 z M 79.686709,173.3249 c -1.360958,-1.19021 0.17577,0.75162 0,0 l 0,0 z m 11.835143,5.98285 c 6.583822,1.69409 6.552016,-1.02113 0.600965,-1.83135 -3.19733,-2.97469 -13.299889,-6.13351 -4.256969,-0.3666 0.595942,1.51831 2.485882,1.47814 3.656004,2.19795 l 0,0 z M 68.151211,163.78313 c 3.622525,2.70852 13.659798,7.66354 5.165948,1.03452 2.864205,-3.32957 -5.480659,-5.10066 -2.713546,-7.33042 -7.042496,-4.31054 -5.559336,-3.92384 -0.621052,-3.78658 -8.462044,-3.78657 1.222016,-3.49864 0.765016,-5.44048 -3.262616,-0.64114 -16.210966,-5.75519 -8.592616,0.4185 -7.742226,-3.94393 -1.844742,1.47144 -4.184987,0.90228 -7.919669,-2.15778 7.049193,6.02973 -1.255496,3.99583 4.5382,3.59574 12.221836,9.22036 1.91505,3.80499 -1.352587,1.95522 7.377296,4.9182 9.521683,6.40136 l 0,0 z m 12.377518,7.11447 c 15.047539,4.84622 -7.382318,-5.93096 0,0 l 0,0 z m 63.364051,38.3847 c 0.19586,-2.98808 -2.05399,2.5495 0,0 l 0,0 z m 6.51351,2.74033 c 3.47187,-3.36138 0.14397,5.36181 5.75352,-0.8236 0.0586,-4.42772 -0.16907,-7.0425 -6.44655,-1.66228 -1.73426,0.96255 -2.5043,5.03538 0.69303,2.48588 l 0,0 z M 47.023722,147.09674 c -1.066334,-4.19168 -7.474386,-4.17326 0,0 l 0,0 z m 6.950427,4.55662 c -2.582974,-4.28208 -9.213668,-3.87697 0,0 l 0,0 z m 39.568215,23.86112 c 3.865254,3.43336 17.740996,2.51769 4.68886,0.4252 -1.930116,-2.85751 -12.267034,-2.17118 -4.68886,-0.4252 l 0,0 z m 54.384746,33.59205 c 5.94435,-4.99017 -5.76022,2.22307 0,0 l 0,0 z m 12.3658,8.49385 c 0.0385,-1.60201 -2.56289,0.69973 0,0 l 0,0 z m 0.0201,-2.24315 c 6.58383,-6.97051 -6.37624,0.4118 0,0 l 0,0 z M 29.917169,132.77572 c -5.609556,-8.00337 -3.485257,-11.60078 -8.898956,-18.13941 -1.027833,-5.00189 -9.285649,-16.341535 -4.270361,-4.32895 4.590094,7.02911 5.951052,17.91007 13.169317,22.46836 l 0,0 z m 128.328441,80.36514 c 12.11805,-7.8276 -4.96842,-3.40658 0,0 l 0,0 z m 9.24715,3.62253 c 6.06823,-5.20613 -3.83847,-1.08643 0,0 l 0,0 z M 44.963035,138.24801 c 1.734258,-2.58298 -4.484632,-0.33313 0,0 l 0,0 z M 165.56264,214.2909 c 5.87238,-3.7849 -1.35259,-3.20403 -1.06466,0.34651 l 1.06466,-0.34651 0,0 z M 85.865424,164.05766 c -0.202553,-2.56289 -3.10526,0.21595 0,0 l 0,0 z m 4.923219,2.8324 c -1.568533,-3.16552 -2.405531,0.49718 0,0 l 0,0 z m 84.196917,49.9587 c 7.52628,-5.42876 -4.55661,-1.04122 -1.57523,1.03286 l 1.57523,-1.03286 0,0 z m -2.88262,-1.39276 c 6.13352,-5.13415 -6.46832,2.27496 0,0 l 0,0 z m 14.72446,9.80124 c 4.11468,-2.75372 -5.0019,-0.88889 0,0 l 0,0 z M 48.736219,136.38485 c 5.512465,1.23541 22.043164,13.58112 12.293818,0.85709 -4.995201,-1.47814 -2.000424,-13.68658 -7.09439,-11.5288 3.419971,5.71501 2.810637,8.14063 -4.369126,4.54489 -9.016137,-4.40763 -5.067183,2.17787 -3.301118,3.99583 -2.407205,0.54907 3.177242,2.08579 2.470816,2.13099 l 0,0 z M 23.607883,116.53964 c 0.985983,-4.08789 -9.096488,-22.468354 -4.760841,-9.21366 1.561837,2.77883 1.399459,8.04187 4.760841,9.21366 l 0,0 z m 46.125253,28.43783 c -2.844117,-2.37373 -0.137268,-0.33982 0,0 l 0,0 z m 6.990602,1.62879 c 0,-4.32895 -7.728834,-1.75936 0,0 l 0,0 z m 60.617022,38.20726 c -1.15673,-2.95627 -4.57,-0.0653 0,0 l 0,0 z m 2.90941,2.1243 c -0.43189,-1.65391 -1.68069,0.32141 0,0 l 0,0 z m 24.02517,15.13794 c 2.30844,-1.7058 -2.88429,-0.22097 0,0 l 0,0 z M 36.156148,119.74367 c 6.610606,-2.55786 -7.082672,-1.82465 0,0 l 0,0 z m 95.847922,60.38099 c -0.077,-4.27705 -4.21679,1.06634 0,0 l 0,0 z M 33.54639,113.65535 c 4.243577,-1.43126 -3.93054,-0.94078 0,0 l 0,0 z m 12.318928,5.96947 c -0.07198,-1.40448 -1.300694,0.53735 0,0 l 0,0 z M 196.16662,211.7933 c 5.45889,-1.10484 17.90337,2.77883 19.91049,-1.44466 -6.63069,-0.16405 -22.93205,-4.68216 -23.70377,1.07136 l 1.45136,0.22933 2.34192,0.14397 0,0 z M 49.782466,120.61247 c 0.09877,-4.33564 -3.379796,-0.16237 0,0 l 0,0 z M 17.388992,98.139093 c -1.471441,-8.25949 -5.597838,-1.250474 0,0 l 0,0 z m 7.722138,1.941837 c 0.09877,-2.654959 -7.06928,-2.38712 0,0 l 0,0 z m 4.414325,2.17117 c -1.275584,-1.03453 -0.994353,1.30069 0,0 l 0,0 z m 27.783292,17.818 c 1.309063,-1.2036 -3.098565,-0.88889 0,0 l 0,0 z M 26.589268,97.360686 c -0.751624,-6.238979 -8.952524,-0.935764 0,0 l 0,0 z M 10.744907,87.080683 c -0.222641,-2.877597 -1.5434233,1.084749 0,0 l 0,0 z m 2.360333,-1.777782 c -0.385019,-3.41495 -2.027208,0.430217 0,0 l 0,0 z m 13.013635,7.767336 C 31.624644,90.912458 16.09332,88.597323 24.993951,92.66513 l 1.124924,0.405107 0,0 z M 200.34491,200.68969 c 3.52376,-3.22914 -4.47292,-0.99938 0,0 l 0,0 z m 21.04881,10.90775 c 1.41285,-4.1716 -3.55724,0.54907 0,0 l 0,0 z M 27.451375,86.250382 c 0.58255,-4.041024 -4.367452,0.803517 0,0 l 0,0 z M 8.9269485,73.839384 C 7.9325956,68.137758 8.0698632,58.125595 17.58485,61.507065 c -12.698925,2.524384 8.795168,15.790793 6.081623,5.314933 5.341717,0.262817 10.449075,-3.157154 7.64346,2.027208 10.527753,-1.156731 17.819675,-10.285024 27.987519,-9.002744 7.917996,-1.052943 16.575897,-1.844743 25.109923,-5.035377 7.015712,-0.503872 13.770281,-8.056937 9.926789,-12.536547 -9.56688,-0.810213 -19.58574,0.386693 -30.158691,2.492578 -11.717963,2.432315 -22.362896,7.060911 -34.186322,9.049616 -11.528802,1.55012 2.315135,4.263665 -0.987657,4.871325 -6.009641,2.085798 7.173068,3.491954 -0.778407,5.694931 C 23.31326,63.448899 18.199206,61.761512 20.298395,56.582172 9.2600735,58.021808 -0.44407445,62.598509 8.2791125,73.832689 l 0.647836,0.0067 0,0 z M 35.535096,60.29007 c 2.582974,-9.5334 13.862351,7.847688 4.236881,1.268889 -1.145013,-0.863782 -3.041649,-1.563512 -4.236881,-1.268889 l 0,0 z m 0.502199,-4.623573 c 3.734682,-2.778832 1.982009,1.563511 0,0 l 0,0 z m 4.740753,0.07868 c 0.341495,-4.38754 10.862552,2.321831 1.734258,1.576904 l -1.734258,-1.576904 0,0 z m 6.48673,-2.608083 c 2.373724,-2.77381 0.688012,2.457424 0,0 l 0,0 z m 1.662276,-1.111533 c 3.948954,-4.740753 22.342809,-3.028257 8.878869,-0.465371 -3.609133,-2.720241 -6.374572,1.602013 -8.878869,0.465371 l 0,0 z m 24.010108,-3.701202 c -0.594268,-12.955046 11.933909,4.596789 0,0 l 0,0 z m 6.814833,-0.04018 c 2.490904,-6.525232 9.670668,-2.621476 1.15673,-1.314086 0.182466,0.699729 -0.254447,3.374773 -1.15673,1.314086 l 0,0 z M 24.764613,82.902392 c 7.440907,-4.558288 -7.899581,-3.955649 0,0 l 0,0 z m 5.505769,1.523336 c 2.609758,-2.772136 -5.676516,-1.124925 0,0 l 0,0 z M 14.054395,72.923709 c 4.250272,-3.269312 -5.0353768,-1.242104 0,0 l 0,0 z M 233.81811,210.40723 c 0.12387,-3.79327 -3.2509,1.7058 0,0 l 0,0 z m -22.33109,-15.2434 c 0.63444,-4.36075 -2.8709,0.38 0,0 l 0,0 z m 28.4713,16.71484 c 5.94436,0.0201 18.01386,-1.85144 5.08057,-1.84474 -2.0339,0.31471 -11.82844,0.24942 -5.08057,1.84474 l 0,0 z M 35.109901,81.750684 c 4.812735,-0.326429 7.526281,-5.303216 -0.935763,-5.021984 -13.110727,-1.352588 11.567304,4.493002 -1.68069,2.819007 -1.777783,1.176818 2.510992,2.53108 2.616453,2.202977 l 0,0 z m 4.236881,2.146061 c -0.503872,-3.086846 -1.491529,1.640515 0,0 l 0,0 z m 5.028681,-13.40535 c 2.085797,-2.58967 -2.890989,-0.693034 0,0 l 0,0 z M 28.36705,43.739284 c 8.592616,-2.916099 20.337363,-6.198803 24.391779,1.439635 -4.126398,-4.963394 -1.667299,-9.854807 2.229761,-2.58967 5.512465,7.343815 8.271208,-3.341293 4.687185,-5.807088 4.087896,5.073879 8.729883,7.474387 2.733634,0.321407 6.52021,-7.840991 -13.045442,1.026159 -17.491572,0.934089 -2.137691,0.960873 -22.088362,5.087271 -16.550787,5.701627 l 0,0 z m 5.035377,-9.637188 c 4.898109,-3.694507 16.942501,2.202977 9.213667,-3.676093 -0.75832,-0.66625 -16.922414,4.459522 -9.213667,3.676093 l 0,0 z m 17.858176,0.738231 c 5.72841,0.143964 -2.470816,-7.703724 4.355735,-4.146485 -1.118229,-3.661026 -7.951476,-4.347364 -11.292769,-5.81211 -1.88994,3.34799 3.843492,10.003793 6.937034,9.958595 l 0,0 z M 36.534471,18.629362 c 1.98201,-2.686762 -3.478561,1.367653 0,0 l 0,0 z m 7.298617,1.745976 c 9.238778,-1.222016 -2.35531,-3.975738 -1.86483,-0.09709 l 1.86483,0.09709 0,0 z M 30.205097,9.7170132 C 23.698279,1.2231635 42.440325,11.143257 35.828045,2.2493223 30.263686,-2.17672 24.921969,7.2395009 30.205097,9.7170132 l 0,0 z M 113.6755,54.673818 c 2.98306,-5.284802 -12.31223,-7.12787 -2.00712,-1.871526 0.94748,0.314711 0.73321,2.236457 2.00712,1.871526 l 0,0 z"
         inkscape:connector-curvature="0" />
      <g
         id="g4257"
         transform="translate(0,244)">
        <path
           id="path4259"
           d="m 53.107617,7.4945842 c -0.659174,2.6066398 -1.068567,6.9793688 -1.22196,13.1171498 0,1.206413 -0.543093,1.809619 -1.631352,1.809619 -1.089296,0 -1.846931,-0.52651 -2.276016,-1.575384 -1.165992,-2.837765 -2.270834,-4.817361 -3.323855,-5.947077 -1.242688,-1.319385 -2.894769,-2.117441 -4.955206,-2.388988 -2.214866,-0.351352 -7.732858,-0.525474 -16.555012,-0.525474 -2.020016,0 -3.343547,0.214543 -3.963336,0.643628 -0.388664,0.27051 -0.582478,0.854024 -0.582478,1.74847 l 0,26.409457 c 0,0.894445 0.562785,1.319385 1.68732,1.283109 3.4617,-0.04042 8.473911,-0.275692 15.040777,-0.700631 1.28311,-0.157539 2.149571,-0.574186 2.595239,-1.255126 0.449814,-0.679903 0.88719,-2.436664 1.31213,-5.275465 0.27051,-1.554656 1.185684,-2.157863 2.74034,-1.805474 1.320421,0.271547 1.887352,0.874753 1.692502,1.805474 -1.089296,5.287902 -1.441684,12.166737 -1.053021,20.639611 0.04146,1.008453 -0.59906,1.554656 -1.92259,1.632389 -1.089296,0.117117 -1.769199,-0.466397 -2.040745,-1.749506 -1.007418,-4.857782 -2.886478,-7.453021 -5.623709,-7.785717 -2.74034,-0.327514 -7.202202,-0.493344 -13.380405,-0.493344 -0.699595,0 -1.047838,0.250818 -1.047838,0.756599 l 0,26.235336 c 0,1.94332 0.716178,3.26685 2.153717,3.963336 1.129716,0.583514 3.558089,1.108988 7.28719,1.575385 1.907044,0.193813 2.74034,1.032291 2.510251,2.506105 -0.235271,1.283109 -1.94332,1.788891 -5.133474,1.517344 C 16.205268,82.895394 8.6061106,82.935815 2.6227584,83.753564 0.94994865,83.983653 0.11665311,83.30375 0.11665311,81.712819 c 0,-1.012599 0.83329554,-1.595077 2.50610529,-1.749506 3.8089068,-0.429085 5.7118056,-3.772632 5.7118056,-10.02753 l 0,-49.907563 c 0,-2.562073 -0.4570688,-4.534413 -1.3680971,-5.914947 C 6.0512928,12.732738 4.3504993,11.477613 1.8651227,10.352042 0.31046687,9.6524466 -0.27201086,8.7009972 0.11665311,7.4945842 0.31046687,6.7576774 0.62243448,6.3482846 1.0473737,6.2715883 c 0.388664,-0.1171174 1.4209555,-0.040421 3.088583,0.2342348 2.4501377,0.388664 8.2230933,0.5835142 17.3157573,0.5835142 10.729198,0 19.995984,-0.2352713 27.81072,-0.7006316 2.602494,-0.1575385 3.906332,0.057004 3.906332,0.6394818 0,0.1585749 -0.01969,0.3119676 -0.06115,0.4663967 l 0,0 z"
           inkscape:connector-curvature="0" />
        <path
           id="path4261"
           d="m 90.915239,81.502316 c 0,1.554656 -0.874753,2.234558 -2.623223,2.039708 -5.360453,-0.505781 -12.008162,-0.429085 -19.93587,0.231126 -1.595077,0.157538 -2.57451,0.117117 -2.946591,-0.112972 -0.368972,-0.235271 -0.551385,-0.874753 -0.551385,-1.927773 0,-0.930721 1.057166,-1.71634 3.174607,-2.359968 2.121587,-0.639481 3.177717,-2.554818 3.177717,-5.740826 l 0,-52.760874 c 0,-3.149733 -0.457069,-5.462024 -1.368097,-6.939984 -0.915174,-1.476923 -2.518543,-2.623223 -4.810106,-3.436826 -1.206412,-0.429085 -1.809619,-1.0322914 -1.809619,-1.8096193 0,-1.1659919 0.874753,-2.040745 2.623223,-2.6232227 C 68.489846,5.2060243 71.231223,3.8866397 74.068988,2.0967126 76.400972,0.69648583 77.878931,0 78.497684,0 c 1.437539,0 2.158899,0.9877247 2.158899,2.9714656 0,-0.1533927 -0.07773,1.7899271 -0.235271,5.8299595 C 80.30834,12.647644 80.267919,16.436858 80.30834,20.170105 l 0.230089,52.060243 c 0,2.372405 0.583514,4.093927 1.749506,5.162494 1.165992,1.068567 3.169425,1.77749 6.004081,2.125733 1.74847,0.193814 2.623223,0.854024 2.623223,1.983741 l 0,0 z"
           inkscape:connector-curvature="0" />
        <path
           id="path4263"
           d="m 143.64398,78.064453 c 0,0.817749 -1.48625,2.049037 -4.45771,3.700081 -2.97561,1.652081 -5.35631,2.478122 -7.14209,2.478122 -1.51838,0 -2.85746,-0.736907 -4.02345,-2.214867 -1.16599,-1.476923 -1.98478,-2.21383 -2.45014,-2.21383 -0.34824,0 -2.19414,0.797021 -5.53872,2.387952 -3.3394,1.595077 -6.70368,2.393133 -10.08453,2.393133 -3.18601,0 -5.85069,-0.934866 -7.98783,-2.797344 -2.33198,-2.061473 -3.497971,-4.858817 -3.497971,-8.397214 0,-6.724405 7.696581,-11.542802 23.088711,-14.457263 2.63981,-0.505782 3.98407,-1.575385 4.02034,-3.206737 l 0.11815,-3.732211 c 0.23424,-6.373052 -2.58383,-9.55906 -8.45421,-9.55906 -1.67178,0 -3.25442,1.493506 -4.7531,4.4857 -1.49351,2.99634 -3.64308,4.606963 -6.44146,4.842235 -3.18601,0.307822 -4.78109,-1.032292 -4.78109,-4.024486 0,-1.866623 2.37241,-4.040032 7.11307,-6.530591 4.97594,-2.602494 9.75806,-3.906332 14.34429,-3.906332 7.88729,0 11.79362,3.752939 11.71693,11.254672 l -0.23528,24.016324 c -0.0363,2.526834 1.03333,3.789214 3.20674,3.789214 0.42909,0 1.24684,-0.09639 2.4491,-0.291238 1.20745,-0.193814 1.90705,-0.291239 2.1019,-0.291239 1.12557,0 1.68835,0.760745 1.68835,2.274979 l 0,0 z M 125.68874,64.773182 c 0.0404,-0.972178 -0.18655,-1.615806 -0.67264,-1.923627 -0.48609,-0.310932 -1.25098,-0.372081 -2.29986,-0.177231 -9.36835,1.671773 -14.05201,4.724081 -14.05201,9.153814 0,4.469117 2.42837,6.703676 7.28719,6.703676 1.94332,0 3.94779,-0.367936 6.00408,-1.104842 2.41282,-0.85817 3.61509,-1.886316 3.61509,-3.092729 l 0.11815,-9.559061 z"
           inkscape:connector-curvature="0" />
        <path
           id="path4265"
           d="m 186.98779,71.356632 c 0,4.120874 -1.58782,7.397052 -4.7531,9.825425 -3.16632,2.429409 -7.49033,3.644113 -12.97205,3.644113 -3.65137,0 -7.30792,-0.388664 -10.95929,-1.165992 -3.14973,-0.700631 -4.97593,-1.340113 -5.48171,-1.923627 -0.31197,-0.546203 -0.46537,-3.205701 -0.46537,-7.987822 0,-2.060437 0.46537,-3.129004 1.40023,-3.205701 0.93176,-0.118153 1.72878,0.388664 2.38899,1.514235 2.91446,5.093053 7.61885,7.639579 14.10902,7.639579 5.47757,0 8.21895,-1.907044 8.21895,-5.716988 0,-1.667627 -0.61979,-3.06889 -1.86663,-4.194461 -1.36084,-1.28311 -3.99961,-2.780761 -7.92667,-4.489846 -5.67657,-2.525798 -9.46578,-4.740664 -11.36868,-6.647709 -2.06147,-2.020016 -3.08962,-4.740664 -3.08962,-8.161943 0,-4.198608 1.61166,-7.461312 4.83809,-9.793296 2.9922,-2.255287 6.99595,-3.380858 12.00816,-3.380858 3.14974,0 6.02481,0.250818 8.63145,0.757635 2.79838,0.505782 4.25561,1.125571 4.37273,1.865588 0.30782,2.174445 0.95145,5.324178 1.92363,9.446089 0.11712,0.501635 -0.43012,0.911028 -1.63239,1.221959 -1.28311,0.271547 -2.13713,0.057 -2.56622,-0.639482 -3.06889,-5.016356 -6.95553,-7.522461 -11.65992,-7.522461 -5.32417,0 -7.98782,1.709085 -7.98782,5.130364 0,1.906008 0.72033,3.420243 2.15786,4.545814 1.28311,0.972178 4.295,2.490559 9.0367,4.550996 4.9749,2.137134 8.35576,4.060761 10.14568,5.76881 2.33199,2.214866 3.49798,5.190477 3.49798,8.919579 l 0,0 z"
           inkscape:connector-curvature="0" />
        <path
           id="path4267"
           d="m 255.57506,81.55932 c 0,1.359806 -0.91517,2.081166 -2.74138,2.157862 -2.72064,0.04042 -6.27977,0.234235 -10.66804,0.582478 -2.17756,0.429085 -3.73222,0.158575 -4.66397,-0.813603 -6.14193,-6.607288 -11.3521,-13.526543 -15.6274,-20.756729 -0.34825,-0.61979 -0.79391,-0.931757 -1.34012,-0.931757 -0.66021,0 -1.80547,0.583514 -3.43682,1.749506 -1.83035,1.008453 -2.74138,2.449101 -2.74138,4.311579 0,1.32353 0.0363,3.226429 0.11712,5.716988 0.0777,2.485376 0.69648,4.116729 1.86248,4.894056 0.81775,0.547239 2.7051,0.972179 5.65583,1.284146 1.82621,0.234235 2.74138,0.914138 2.74138,2.039709 0,0.895481 -0.14614,1.449975 -0.43738,1.660372 -0.29123,0.214543 -1.06131,0.263255 -2.304,0.146138 -3.88664,-0.348243 -10.4535,-0.154429 -19.7037,0.582477 -2.33199,0.194851 -3.59541,-0.09743 -3.79026,-0.874753 -0.0767,-0.27051 -0.11711,-0.659174 -0.11711,-1.165991 0,-1.202268 1.18672,-2.117442 3.55912,-2.736195 2.13714,-0.547239 3.2057,-3.053344 3.2057,-7.522461 l 0,-50.955401 c 0,-3.186008 -0.31093,-5.400875 -0.93486,-6.643563 -0.85403,-1.595077 -2.64395,-2.838801 -5.3646,-3.733247 -1.27897,-0.424939 -1.92259,-1.0281456 -1.92259,-1.8054735 0,-1.1297166 0.91517,-2.0044697 2.74034,-2.6232227 2.91549,-0.9721781 5.69211,-2.3122915 8.33606,-4.0244858 C 210.13765,0.70063158 211.46118,0 211.96282,0 c 1.59611,0 2.39313,1.0084534 2.39313,3.0326154 0,-0.2746559 -0.0197,1.652081 -0.0611,5.7698461 -0.0363,2.8377655 -0.056,6.6477085 -0.056,11.4287935 l 0.11712,36.493992 c 0,1.011563 0.27155,1.514235 0.8136,1.514235 0.58352,0 1.47796,-0.502672 2.68438,-1.514235 3.22643,-2.526834 7.1908,-5.82996 11.89104,-9.911449 0.93487,-0.971142 1.40023,-1.74847 1.40023,-2.331984 0,-1.047838 -1.57435,-1.788891 -4.71994,-2.21383 -1.36084,-0.158575 -2.00447,-0.915174 -1.92777,-2.276016 0.11712,-1.359806 0.79806,-1.94332 2.04074,-1.74847 2.80149,0.388664 6.88298,0.603207 12.2424,0.643628 3.73325,0.03627 7.44577,0.057 11.13859,0.057 1.20227,0.04042 1.80548,0.756599 1.80548,2.157862 0,1.319384 -0.95145,2.039708 -2.85435,2.157862 -2.99634,0.112972 -5.81442,0.792875 -8.45318,2.039709 -3.69283,1.668664 -7.64062,4.603854 -11.83819,8.802461 -0.30782,0.234235 -0.4664,0.525474 -0.4664,0.873717 0,0.543093 0.66021,1.846931 1.98478,3.907368 4.85778,7.384616 9.44505,12.959612 13.75663,16.732243 2.76107,2.369296 5.34387,3.55498 7.75255,3.55498 1.78993,0 2.89892,0.125409 3.32386,0.380372 0.43012,0.251855 0.64466,0.923466 0.64466,2.008616 l 0,0 z"
           inkscape:connector-curvature="0" />
      </g>
    </g>
  </g>
  <g
     inkscape:groupmode="layer"
     id="layer2"
     inkscape:label="BADGE"
     style="display:none"
     sodipodi:insensitive="true">
    <g
       style="display:inline"
       transform="translate(-340.00001,-581)"
       id="g4394"
       clip-path="none">
      <g
         id="g855">
        <g
           inkscape:groupmode="maskhelper"
           id="g870"
           clip-path="url(#clipPath873)"
           style="opacity:0.6;filter:url(#filter891)">
          <path
             transform="matrix(1.4999992,0,0,1.4999992,-29.999795,-237.54282)"
             d="m 264,552.36218 a 12,12 0 0 1 -12,12 12,12 0 0 1 -12,-12 12,12 0 0 1 12,-12 12,12 0 0 1 12,12 z"
             sodipodi:ry="12"
             sodipodi:rx="12"
             sodipodi:cy="552.36218"
             sodipodi:cx="252"
             id="path844"
             style="color:#000000;fill:#000000;fill-opacity:1;fill-rule:nonzero;stroke:none;stroke-width:4;marker:none;visibility:visible;display:inline;overflow:visible;enable-background:accumulate"
             sodipodi:type="arc" />
        </g>
        <g
           id="g862">
          <path
             sodipodi:type="arc"
             style="color:#000000;fill:#f5f5f5;fill-opacity:1;fill-rule:nonzero;stroke:none;stroke-width:4;marker:none;visibility:visible;display:inline;overflow:visible;enable-background:accumulate"
             id="path4398"
             sodipodi:cx="252"
             sodipodi:cy="552.36218"
             sodipodi:rx="12"
             sodipodi:ry="12"
             d="m 264,552.36218 a 12,12 0 0 1 -12,12 12,12 0 0 1 -12,-12 12,12 0 0 1 12,-12 12,12 0 0 1 12,12 z"
             transform="matrix(1.4999992,0,0,1.4999992,-29.999795,-238.54282)" />
          <path
             transform="matrix(1.25,0,0,1.25,33,-100.45273)"
             d="m 264,552.36218 a 12,12 0 0 1 -12,12 12,12 0 0 1 -12,-12 12,12 0 0 1 12,-12 12,12 0 0 1 12,12 z"
             sodipodi:ry="12"
             sodipodi:rx="12"
             sodipodi:cy="552.36218"
             sodipodi:cx="252"
             id="path4400"
             style="color:#000000;fill:#dd4814;fill-opacity:1;fill-rule:nonzero;stroke:none;stroke-width:4;marker:none;visibility:visible;display:inline;overflow:visible;enable-background:accumulate"
             sodipodi:type="arc" />
          <path
             sodipodi:type="star"
             style="color:#000000;fill:#f5f5f5;fill-opacity:1;fill-rule:nonzero;stroke:none;stroke-width:3;marker:none;visibility:visible;display:inline;overflow:visible;enable-background:accumulate"
             id="path4459"
             sodipodi:sides="5"
             sodipodi:cx="666.19574"
             sodipodi:cy="589.50385"
             sodipodi:r1="7.2431178"
             sodipodi:r2="4.3458705"
             sodipodi:arg1="1.0471976"
             sodipodi:arg2="1.6755161"
             inkscape:flatsided="false"
             inkscape:rounded="0.1"
             inkscape:randomized="0"
             d="m 669.8173,595.77657 c -0.39132,0.22593 -3.62645,-1.90343 -4.07583,-1.95066 -0.44938,-0.0472 -4.05653,1.36297 -4.39232,1.06062 -0.3358,-0.30235 0.68963,-4.03715 0.59569,-4.47913 -0.0939,-0.44198 -2.5498,-3.43681 -2.36602,-3.8496 0.18379,-0.41279 4.05267,-0.59166 4.44398,-0.81759 0.39132,-0.22593 2.48067,-3.48704 2.93005,-3.4398 0.44938,0.0472 1.81505,3.67147 2.15084,3.97382 0.3358,0.30236 4.08294,1.2817 4.17689,1.72369 0.0939,0.44198 -2.9309,2.86076 -3.11469,3.27355 -0.18379,0.41279 0.0427,4.27917 -0.34859,4.5051 z"
             transform="matrix(1.511423,-0.16366377,0.16366377,1.511423,-755.37346,-191.93651)" />
        </g>
      </g>
    </g>
  </g>
</svg>
