<?xml version="1.0" encoding="UTF-8" standalone="no"?>
<!-- Created with Inkscape (http://www.inkscape.org/) -->

<svg
   xmlns:figma="http://www.figma.com/figma/ns"
   xmlns:dc="http://purl.org/dc/elements/1.1/"
   xmlns:cc="http://creativecommons.org/ns#"
   xmlns:rdf="http://www.w3.org/1999/02/22-rdf-syntax-ns#"
   xmlns:svg="http://www.w3.org/2000/svg"
   xmlns="http://www.w3.org/2000/svg"
   xmlns:xlink="http://www.w3.org/1999/xlink"
   xmlns:sodipodi="http://sodipodi.sourceforge.net/DTD/sodipodi-0.dtd"
   xmlns:inkscape="http://www.inkscape.org/namespaces/inkscape"
   width="96"
   height="96"
   id="svg6517"
   version="1.1"
   inkscape:version="0.91 r13725"
   sodipodi:docname="icon.svg">
  <defs
     id="defs6519">
    <linearGradient
       id="Background">
      <stop
         id="stop4178"
         offset="0"
         style="stop-color:#b8b8b8;stop-opacity:1" />
      <stop
         id="stop4180"
         offset="1"
         style="stop-color:#c9c9c9;stop-opacity:1" />
    </linearGradient>
    <filter
       style="color-interpolation-filters:sRGB;"
       inkscape:label="Inner Shadow"
       id="filter1121">
      <feFlood
         flood-opacity="0.59999999999999998"
         flood-color="rgb(0,0,0)"
         result="flood"
         id="feFlood1123" />
      <feComposite
         in="flood"
         in2="SourceGraphic"
         operator="out"
         result="composite1"
         id="feComposite1125" />
      <feGaussianBlur
         in="composite1"
         stdDeviation="1"
         result="blur"
         id="feGaussianBlur1127" />
      <feOffset
         dx="0"
         dy="2"
         result="offset"
         id="feOffset1129" />
      <feComposite
         in="offset"
         in2="SourceGraphic"
         operator="atop"
         result="composite2"
         id="feComposite1131" />
    </filter>
    <filter
       style="color-interpolation-filters:sRGB;"
       inkscape:label="Drop Shadow"
       id="filter950">
      <feFlood
         flood-opacity="0.25"
         flood-color="rgb(0,0,0)"
         result="flood"
         id="feFlood952" />
      <feComposite
         in="flood"
         in2="SourceGraphic"
         operator="in"
         result="composite1"
         id="feComposite954" />
      <feGaussianBlur
         in="composite1"
         stdDeviation="1"
         result="blur"
         id="feGaussianBlur956" />
      <feOffset
         dx="0"
         dy="1"
         result="offset"
         id="feOffset958" />
      <feComposite
         in="SourceGraphic"
         in2="offset"
         operator="over"
         result="composite2"
         id="feComposite960" />
    </filter>
    <clipPath
       clipPathUnits="userSpaceOnUse"
       id="clipPath873">
      <g
         transform="matrix(0,-0.66666667,0.66604479,0,-258.25992,677.00001)"
         id="g875"
         inkscape:label="Layer 1"
         style="fill:#ff00ff;fill-opacity:1;stroke:none;display:inline">
        <path
           style="fill:#ff00ff;fill-opacity:1;stroke:none;display:inline"
           d="m 46.702703,898.22775 50.594594,0 C 138.16216,898.22775 144,904.06497 144,944.92583 l 0,50.73846 c 0,40.86071 -5.83784,46.69791 -46.702703,46.69791 l -50.594594,0 C 5.8378378,1042.3622 0,1036.525 0,995.66429 L 0,944.92583 C 0,904.06497 5.8378378,898.22775 46.702703,898.22775 Z"
           id="path877"
           inkscape:connector-curvature="0"
           sodipodi:nodetypes="sssssssss" />
      </g>
    </clipPath>
    <filter
       inkscape:collect="always"
       id="filter891"
       inkscape:label="Badge Shadow">
      <feGaussianBlur
         inkscape:collect="always"
         stdDeviation="0.71999962"
         id="feGaussianBlur893" />
    </filter>
    <filter
       inkscape:collect="always"
       style="color-interpolation-filters:sRGB"
       id="filter4306"
       x="-0.06"
       width="1.12"
       y="-0.06"
       height="1.12">
      <feGaussianBlur
         inkscape:collect="always"
         stdDeviation="2.4"
         id="feGaussianBlur4308" />
    </filter>
    <path
       d="M 1.74498 5.47533C 1.74498 7.03335 1.62034 7.54082 1.29983 7.91474C 0.943119 8.23595 0.480024 8.41358 0 8.41331L 0.124642 9.3036C 0.86884 9.31366 1.59095 9.05078 2.15452 8.56466C 2.45775 8.19487 2.6834 7.76781 2.818 7.30893C 2.95261 6.85005 2.99341 6.36876 2.93798 5.89377L 2.93798 0L 1.74498 0L 1.74498 5.43972L 1.74498 5.47533Z"
       id="path0_fill" />
    <path
       d="M 5.50204 4.76309C 5.50204 5.43081 5.50204 6.02731 5.55545 6.54368L 4.496 6.54368L 4.42478 5.48423C 4.20318 5.85909 3.88627 6.16858 3.50628 6.38125C 3.12628 6.59392 2.69675 6.70219 2.26135 6.69503C 1.22861 6.69503 0 6.13415 0 3.84608L 0 0.0445149L 1.193 0.0445149L 1.193 3.6057C 1.193 4.84322 1.57583 5.67119 2.65309 5.67119C 2.87472 5.67358 3.09459 5.63168 3.29982 5.54796C 3.50505 5.46424 3.69149 5.34039 3.84822 5.18366C 4.00494 5.02694 4.1288 4.84049 4.21252 4.63527C 4.29623 4.43004 4.33813 4.21016 4.33575 3.98853L 4.33575 0L 5.52874 0L 5.52874 4.72748L 5.50204 4.76309Z"
       id="path1_fill" />
    <path
       d="M 0.0534178 2.27264C 0.0534178 1.44466 0.0534178 0.768036 0 0.153731L 1.06836 0.153731L 1.12177 1.2666C 1.3598 0.864535 1.70247 0.534594 2.11325 0.311954C 2.52404 0.0893145 2.98754 -0.0176786 3.45435 0.00238095C 5.03908 0.00238095 6.23208 1.32892 6.23208 3.30538C 6.23208 5.63796 4.7987 6.79535 3.24958 6.79535C 2.85309 6.81304 2.45874 6.7281 2.10469 6.54874C 1.75064 6.36937 1.44888 6.10166 1.22861 5.77151L 1.22861 5.77151L 1.22861 9.33269L 0.0534178 9.33269L 0.0534178 2.29935L 0.0534178 2.27264ZM 1.22861 4.00872C 1.23184 4.17026 1.24972 4.33117 1.28203 4.48948C 1.38304 4.88479 1.61299 5.23513 1.93548 5.48506C 2.25798 5.735 2.65461 5.87026 3.06262 5.86944C 4.31794 5.86944 5.05689 4.8456 5.05689 3.3588C 5.05689 2.05897 4.36246 0.946096 3.10714 0.946096C 2.61036 0.986777 2.14548 1.20726 1.79965 1.5662C 1.45382 1.92514 1.25079 2.3979 1.22861 2.89585L 1.22861 4.00872Z"
       id="path2_fill" />
    <path
       d="M 1.31764 0.0178059L 2.75102 3.85499C 2.90237 4.28233 3.06262 4.7987 3.16946 5.18153C 3.2941 4.7898 3.42764 4.29123 3.5879 3.82828L 4.88773 0.0178059L 6.14305 0.0178059L 4.36246 4.64735C 3.47216 6.87309 2.92908 8.02158 2.11 8.71601C 1.69745 9.09283 1.19448 9.35658 0.649917 9.48166L 0.356119 8.48453C 0.736886 8.35942 1.09038 8.16304 1.39777 7.90584C 1.8321 7.55188 2.17678 7.10044 2.4038 6.5882C 2.45239 6.49949 2.48551 6.40314 2.50173 6.3033C 2.49161 6.19586 2.46457 6.0907 2.42161 5.9917L 0 0L 1.29983 0L 1.31764 0.0178059Z"
       id="path3_fill" />
    <path
       d="M 2.19013 0L 2.19013 1.86962L 3.8995 1.86962L 3.8995 2.75992L 2.19013 2.75992L 2.19013 6.26769C 2.19013 7.06896 2.42161 7.53191 3.08043 7.53191C 3.31442 7.53574 3.54789 7.5088 3.77486 7.45179L 3.82828 8.34208C 3.48794 8.45999 3.12881 8.51431 2.76882 8.50234C 2.53042 8.51726 2.29161 8.48043 2.06878 8.39437C 1.84595 8.30831 1.64438 8.17506 1.47789 8.00377C 1.11525 7.51873 0.949826 6.91431 1.01494 6.31221L 1.01494 2.75102L 0 2.75102L 0 1.86072L 1.03274 1.86072L 1.03274 0.275992L 2.19013 0Z"
       id="path4_fill" />
    <path
       d="M 1.17716 3.57899C 1.153 3.88093 1.19468 4.18451 1.29933 4.46876C 1.40398 4.75301 1.5691 5.01114 1.78329 5.22532C 1.99747 5.43951 2.2556 5.60463 2.53985 5.70928C 2.8241 5.81393 3.12768 5.85561 3.42962 5.83145C 4.04033 5.84511 4.64706 5.72983 5.21021 5.49313L 5.41498 6.38343C 4.72393 6.66809 3.98085 6.80458 3.23375 6.78406C 2.79821 6.81388 2.36138 6.74914 1.95322 6.59427C 1.54505 6.43941 1.17522 6.19809 0.869071 5.88688C 0.562928 5.57566 0.327723 5.2019 0.179591 4.79125C 0.0314584 4.38059 -0.0260962 3.94276 0.0108748 3.50777C 0.0108748 1.54912 1.17716 0 3.0824 0C 5.21911 0 5.75329 1.86962 5.75329 3.06262C 5.76471 3.24644 5.76471 3.43079 5.75329 3.61461L 1.15046 3.61461L 1.17716 3.57899ZM 4.66713 2.6887C 4.70149 2.45067 4.68443 2.20805 4.61709 1.97718C 4.54976 1.74631 4.43372 1.53255 4.2768 1.35031C 4.11987 1.16808 3.92571 1.0216 3.70739 0.920744C 3.48907 0.81989 3.25166 0.767006 3.01118 0.765656C 2.52201 0.801064 2.06371 1.01788 1.72609 1.37362C 1.38847 1.72935 1.19588 2.19835 1.18607 2.6887L 4.66713 2.6887Z"
       id="path5_fill" />
    <path
       d="M 0.0534178 2.19228C 0.0534178 1.42663 0.0534178 0.767806 0 0.162404L 1.06836 0.162404L 1.06836 1.43553L 1.12177 1.43553C 1.23391 1.04259 1.4656 0.694314 1.78468 0.439049C 2.10376 0.183783 2.4944 0.034196 2.90237 0.0110538C 3.01466 -0.00368459 3.12839 -0.00368459 3.24068 0.0110538L 3.24068 1.12393C 3.10462 1.10817 2.9672 1.10817 2.83114 1.12393C 2.427 1.13958 2.04237 1.30182 1.7491 1.58035C 1.45583 1.85887 1.27398 2.23462 1.23751 2.63743C 1.20422 2.8196 1.18635 3.00425 1.1841 3.18941L 1.1841 6.65267L 0.00890297 6.65267L 0.00890297 2.20118L 0.0534178 2.19228Z"
       id="path6_fill" />
    <path
       d="M 6.03059 2.83565C 6.06715 3.43376 5.92485 4.02921 5.6218 4.54615C 5.31875 5.0631 4.86869 5.47813 4.32893 5.73839C 3.78917 5.99864 3.18416 6.09233 2.59097 6.00753C 1.99778 5.92272 1.44326 5.66326 0.998048 5.26219C 0.552837 4.86113 0.23709 4.33661 0.0910307 3.75546C -0.0550287 3.17431 -0.0247891 2.56283 0.177897 1.99893C 0.380583 1.43503 0.746541 0.944221 1.22915 0.589037C 1.71176 0.233853 2.28918 0.0303686 2.88784 0.00450543C 3.28035 -0.0170932 3.67326 0.0391144 4.04396 0.169896C 4.41467 0.300677 4.75587 0.503453 5.04794 0.766561C 5.34 1.02967 5.57718 1.34792 5.74582 1.70301C 5.91446 2.0581 6.01124 2.44303 6.03059 2.83565L 6.03059 2.83565Z"
       id="path7_fill" />
    <path
       d="M 18.6962 7.12238C 10.6836 7.12238 3.64131 4.24672 0 0C 1.41284 3.82041 3.96215 7.1163 7.30479 9.44404C 10.6474 11.7718 14.623 13.0196 18.6962 13.0196C 22.7695 13.0196 26.745 11.7718 30.0877 9.44404C 33.4303 7.1163 35.9796 3.82041 37.3925 4.0486e-13C 33.7601 4.24672 26.7445 7.12238 18.6962 7.12238Z"
       id="path8_fill" />
    <path
       d="M 18.6962 5.89725C 26.7089 5.89725 33.7512 8.77291 37.3925 13.0196C 35.9796 9.19922 33.4303 5.90333 30.0877 3.57559C 26.745 1.24785 22.7695 4.0486e-13 18.6962 0C 14.623 4.0486e-13 10.6474 1.24785 7.30479 3.57559C 3.96215 5.90333 1.41284 9.19922 0 13.0196C 3.64131 8.76401 10.648 5.89725 18.6962 5.89725Z"
       id="path9_fill" />
    <path
       d="M 7.59576 3.56656C 7.64276 4.31992 7.46442 5.07022 7.08347 5.72186C 6.70251 6.3735 6.13619 6.89698 5.45666 7.22561C 4.77713 7.55424 4.01515 7.67314 3.26781 7.56716C 2.52046 7.46117 1.82158 7.13511 1.26021 6.63051C 0.698839 6.12591 0.300394 5.46561 0.115637 4.73375C -0.0691191 4.00188 -0.0318219 3.23159 0.222777 2.52099C 0.477376 1.8104 0.93775 1.19169 1.54524 0.743685C 2.15274 0.295678 2.87985 0.0386595 3.63394 0.00537589C 4.12793 -0.0210471 4.62229 0.0501173 5.08878 0.214803C 5.55526 0.37949 5.98473 0.63447 6.35264 0.965179C 6.72055 1.29589 7.01971 1.69584 7.233 2.1422C 7.4463 2.58855 7.56957 3.07256 7.59576 3.56656L 7.59576 3.56656Z"
       id="path10_fill" />
    <path
       d="M 2.25061 4.37943C 1.81886 4.39135 1.39322 4.27535 1.02722 4.04602C 0.661224 3.81668 0.371206 3.48424 0.193641 3.09052C 0.0160762 2.69679 -0.0411078 2.25935 0.0292804 1.83321C 0.0996686 1.40707 0.294486 1.01125 0.589233 0.695542C 0.883981 0.37983 1.2655 0.158316 1.68581 0.0588577C 2.10611 -0.0406005 2.54644 -0.0135622 2.95143 0.136572C 3.35641 0.286707 3.70796 0.553234 3.96186 0.902636C 4.21577 1.25204 4.3607 1.66872 4.37842 2.10027C 4.39529 2.6838 4.18131 3.25044 3.78293 3.67715C 3.38455 4.10387 2.83392 4.35623 2.25061 4.37943Z"
       id="path11_fill" />
  </defs>
  <sodipodi:namedview
     id="base"
     pagecolor="#ffffff"
     bordercolor="#666666"
     borderopacity="1.0"
     inkscape:pageopacity="0.0"
     inkscape:pageshadow="2"
     inkscape:zoom="32.59629"
     inkscape:cx="63.223123"
     inkscape:cy="26.845977"
     inkscape:document-units="px"
     inkscape:current-layer="g4211"
     showgrid="true"
     fit-margin-top="0"
     fit-margin-left="0"
     fit-margin-right="0"
     fit-margin-bottom="0"
     inkscape:window-width="1920"
     inkscape:window-height="1056"
     inkscape:window-x="1280"
     inkscape:window-y="24"
     inkscape:window-maximized="1"
     showborder="true"
     showguides="true"
     inkscape:guide-bbox="true"
     inkscape:showpageshadow="false">
    <inkscape:grid
       type="xygrid"
       id="grid821" />
    <sodipodi:guide
       orientation="1,0"
       position="16,48"
       id="guide823" />
    <sodipodi:guide
       orientation="0,1"
       position="64,80"
       id="guide825" />
    <sodipodi:guide
       orientation="1,0"
       position="80,40"
       id="guide827" />
    <sodipodi:guide
       orientation="0,1"
       position="64,16"
       id="guide829" />
  </sodipodi:namedview>
  <metadata
     id="metadata6522">
    <rdf:RDF>
      <cc:Work
         rdf:about="">
        <dc:format>image/svg+xml</dc:format>
        <dc:type
           rdf:resource="http://purl.org/dc/dcmitype/StillImage" />
        <dc:title />
      </cc:Work>
    </rdf:RDF>
  </metadata>
  <g
     inkscape:label="BACKGROUND"
     inkscape:groupmode="layer"
     id="layer1"
     transform="translate(268,-635.29076)"
     style="display:inline"
     sodipodi:insensitive="true">
    <path
       style="display:inline;fill:#ffffff;fill-opacity:1;stroke:none;stroke-opacity:1;filter:url(#filter4306)"
       d="m -268,700.15563 0,-33.72973 c 0,-27.24324 3.88785,-31.13513 31.10302,-31.13513 l 33.79408,0 c 27.21507,0 31.1029,3.89189 31.1029,31.13513 l 0,33.72973 c 0,27.24325 -3.88783,31.13514 -31.1029,31.13514 l -33.79408,0 c -27.21517,0 -31.10302,-3.89189 -31.10302,-31.13514 z"
       id="path6455"
       inkscape:connector-curvature="0"
       sodipodi:nodetypes="sssssssss" />
  </g>
  <g
     inkscape:groupmode="layer"
     id="layer3"
     inkscape:label="PLACE YOUR PICTOGRAM HERE"
     style="display:inline">
    <g
       style="display:inline"
       figma:type="canvas"
       transform="matrix(1.2786197,0,0,1.2786197,-2076.8541,-3121.3292)"
       id="Canvas">
      <g
         figma:type="group"
         style="mix-blend-mode:normal"
         id="Group">
        <g
           figma:type="group"
           style="mix-blend-mode:normal"
           id="g4179">
          <g
             figma:type="group"
             style="mix-blend-mode:normal"
             id="g4181">
            <g
               figma:type="group"
               style="mix-blend-mode:normal"
               id="g">
              <g
                 figma:type="group"
                 style="mix-blend-mode:normal"
                 id="path">
                <g
                   figma:type="vector"
                   style="mix-blend-mode:normal"
                   id="path9 fill">
                  <use
                     id="use4186"
                     style="mix-blend-mode:normal;fill:#4e4e4e"
                     transform="translate(1640.54,2474.36)"
                     xlink:href="#path0_fill"
                     x="0"
                     y="0"
                     width="100%"
                     height="100%" />
                </g>
              </g>
              <g
                 figma:type="group"
                 style="mix-blend-mode:normal"
                 id="g4188">
                <g
                   figma:type="vector"
                   style="mix-blend-mode:normal"
                   id="path10 fill">
                  <use
                     id="use4191"
                     style="mix-blend-mode:normal;fill:#4e4e4e"
                     transform="translate(1645.68,2474.37)"
                     xlink:href="#path1_fill"
                     x="0"
                     y="0"
                     width="100%"
                     height="100%" />
                </g>
              </g>
              <g
                 figma:type="group"
                 style="mix-blend-mode:normal"
                 id="g4193">
                <g
                   figma:type="vector"
                   style="mix-blend-mode:normal"
                   id="path11 fill">
                  <use
                     id="use4196"
                     style="mix-blend-mode:normal;fill:#4e4e4e"
                     transform="translate(1653.39,2474.26)"
                     xlink:href="#path2_fill"
                     x="0"
                     y="0"
                     width="100%"
                     height="100%" />
                </g>
              </g>
              <g
                 figma:type="group"
                 style="mix-blend-mode:normal"
                 id="g4198">
                <g
                   figma:type="vector"
                   style="mix-blend-mode:normal"
                   id="path12 fill">
                  <use
                     id="use4201"
                     style="mix-blend-mode:normal;fill:#4e4e4e"
                     transform="translate(1660.43,2474.39)"
                     xlink:href="#path3_fill"
                     x="0"
                     y="0"
                     width="100%"
                     height="100%" />
                </g>
              </g>
              <g
                 figma:type="group"
                 style="mix-blend-mode:normal"
                 id="g4203">
                <g
                   figma:type="vector"
                   style="mix-blend-mode:normal"
                   id="path13 fill">
                  <use
                     id="use4206"
                     style="mix-blend-mode:normal;fill:#4e4e4e"
                     transform="translate(1667.55,2472.54)"
                     xlink:href="#path4_fill"
                     x="0"
                     y="0"
                     width="100%"
                     height="100%" />
                </g>
              </g>
              <g
                 figma:type="group"
                 style="mix-blend-mode:normal"
                 id="g4208">
                <g
                   figma:type="vector"
                   style="mix-blend-mode:normal"
                   id="path14 fill">
                  <use
                     id="use4211"
                     style="mix-blend-mode:normal;fill:#4e4e4e"
                     transform="translate(1672.47,2474.29)"
                     xlink:href="#path5_fill"
                     x="0"
                     y="0"
                     width="100%"
                     height="100%" />
                </g>
              </g>
              <g
                 figma:type="group"
                 style="mix-blend-mode:normal"
                 id="g4213">
                <g
                   figma:type="vector"
                   style="mix-blend-mode:normal"
                   id="path15 fill">
                  <use
                     id="use4216"
                     style="mix-blend-mode:normal;fill:#4e4e4e"
                     transform="translate(1679.98,2474.24)"
                     xlink:href="#path6_fill"
                     x="0"
                     y="0"
                     width="100%"
                     height="100%" />
                </g>
              </g>
            </g>
          </g>
          <g
             figma:type="group"
             style="mix-blend-mode:normal"
             id="g4218">
            <g
               figma:type="group"
               style="mix-blend-mode:normal"
               id="g4220">
              <g
                 figma:type="vector"
                 style="mix-blend-mode:normal"
                 id="path16 fill">
                <use
                   id="use4223"
                   style="mix-blend-mode:normal;fill:#767677"
                   transform="translate(1673.48,2453.69)"
                   xlink:href="#path7_fill"
                   x="0"
                   y="0"
                   width="100%"
                   height="100%" />
              </g>
            </g>
            <g
               figma:type="group"
               style="mix-blend-mode:normal"
               id="g4225">
              <g
                 figma:type="vector"
                 style="mix-blend-mode:normal"
                 id="path17 fill">
                <use
                   id="use4228"
                   style="mix-blend-mode:normal;fill:#f37726"
                   transform="translate(1643.21,2484.27)"
                   xlink:href="#path8_fill"
                   x="0"
                   y="0"
                   width="100%"
                   height="100%" />
              </g>
            </g>
            <g
               figma:type="group"
               style="mix-blend-mode:normal"
               id="g4230">
              <g
                 figma:type="vector"
                 style="mix-blend-mode:normal"
                 id="path18 fill">
                <use
                   id="use4233"
                   style="mix-blend-mode:normal;fill:#f37726"
                   transform="translate(1643.21,2457.88)"
                   xlink:href="#path9_fill"
                   x="0"
                   y="0"
                   width="100%"
                   height="100%" />
              </g>
            </g>
            <g
               figma:type="group"
               style="mix-blend-mode:normal"
               id="g4235">
              <g
                 figma:type="vector"
                 style="mix-blend-mode:normal"
                 id="path19 fill">
                <use
                   id="use4238"
                   style="mix-blend-mode:normal;fill:#9e9e9e"
                   transform="translate(1643.28,2496.09)"
                   xlink:href="#path10_fill"
                   x="0"
                   y="0"
                   width="100%"
                   height="100%" />
              </g>
            </g>
            <g
               figma:type="group"
               style="mix-blend-mode:normal"
               id="g4240">
              <g
                 figma:type="vector"
                 style="mix-blend-mode:normal"
                 id="path20 fill">
                <use
                   id="use4243"
                   style="mix-blend-mode:normal;fill:#616262"
                   transform="translate(1641.87,2458.43)"
                   xlink:href="#path11_fill"
                   x="0"
                   y="0"
                   width="100%"
                   height="100%" />
              </g>
            </g>
          </g>
        </g>
      </g>
    </g>
    <g
       style="display:inline"
       id="g4211"
       transform="translate(232.51211,-631.88376)">
      <path
         style="fill:#e57115"
         d="m -155.41795,705.75948 c -0.49183,-0.15956 -0.91381,-0.32849 -0.93772,-0.37543 -0.0763,-0.14976 -0.18851,-1.02679 -0.1377,-1.07601 0.0269,-0.0261 0.36323,0.044 0.74737,0.15587 0.74781,0.2176 0.90217,0.24161 0.90217,0.1404 0,-0.0353 -0.22508,-0.50852 -0.50019,-1.05147 l -0.50019,-0.98719 0.57296,-0.70077 c 0.31511,-0.38543 0.68336,-0.83446 0.81833,-0.99784 0.13496,-0.1634 0.2335,-0.31691 0.21897,-0.34116 -0.0145,-0.0242 -0.46545,0.0763 -1.00204,0.22345 -0.53661,0.14714 -1.08041,0.2806 -1.20846,0.29656 l -0.23282,0.0291 -0.55336,-0.94858 c -0.30435,-0.52171 -0.57938,-0.94857 -0.61116,-0.94857 -0.0317,0 -0.14945,0.53204 -0.2615,1.18233 -0.11207,0.65026 -0.23101,1.21039 -0.26439,1.24473 -0.0335,0.0344 -0.5528,0.22235 -1.15431,0.41782 -0.60151,0.19549 -1.1072,0.36942 -1.1238,0.38653 -0.0753,0.0776 0.0962,0.17436 0.8271,0.46636 0.43128,0.1723 0.78413,0.34385 0.78413,0.38119 0,0.0625 -0.90728,0.69997 -1.11096,0.78055 -0.1206,0.0477 -1.72309,-0.70872 -1.92594,-0.90907 -0.0892,-0.0882 -0.20406,-0.27308 -0.25513,-0.41094 -0.0825,-0.22308 -0.0833,-0.27389 -0.007,-0.46196 0.14391,-0.35505 0.3939,-0.48845 1.77514,-0.94727 1.05604,-0.35078 1.30847,-0.45559 1.35048,-0.56074 0.0285,-0.0712 0.13231,-0.60498 0.23087,-1.18635 0.0986,-0.58139 0.204,-1.14625 0.23433,-1.25529 0.14283,-0.51344 0.57672,-0.88829 0.93444,-0.80729 0.28304,0.0641 0.52691,0.36623 1.12169,1.38961 0.31017,0.5337 0.59364,0.98059 0.62992,0.99305 0.0363,0.0131 0.64492,-0.13605 1.35254,-0.33003 0.70762,-0.19399 1.40802,-0.35568 1.55646,-0.35933 0.31645,-0.008 0.55543,0.1286 0.60867,0.3473 0.0861,0.35383 -0.0154,0.52694 -1.05224,1.79203 -0.75176,0.91737 -1.00519,1.26593 -0.9765,1.34309 0.0212,0.0573 0.28503,0.58549 0.58602,1.17372 0.58783,1.14874 0.66316,1.40369 0.51062,1.72754 -0.25961,0.55108 -0.6898,0.59176 -1.94658,0.18409 z"
         id="path4215"
         inkscape:connector-curvature="0"
         sodipodi:nodetypes="cccssscsscsccssscscssccscscsssscsccscsscc" />
      <path
         style="fill:#3d3936"
         d="m -174.96458,711.8224 c -0.0881,-0.0576 0.39672,-3.98727 0.56451,-4.57592 0.28669,-1.0057 1.15695,-1.84997 2.19401,-2.12846 1.08336,-0.29093 2.1938,0.20126 2.65721,1.1778 0.84282,1.77608 -0.67847,4.06913 -2.70213,4.07291 -0.42037,6.8e-4 -0.91104,-0.12558 -1.20346,-0.30976 l -0.18887,-0.11902 -0.0496,0.13974 c -0.0273,0.0768 -0.094,0.4899 -0.14839,0.91793 -0.0553,0.43543 -0.12976,0.79846 -0.16903,0.82419 -0.0907,0.0595 -0.86378,0.0599 -0.95434,6.8e-4 z m 3.37623,-2.68867 c 0.33022,-0.116 0.81756,-0.55432 0.97895,-0.8805 0.40064,-0.80966 0.0523,-1.76087 -0.73065,-1.99555 -0.33648,-0.1008 -0.80358,-0.0595 -1.09631,0.0972 -0.30468,0.16298 -0.62677,0.4949 -0.76643,0.78985 -0.38081,0.80424 -0.18744,1.56781 0.48611,1.91962 0.36758,0.19199 0.71816,0.21359 1.12833,0.0695 z m -6.45001,1.21177 c -0.51854,-0.16907 -0.83297,-0.44349 -1.07988,-0.94247 -0.19195,-0.38793 -0.14982,-0.46523 0.42977,-0.78842 0.28267,-0.15763 0.53842,-0.27101 0.56832,-0.25196 0.0299,0.019 0.10526,0.13743 0.1674,0.26306 0.1842,0.37229 0.42639,0.54355 0.76859,0.54355 0.5442,0 0.92126,-0.31094 0.92083,-0.75937 -2.9e-4,-0.31115 -0.12361,-0.50087 -0.81071,-1.24666 -0.67887,-0.7369 -0.95942,-1.14926 -1.05597,-1.55214 -0.24397,-1.01784 0.63051,-2.15858 1.82937,-2.38636 0.64578,-0.1227 1.21912,0.0796 1.67143,0.58989 0.18567,0.20944 0.28643,0.37395 0.27531,0.4495 -0.0104,0.0688 -0.22137,0.27191 -0.49957,0.48045 l -0.48199,0.36132 -0.20775,-0.25021 c -0.27498,-0.33123 -0.50336,-0.44871 -0.79406,-0.40851 -0.29815,0.0411 -0.56609,0.29779 -0.56609,0.54205 0,0.22159 0.136,0.40654 0.95539,1.29934 0.42684,0.46508 0.70577,0.82635 0.81411,1.05444 0.14992,0.31569 0.16236,0.39069 0.13783,0.83159 -0.0332,0.59631 -0.23191,1.06216 -0.62614,1.46766 -0.63271,0.65076 -1.66006,0.94979 -2.41619,0.70325 z m 10.76786,-0.0569 c -0.58329,-0.199 -1.00287,-0.53549 -1.28368,-1.02949 -0.90775,-1.59701 0.29231,-3.84816 2.22943,-4.18213 0.77722,-0.13399 1.49358,0.0921 2.02556,0.63945 0.35007,0.36015 0.53803,0.73714 0.62325,1.25008 0.053,0.31907 0.0381,0.58127 -0.0964,1.69516 -0.0875,0.72474 -0.183,1.37845 -0.2122,1.45273 -0.0493,0.12517 -0.0892,0.13501 -0.54909,0.13501 l -0.49599,0 3.3e-4,-0.19503 c 2.4e-4,-0.10722 0.0526,-0.59627 0.11641,-1.08668 0.19836,-1.52489 0.14961,-1.97648 -0.26075,-2.41516 -0.18794,-0.20091 -0.29899,-0.26427 -0.5601,-0.31949 -1.1168,-0.23625 -2.1989,0.85861 -1.96584,1.98904 0.0517,0.25037 0.12203,0.3757 0.33458,0.59578 0.45907,0.47527 1.10154,0.53884 1.73294,0.17145 0.1777,-0.10343 0.33663,-0.17403 0.35319,-0.15695 0.0165,0.017 -0.003,0.30541 -0.0423,0.64075 l -0.0725,0.60971 -0.26912,0.12492 c -0.33637,0.15615 -1.25212,0.2022 -1.60783,0.0808 z m 3.8706,-0.19139 c 0,-0.0837 0.10434,-0.96359 0.23183,-1.9553 0.20477,-1.59262 0.25032,-1.83811 0.3902,-2.10308 0.17478,-0.33108 0.37673,-0.52937 0.73899,-0.72569 0.1981,-0.10735 0.34045,-0.13015 0.82166,-0.13215 l 0.58203,-0.003 -0.0152,0.39006 c -0.008,0.21453 -0.0364,0.47107 -0.0621,0.57008 -0.0453,0.17396 -0.0596,0.18055 -0.42136,0.19593 -0.40188,0.017 -0.60755,0.0933 -0.66791,0.24757 -0.0208,0.0531 -0.13741,0.87112 -0.25916,1.8178 -0.12177,0.94671 -0.23864,1.75007 -0.25976,1.78528 -0.0225,0.0376 -0.25287,0.0639 -0.55879,0.0639 -0.51827,0 -0.5204,-6.7e-4 -0.5204,-0.1522 z m 2.77118,0.10303 c -0.051,-0.0849 0.70233,-5.82604 0.77652,-5.91822 0.11456,-0.14231 1.16332,-0.82289 1.21616,-0.78922 0.0267,0.017 -0.0119,0.49784 -0.0848,1.06847 -0.21225,1.65015 -0.21892,1.72762 -0.14884,1.72762 0.0348,0 0.45919,-0.45232 0.94288,-1.00516 0.48368,-0.55282 0.91428,-1.01336 0.95684,-1.02339 0.0546,-0.0131 0.0977,0.11128 0.14575,0.42005 0.0376,0.24109 0.0808,0.48404 0.096,0.5399 0.0306,0.1122 -0.14274,0.33239 -0.89931,1.14319 l -0.48958,0.52468 0.10224,0.16096 c 0.0563,0.0885 0.55704,0.81945 1.11285,1.62429 0.55579,0.80483 1.01053,1.48869 1.01053,1.5197 0,0.032 -0.30211,0.0564 -0.69935,0.0564 l -0.69937,0 -0.84084,-1.3202 c -0.46247,-0.72609 -0.86627,-1.32017 -0.89734,-1.32017 -0.0828,0 -0.10212,0.10211 -0.24458,1.29017 -0.0713,0.5941 -0.15086,1.14092 -0.17694,1.21519 -0.0446,0.12701 -0.0799,0.13501 -0.59832,0.13501 -0.30302,0 -0.56424,-0.0221 -0.58046,-0.0492 z"
         id="path4213"
         inkscape:connector-curvature="0" />
    </g>
  </g>
  <g
     inkscape:groupmode="layer"
     id="layer2"
     inkscape:label="BADGE"
     style="display:none"
     sodipodi:insensitive="true">
    <g
       style="display:inline"
       transform="translate(-340.00001,-581)"
       id="g4394"
       clip-path="none">
      <g
         id="g855">
        <g
           inkscape:groupmode="maskhelper"
           id="g870"
           clip-path="url(#clipPath873)"
           style="opacity:0.6;filter:url(#filter891)">
          <path
             transform="matrix(1.4999992,0,0,1.4999992,-29.999795,-237.54282)"
             d="m 264,552.36218 a 12,12 0 0 1 -12,12 12,12 0 0 1 -12,-12 12,12 0 0 1 12,-12 12,12 0 0 1 12,12 z"
             sodipodi:ry="12"
             sodipodi:rx="12"
             sodipodi:cy="552.36218"
             sodipodi:cx="252"
             id="path844"
             style="color:#000000;fill:#000000;fill-opacity:1;fill-rule:nonzero;stroke:none;stroke-width:4;marker:none;visibility:visible;display:inline;overflow:visible;enable-background:accumulate"
             sodipodi:type="arc" />
        </g>
        <g
           id="g862">
          <path
             sodipodi:type="arc"
             style="color:#000000;fill:#f5f5f5;fill-opacity:1;fill-rule:nonzero;stroke:none;stroke-width:4;marker:none;visibility:visible;display:inline;overflow:visible;enable-background:accumulate"
             id="path4398"
             sodipodi:cx="252"
             sodipodi:cy="552.36218"
             sodipodi:rx="12"
             sodipodi:ry="12"
             d="m 264,552.36218 a 12,12 0 0 1 -12,12 12,12 0 0 1 -12,-12 12,12 0 0 1 12,-12 12,12 0 0 1 12,12 z"
             transform="matrix(1.4999992,0,0,1.4999992,-29.999795,-238.54282)" />
          <path
             transform="matrix(1.25,0,0,1.25,33,-100.45273)"
             d="m 264,552.36218 a 12,12 0 0 1 -12,12 12,12 0 0 1 -12,-12 12,12 0 0 1 12,-12 12,12 0 0 1 12,12 z"
             sodipodi:ry="12"
             sodipodi:rx="12"
             sodipodi:cy="552.36218"
             sodipodi:cx="252"
             id="path4400"
             style="color:#000000;fill:#dd4814;fill-opacity:1;fill-rule:nonzero;stroke:none;stroke-width:4;marker:none;visibility:visible;display:inline;overflow:visible;enable-background:accumulate"
             sodipodi:type="arc" />
          <path
             sodipodi:type="star"
             style="color:#000000;fill:#f5f5f5;fill-opacity:1;fill-rule:nonzero;stroke:none;stroke-width:3;marker:none;visibility:visible;display:inline;overflow:visible;enable-background:accumulate"
             id="path4459"
             sodipodi:sides="5"
             sodipodi:cx="666.19574"
             sodipodi:cy="589.50385"
             sodipodi:r1="7.2431178"
             sodipodi:r2="4.3458705"
             sodipodi:arg1="1.0471976"
             sodipodi:arg2="1.6755161"
             inkscape:flatsided="false"
             inkscape:rounded="0.1"
             inkscape:randomized="0"
             d="m 669.8173,595.77657 c -0.39132,0.22593 -3.62645,-1.90343 -4.07583,-1.95066 -0.44938,-0.0472 -4.05653,1.36297 -4.39232,1.06062 -0.3358,-0.30235 0.68963,-4.03715 0.59569,-4.47913 -0.0939,-0.44198 -2.5498,-3.43681 -2.36602,-3.8496 0.18379,-0.41279 4.05267,-0.59166 4.44398,-0.81759 0.39132,-0.22593 2.48067,-3.48704 2.93005,-3.4398 0.44938,0.0472 1.81505,3.67147 2.15084,3.97382 0.3358,0.30236 4.08294,1.2817 4.17689,1.72369 0.0939,0.44198 -2.9309,2.86076 -3.11469,3.27355 -0.18379,0.41279 0.0427,4.27917 -0.34859,4.5051 z"
             transform="matrix(1.511423,-0.16366377,0.16366377,1.511423,-755.37346,-191.93651)" />
        </g>
      </g>
    </g>
  </g>
</svg>
