<?xml version="1.0" encoding="UTF-8" standalone="no"?>
<!-- Created with Inkscape (http://www.inkscape.org/) -->

<svg
   xmlns:dc="http://purl.org/dc/elements/1.1/"
   xmlns:cc="http://creativecommons.org/ns#"
   xmlns:rdf="http://www.w3.org/1999/02/22-rdf-syntax-ns#"
   xmlns:svg="http://www.w3.org/2000/svg"
   xmlns="http://www.w3.org/2000/svg"
   xmlns:sodipodi="http://sodipodi.sourceforge.net/DTD/sodipodi-0.dtd"
   xmlns:inkscape="http://www.inkscape.org/namespaces/inkscape"
   width="96"
   height="96"
   id="svg6517"
   version="1.1"
   inkscape:version="0.91 r13725"
   sodipodi:docname="icon.svg"
   enable-background="new">
  <defs
     id="defs6519">
    <linearGradient
       id="Background">
      <stop
         id="stop4178"
         offset="0"
         style="stop-color:#b8b8b8;stop-opacity:1" />
      <stop
         id="stop4180"
         offset="1"
         style="stop-color:#c9c9c9;stop-opacity:1" />
    </linearGradient>
    <filter
       style="color-interpolation-filters:sRGB;"
       inkscape:label="Inner Shadow"
       id="filter1121">
      <feFlood
         flood-opacity="0.59999999999999998"
         flood-color="rgb(0,0,0)"
         result="flood"
         id="feFlood1123" />
      <feComposite
         in="flood"
         in2="SourceGraphic"
         operator="out"
         result="composite1"
         id="feComposite1125" />
      <feGaussianBlur
         in="composite1"
         stdDeviation="1"
         result="blur"
         id="feGaussianBlur1127" />
      <feOffset
         dx="0"
         dy="2"
         result="offset"
         id="feOffset1129" />
      <feComposite
         in="offset"
         in2="SourceGraphic"
         operator="atop"
         result="composite2"
         id="feComposite1131" />
    </filter>
    <filter
       style="color-interpolation-filters:sRGB;"
       inkscape:label="Drop Shadow"
       id="filter950">
      <feFlood
         flood-opacity="0.25"
         flood-color="rgb(0,0,0)"
         result="flood"
         id="feFlood952" />
      <feComposite
         in="flood"
         in2="SourceGraphic"
         operator="in"
         result="composite1"
         id="feComposite954" />
      <feGaussianBlur
         in="composite1"
         stdDeviation="1"
         result="blur"
         id="feGaussianBlur956" />
      <feOffset
         dx="0"
         dy="1"
         result="offset"
         id="feOffset958" />
      <feComposite
         in="SourceGraphic"
         in2="offset"
         operator="over"
         result="composite2"
         id="feComposite960" />
    </filter>
    <clipPath
       clipPathUnits="userSpaceOnUse"
       id="clipPath873">
      <g
         transform="matrix(0,-0.66666667,0.66604479,0,-258.25992,677.00001)"
         id="g875"
         inkscape:label="Layer 1"
         style="fill:#ff00ff;fill-opacity:1;stroke:none;display:inline">
        <path
           style="fill:#ff00ff;fill-opacity:1;stroke:none;display:inline"
           d="m 46.702703,898.22775 50.594594,0 C 138.16216,898.22775 144,904.06497 144,944.92583 l 0,50.73846 c 0,40.86071 -5.83784,46.69791 -46.702703,46.69791 l -50.594594,0 C 5.8378378,1042.3622 0,1036.525 0,995.66429 L 0,944.92583 C 0,904.06497 5.8378378,898.22775 46.702703,898.22775 Z"
           id="path877"
           inkscape:connector-curvature="0"
           sodipodi:nodetypes="sssssssss" />
      </g>
    </clipPath>
    <filter
       inkscape:collect="always"
       id="filter891"
       inkscape:label="Badge Shadow">
      <feGaussianBlur
         inkscape:collect="always"
         stdDeviation="0.71999962"
         id="feGaussianBlur893" />
    </filter>
  </defs>
  <sodipodi:namedview
     id="base"
     pagecolor="#ffffff"
     bordercolor="#666666"
     borderopacity="1.0"
     inkscape:pageopacity="0.0"
     inkscape:pageshadow="2"
     inkscape:zoom="1.4405661"
     inkscape:cx="-19.979625"
     inkscape:cy="5.5869084"
     inkscape:document-units="px"
     inkscape:current-layer="layer3"
     showgrid="true"
     fit-margin-top="0"
     fit-margin-left="0"
     fit-margin-right="0"
     fit-margin-bottom="0"
     inkscape:window-width="1920"
     inkscape:window-height="1056"
     inkscape:window-x="1280"
     inkscape:window-y="24"
     inkscape:window-maximized="1"
     showborder="true"
     showguides="true"
     inkscape:guide-bbox="true"
     inkscape:showpageshadow="false">
    <inkscape:grid
       type="xygrid"
       id="grid821" />
    <sodipodi:guide
       orientation="1,0"
       position="16,48"
       id="guide823" />
    <sodipodi:guide
       orientation="0,1"
       position="64,80"
       id="guide825" />
    <sodipodi:guide
       orientation="1,0"
       position="80,40"
       id="guide827" />
    <sodipodi:guide
       orientation="0,1"
       position="64,16"
       id="guide829" />
  </sodipodi:namedview>
  <metadata
     id="metadata6522">
    <rdf:RDF>
      <cc:Work
         rdf:about="">
        <dc:format>image/svg+xml</dc:format>
        <dc:type
           rdf:resource="http://purl.org/dc/dcmitype/StillImage" />
        <dc:title />
      </cc:Work>
    </rdf:RDF>
  </metadata>
  <g
     inkscape:label="BACKGROUND"
     inkscape:groupmode="layer"
     id="layer1"
     transform="translate(268,-635.29076)"
     style="display:inline"
     sodipodi:insensitive="true">
    <path
       style="display:inline;fill:#a71f28;fill-opacity:1;stroke:none"
       d="m -268,700.15563 0,-33.72973 c 0,-27.24324 3.88785,-31.13513 31.10302,-31.13513 l 33.79408,0 c 27.21507,0 31.1029,3.89189 31.1029,31.13513 l 0,33.72973 c 0,27.24325 -3.88783,31.13514 -31.1029,31.13514 l -33.79408,0 c -27.21517,0 -31.10302,-3.89189 -31.10302,-31.13514 z"
       id="path6455"
       inkscape:connector-curvature="0"
       sodipodi:nodetypes="sssssssss" />
  </g>
  <g
     inkscape:groupmode="layer"
     id="layer4"
     inkscape:label="PLACE YOUR PICTOGRAM HERE 1" />
  <g
     inkscape:groupmode="layer"
     id="layer3"
     inkscape:label="PLACE YOUR PICTOGRAM HERE"
     style="display:inline">
    <g
       id="g4389"
       transform="matrix(0.11927205,0,0,0.11927205,16.008891,16.160513)"
       style="fill:#ffffff">
      <g
         id="g4347"
         style="fill:#ffffff">
        <g
           id="g4349"
           style="fill:#ffffff">
          <path
             id="path4351"
             d="M 237.15,399.636 C 205.326,396.782 176.868,391.275 151.776,383.115 126.684,374.955 104.55,365.367 85.374,354.348 66.198,343.332 49.674,331.401 35.802,318.546 21.93,305.694 10.302,293.15 0.918,280.908 0.51,278.868 0.306,276.723 0.306,274.481 l 0,-6.428 0,-1.224 c 10.608,-0.816 24.378,-2.346 41.31,-4.59 16.932,-2.244 34.986,-5.917 54.162,-11.016 19.176,-5.1 38.862,-11.73 59.058,-19.89 20.196,-8.16 39.066,-18.564 56.61,-31.212 3.672,1.632 7.446,2.958 11.322,3.978 3.876,1.02 8.058,1.53 12.546,1.53 4.488,0 8.874,-0.612 13.158,-1.836 4.284,-1.224 8.466,-2.856 12.546,-4.896 12.239,12.648 26.521,25.092 42.841,37.332 10.605,8.16 21.52,14.892 32.738,20.196 11.223,5.306 22.746,9.792 34.578,13.464 4.488,11.426 11.629,20.196 21.42,26.316 -11.832,29.376 -28.354,55.284 -49.568,77.724 -4.488,-3.264 -9.59,-5.916 -15.303,-7.956 -5.713,-2.04 -11.629,-3.06 -17.748,-3.06 -12.646,0 -23.662,3.57 -33.049,10.71 -9.383,7.14 -16.319,16.014 -20.807,26.622 l -9.486,0 c 0.002,0.003 -3.16,-0.201 -9.484,-0.609 z m -3.672,37.944 c 3.672,0.408 7.344,0.714 11.016,0.918 3.672,0.204 7.344,0.306 11.016,0.306 -31.416,16.729 -60.486,27.336 -87.21,31.824 -26.724,4.488 -49.878,6.12 -69.462,4.896 -20.4,-16.729 -37.944,-35.805 -52.632,-57.225 -14.688,-21.42 -26.112,-44.979 -34.272,-70.686 11.832,10.605 25.194,20.808 40.086,30.6 14.892,9.792 31.416,18.666 49.572,26.622 18.156,7.956 38.25,14.79 60.282,20.502 22.032,5.715 45.9,9.795 71.604,12.243 z m 76.5,40.392 c 13.871,0 26.012,-4.485 36.414,-13.464 10.404,-8.976 17.033,-19.992 19.893,-33.048 34.68,-6.936 64.359,-16.728 89.045,-29.376 24.684,-12.647 45.594,-26.112 62.729,-40.392 -9.383,25.296 -22.338,48.651 -38.859,70.071 -16.523,21.42 -35.699,39.78 -57.527,55.08 -21.828,15.3 -45.799,27.234 -71.91,35.805 -26.111,8.565 -53.449,12.852 -82.008,12.852 -19.992,0 -39.168,-2.04 -57.528,-6.12 -18.36,-4.08 -36.108,-9.996 -53.244,-17.748 18.36,-2.447 37.842,-6.936 58.446,-13.464 20.604,-6.528 41.922,-16.116 63.954,-28.764 9.378,5.712 19.579,8.568 30.595,8.568 z m 161.568,-195.84 c 11.832,-0.813 23.051,-1.731 33.66,-2.754 10.607,-1.02 20.604,-2.346 29.988,-3.979 0,2.446 -0.105,4.998 -0.309,7.648 -0.205,2.652 -0.307,5.406 -0.307,8.262 -4.896,6.528 -11.627,14.181 -20.195,22.95 -8.566,8.772 -19.176,17.748 -31.824,26.931 -12.646,9.18 -27.336,18.054 -44.063,26.619 -16.729,8.568 -35.699,15.708 -56.916,21.422 10.609,-12.647 19.891,-26.012 27.846,-40.088 7.957,-14.073 14.791,-28.659 20.502,-43.758 8.568,-0.813 16.422,-3.264 23.563,-7.344 7.141,-4.077 13.159,-9.381 18.055,-15.909 z m 9.791,-39.168 c -0.814,-8.976 -3.57,-17.136 -8.262,-24.48 -4.691,-7.344 -10.506,-13.26 -17.441,-17.748 2.447,-21.216 3.773,-42.126 3.979,-62.73 0.206,-20.604 -0.512,-40.086 -2.145,-58.446 20.811,20.808 37.74,44.472 50.797,70.992 13.059,26.52 21.42,55.08 25.094,85.68 -15.506,3.264 -32.846,5.508 -52.022,6.732 z m -303.551,-94.86 c 0,4.488 0.51,8.772 1.53,12.852 1.02,4.08 2.346,7.956 3.978,11.628 -14.688,9.792 -30.396,18.054 -47.124,24.786 -16.728,6.732 -33.15,12.24 -49.266,16.524 -16.116,4.284 -31.518,7.548 -46.206,9.792 -14.688,2.244 -27.132,3.774 -37.332,4.59 3.672,-24.48 10.404,-47.736 20.196,-69.768 9.792,-22.032 22.134,-42.126 37.026,-60.282 14.892,-18.156 32.028,-34.17 51.408,-48.042 19.38,-13.872 40.29,-24.888 62.73,-33.048 0.816,10.608 2.55,23.46 5.202,38.556 2.652,15.096 8.058,31.824 16.218,50.184 -5.712,5.304 -10.2,11.628 -13.464,18.972 -3.264,7.344 -4.896,15.096 -4.896,23.256 z m 114.444,0 c 0,-6.936 -1.227,-13.872 -3.674,-20.808 19.584,-23.256 34.373,-44.88 44.369,-64.872 9.996,-19.992 16.83,-35.904 20.502,-47.736 22.852,7.752 43.453,17.748 61.813,29.988 2.854,20.808 4.689,43.86 5.508,69.156 0.819,25.296 -0.203,51.408 -3.059,78.336 -10.609,1.224 -20.197,5.202 -28.768,11.934 -8.564,6.732 -14.688,14.994 -18.357,24.786 -7.754,-2.856 -15.197,-6.12 -22.34,-9.792 -7.141,-3.672 -14.178,-8.16 -21.111,-13.464 -7.752,-5.712 -14.895,-11.424 -21.42,-17.136 -6.529,-5.712 -12.648,-11.424 -18.361,-17.136 3.265,-7.752 4.898,-15.504 4.898,-23.256 z M 235.314,90.576 c -1.632,0 -2.856,0.204 -3.672,0.612 C 223.482,72.012 218.28,55.08 216.036,40.392 213.792,25.704 212.67,14.28 212.67,6.12 221.646,4.08 230.724,2.55 239.904,1.53 249.084,0.51 258.366,0 267.75,0 c 15.912,0 32.029,1.632 48.347,4.896 -3.264,9.792 -8.975,22.848 -17.135,39.168 -8.16,16.32 -19.992,34.272 -35.497,53.856 -4.488,-2.04 -9.078,-3.774 -13.77,-5.202 -4.691,-1.428 -9.485,-2.142 -14.381,-2.142 z"
             style="fill:#ffffff"
             inkscape:connector-curvature="0" />
        </g>
      </g>
      <g
         id="g4353"
         style="fill:#ffffff" />
      <g
         id="g4355"
         style="fill:#ffffff" />
      <g
         id="g4357"
         style="fill:#ffffff" />
      <g
         id="g4359"
         style="fill:#ffffff" />
      <g
         id="g4361"
         style="fill:#ffffff" />
      <g
         id="g4363"
         style="fill:#ffffff" />
      <g
         id="g4365"
         style="fill:#ffffff" />
      <g
         id="g4367"
         style="fill:#ffffff" />
      <g
         id="g4369"
         style="fill:#ffffff" />
      <g
         id="g4371"
         style="fill:#ffffff" />
      <g
         id="g4373"
         style="fill:#ffffff" />
      <g
         id="g4375"
         style="fill:#ffffff" />
      <g
         id="g4377"
         style="fill:#ffffff" />
      <g
         id="g4379"
         style="fill:#ffffff" />
      <g
         id="g4381"
         style="fill:#ffffff" />
    </g>
  </g>
  <g
     inkscape:groupmode="layer"
     id="layer2"
     inkscape:label="BADGE"
     style="display:none"
     sodipodi:insensitive="true">
    <g
       style="display:inline"
       transform="translate(-340.00001,-581)"
       id="g4394"
       clip-path="none">
      <g
         id="g855">
        <g
           inkscape:groupmode="maskhelper"
           id="g870"
           clip-path="url(#clipPath873)"
           style="opacity:0.6;filter:url(#filter891)">
          <circle
             transform="matrix(1.4999992,0,0,1.4999992,-29.999795,-237.54282)"
             id="path844"
             style="color:#000000;display:inline;overflow:visible;visibility:visible;fill:#000000;fill-opacity:1;fill-rule:nonzero;stroke:none;stroke-width:4;marker:none;enable-background:accumulate"
             cx="252"
             cy="552.36218"
             r="12" />
        </g>
        <g
           id="g862">
          <circle
             style="color:#000000;display:inline;overflow:visible;visibility:visible;fill:#f5f5f5;fill-opacity:1;fill-rule:nonzero;stroke:none;stroke-width:4;marker:none;enable-background:accumulate"
             id="path4398"
             transform="matrix(1.4999992,0,0,1.4999992,-29.999795,-238.54282)"
             cx="252"
             cy="552.36218"
             r="12" />
          <circle
             transform="matrix(1.25,0,0,1.25,33,-100.45273)"
             id="path4400"
             style="color:#000000;display:inline;overflow:visible;visibility:visible;fill:#dd4814;fill-opacity:1;fill-rule:nonzero;stroke:none;stroke-width:4;marker:none;enable-background:accumulate"
             cx="252"
             cy="552.36218"
             r="12" />
          <path
             sodipodi:type="star"
             style="color:#000000;display:inline;overflow:visible;visibility:visible;fill:#f5f5f5;fill-opacity:1;fill-rule:nonzero;stroke:none;stroke-width:3;marker:none;enable-background:accumulate"
             id="path4459"
             sodipodi:sides="5"
             sodipodi:cx="666.19574"
             sodipodi:cy="589.50385"
             sodipodi:r1="7.2431178"
             sodipodi:r2="4.3458705"
             sodipodi:arg1="1.0471976"
             sodipodi:arg2="1.6755161"
             inkscape:flatsided="false"
             inkscape:rounded="0.1"
             inkscape:randomized="0"
             d="m 669.8173,595.77657 c -0.39132,0.22593 -3.62645,-1.90343 -4.07583,-1.95066 -0.44938,-0.0472 -4.05653,1.36297 -4.39232,1.06062 -0.3358,-0.30235 0.68963,-4.03715 0.59569,-4.47913 -0.0939,-0.44198 -2.5498,-3.43681 -2.36602,-3.8496 0.18379,-0.41279 4.05267,-0.59166 4.44398,-0.81759 0.39132,-0.22593 2.48067,-3.48704 2.93005,-3.4398 0.44938,0.0472 1.81505,3.67147 2.15084,3.97382 0.3358,0.30236 4.08294,1.2817 4.17689,1.72369 0.0939,0.44198 -2.9309,2.86076 -3.11469,3.27355 -0.18379,0.41279 0.0427,4.27917 -0.34859,4.5051 z"
             transform="matrix(1.511423,-0.16366377,0.16366377,1.511423,-755.37346,-191.93651)" />
        </g>
      </g>
    </g>
  </g>
</svg>
