<?xml version="1.0" encoding="UTF-8" standalone="no"?>
<!-- Generator: Adobe Illustrator 16.0.4, SVG Export Plug-In . SVG Version: 6.00 Build 0)  -->

<svg
   xmlns:dc="http://purl.org/dc/elements/1.1/"
   xmlns:cc="http://creativecommons.org/ns#"
   xmlns:rdf="http://www.w3.org/1999/02/22-rdf-syntax-ns#"
   xmlns:svg="http://www.w3.org/2000/svg"
   xmlns="http://www.w3.org/2000/svg"
   xmlns:sodipodi="http://sodipodi.sourceforge.net/DTD/sodipodi-0.dtd"
   xmlns:inkscape="http://www.inkscape.org/namespaces/inkscape"
   version="1.1"
   id="AW"
   x="0px"
   y="0px"
   width="32"
   height="32"
   viewBox="0 0 31.999999 31.999999"
   enable-background="new 0 0 1190.55 841.89"
   xml:space="preserve"
   inkscape:version="0.91 r13725"
   sodipodi:docname="type-juju.svg"><metadata
     id="metadata21"><rdf:RDF><cc:Work
         rdf:about=""><dc:format>image/svg+xml</dc:format><dc:type
           rdf:resource="http://purl.org/dc/dcmitype/StillImage" /><dc:title></dc:title></cc:Work></rdf:RDF></metadata><defs
     id="defs19" /><sodipodi:namedview
     pagecolor="#ffffff"
     bordercolor="#666666"
     borderopacity="1"
     objecttolerance="10"
     gridtolerance="10"
     guidetolerance="10"
     inkscape:pageopacity="0"
     inkscape:pageshadow="2"
     inkscape:window-width="1920"
     inkscape:window-height="1056"
     id="namedview17"
     showgrid="false"
     inkscape:zoom="11.313709"
     inkscape:cx="18.980959"
     inkscape:cy="10.927984"
     inkscape:window-x="1280"
     inkscape:window-y="24"
     inkscape:window-maximized="1"
     inkscape:current-layer="g3" /><g
     id="g3"
     transform="translate(0,-809.89001)"><path
       d="m 16,809.89001 c -8.8365123,0 -16,7.16378 -16,16.00024 0,8.83631 7.1634877,15.99976 16,15.99976 8.836671,0 15.999996,-7.16345 15.999996,-15.99976 C 32.000158,817.05379 24.836671,809.89001 16,809.89001 Z m -8.2285213,27.04757 c -0.5470306,0 -0.9905253,-0.4435 -0.9905253,-0.99069 0,-0.54703 0.4434947,-0.99053 0.9905253,-0.99053 0.5470305,0 0.9905253,0.4435 0.9905253,0.99053 0,0.54719 -0.4434948,0.99069 -0.9905253,0.99069 z m 2.2856903,-14.24757 c -0.756198,0 -1.3714462,0.61541 -1.3714462,1.3716 l 0,10.05695 -1.8284884,0 0,-10.05695 c 0,-1.76446 1.4354715,-3.19993 3.2000966,-3.19993 1.764464,0 3.199935,1.43547 3.199935,3.19993 l 0,1.82864 -1.828649,0 0,-1.82864 c 0,-0.3664 -0.142564,-0.71087 -0.401727,-0.96988 -0.258999,-0.25867 -0.603474,-0.40172 -0.969721,-0.40172 z m 7.77148,8.68585 c 0,0.8544 -0.332863,1.65785 -0.937306,2.26244 -0.604443,0.60444 -1.408056,0.93731 -2.262791,0.93731 -1.764463,0 -3.200096,-1.43547 -3.200096,-3.20025 l 0,-4.5712 1.828649,0 0,4.57153 c 0,0.75587 0.615249,1.37127 1.371447,1.37127 0.756198,0 1.371448,-0.6154 1.371448,-1.3716 l 0,-4.5712 1.828488,0 0,4.5717 z m -0.914406,-5.40949 c -0.54703,0 -0.990525,-0.4435 -0.990525,-0.99068 0,-0.54703 0.443495,-0.99051 0.990525,-0.99051 0.547031,0 0.990527,0.44348 0.990527,0.99051 1.6e-4,0.54718 -0.443334,0.99068 -0.990527,0.99068 z m 2.285854,-11.505 c -0.7562,0 -1.371448,0.61541 -1.371448,1.3716 l 0,7.31423 -1.828489,0 0,-7.31423 c 0,-1.76429 1.435633,-3.19992 3.199937,-3.19992 1.764462,0 3.199935,1.43563 3.199935,3.19992 l 0,1.82865 -1.82849,-1.6e-4 0,-1.82849 c 0,-0.36641 -0.142723,-0.71087 -0.401725,-0.96987 -0.259,-0.25868 -0.603314,-0.40173 -0.96972,-0.40173 z m 7.771479,8.68583 c 0,0.85475 -0.332864,1.65835 -0.937306,2.26279 -0.604283,0.6046 -1.407734,0.93715 -2.26263,0.93715 -1.764464,0 -3.200098,-1.43531 -3.200098,-3.19994 l 0,-4.57119 1.82849,0 0,4.57119 c 0,0.75637 0.615247,1.37161 1.371446,1.37161 0.756199,0 1.371286,-0.61508 1.371286,-1.37161 l 0,-4.57119 1.82865,0 0,4.57119 z"
       id="path5"
       inkscape:connector-curvature="0" /></g></svg>