<?xml version="1.0" encoding="UTF-8" ?>
<!DOCTYPE svg PUBLIC "-//W3C//DTD SVG 1.1//EN" "http://www.w3.org/Graphics/SVG/1.1/DTD/svg11.dtd">
<svg width="640pt" height="638pt" viewBox="0 0 640 638" version="1.1" xmlns="http://www.w3.org/2000/svg">
<path fill="#ffffff" d=" M 0.00 0.00 L 312.74 0.00 C 276.50 1.60 240.58 9.86 207.25 24.17 C 171.02 39.69 137.91 62.24 109.68 89.68 C 74.72 123.33 47.17 164.23 27.13 208.32 C 20.34 222.61 11.84 236.27 7.83 251.71 C 2.84 271.88 0.46 292.63 0.00 313.39 L 0.00 0.00 Z" />
<path fill="#05813f" d=" M 312.74 0.00 L 324.51 0.00 C 349.90 0.86 375.19 4.97 399.42 12.65 C 449.73 28.39 495.40 57.29 533.30 93.71 C 558.32 117.88 580.05 145.47 597.45 175.60 C 618.20 211.66 632.75 251.58 637.89 292.96 C 638.96 301.53 639.44 310.15 640.00 318.77 L 640.00 330.54 C 638.46 373.38 628.71 415.96 610.95 455.01 C 595.31 489.71 573.41 521.56 546.71 548.67 C 518.58 576.92 485.10 599.90 448.37 615.45 C 428.38 624.34 406.68 628.39 385.15 631.50 C 363.99 634.21 342.82 637.27 321.47 638.00 L 308.51 638.00 C 288.41 637.14 268.33 634.95 248.73 630.29 C 226.98 625.32 206.02 617.42 185.66 608.40 C 146.47 590.96 110.34 566.31 80.88 535.05 C 68.37 521.42 56.13 507.32 46.69 491.33 C 36.68 474.21 29.46 455.66 23.04 436.96 C 9.85 399.80 0.91 360.87 0.00 321.33 L 0.00 313.39 C 0.46 292.63 2.84 271.88 7.83 251.71 C 11.84 236.27 20.34 222.61 27.13 208.32 C 47.17 164.23 74.72 123.33 109.68 89.68 C 137.91 62.24 171.02 39.69 207.25 24.17 C 240.58 9.86 276.50 1.60 312.74 0.00 Z" />
<path fill="#ffffff" d=" M 324.51 0.00 L 640.00 0.00 L 640.00 318.77 C 639.44 310.15 638.96 301.53 637.89 292.96 C 632.75 251.58 618.20 211.66 597.45 175.60 C 580.05 145.47 558.32 117.88 533.30 93.71 C 495.40 57.29 449.73 28.39 399.42 12.65 C 375.19 4.97 349.90 0.86 324.51 0.00 Z" />
<path fill="#5fbf01" d=" M 308.22 12.28 C 346.90 9.31 385.81 17.56 421.27 32.82 C 461.79 50.32 498.40 76.28 529.58 107.41 C 556.98 134.92 580.39 166.61 597.31 201.61 C 606.96 221.50 614.39 242.52 618.69 264.23 C 632.78 339.47 616.94 419.54 576.45 484.38 C 545.38 534.54 499.34 575.65 445.03 599.05 C 405.20 616.50 361.32 623.71 317.98 622.26 C 272.55 621.10 227.29 610.94 185.88 592.17 C 154.93 578.15 126.56 558.46 102.82 534.15 C 44.10 473.96 11.24 389.05 15.20 304.96 C 17.79 254.63 35.10 205.56 62.46 163.40 C 77.46 140.35 95.49 119.32 115.51 100.48 C 136.57 81.12 159.13 63.06 184.28 49.26 C 222.51 28.68 265.14 16.77 308.22 12.28 Z" />
<path fill="#d4feaa" d=" M 328.39 64.55 C 362.98 62.73 397.78 70.87 428.60 86.47 C 465.54 105.08 497.02 133.57 521.28 166.90 C 547.09 202.36 565.28 243.58 572.76 286.87 C 580.26 329.46 575.60 374.13 559.14 414.15 C 546.04 446.71 525.63 476.07 500.92 500.90 C 485.89 516.10 469.19 529.58 451.61 541.72 C 432.77 554.42 412.51 565.54 390.49 571.57 C 378.76 574.88 366.54 575.58 354.47 576.74 C 327.34 578.80 299.92 579.00 272.95 575.02 C 250.76 571.68 228.81 565.52 208.83 555.16 C 196.63 548.72 185.14 541.00 174.00 532.87 C 136.54 505.19 105.00 468.85 85.46 426.38 C 68.92 390.82 61.58 351.12 63.79 312.00 C 67.68 235.38 106.94 161.40 168.18 115.21 C 181.57 105.02 195.98 96.12 211.39 89.32 C 233.73 79.29 257.79 73.70 281.92 70.03 C 297.36 67.86 312.81 65.42 328.39 64.55 Z" />
<path fill="#8ed944" d=" M 305.24 80.27 C 316.48 79.78 327.74 80.03 338.99 80.03 C 350.24 80.55 361.59 81.97 372.27 85.72 C 378.63 88.00 384.98 91.20 389.34 96.52 C 393.16 101.05 394.40 107.31 393.68 113.09 C 392.63 121.53 388.98 129.31 386.54 137.39 C 378.60 163.91 370.98 190.63 360.19 216.17 C 352.79 232.62 347.64 250.04 339.20 266.02 C 336.65 270.69 333.94 275.39 330.05 279.08 C 328.16 280.83 325.68 282.48 322.97 281.95 C 319.84 281.19 317.69 278.51 315.97 275.97 C 303.05 254.65 299.20 229.62 290.31 206.64 C 280.95 181.36 275.58 154.87 268.17 129.00 C 266.04 122.06 262.44 115.39 262.32 107.98 C 262.33 100.32 267.76 93.98 273.54 89.56 C 282.65 82.86 294.23 81.05 305.24 80.27 Z" />
<path fill="#8ed944" d=" M 209.36 122.45 C 217.07 120.43 226.15 121.08 232.22 126.75 C 240.07 133.96 242.89 144.63 246.79 154.18 C 259.84 186.13 275.59 216.88 289.60 248.40 C 293.48 256.94 296.98 265.75 298.75 275.00 C 299.44 279.80 300.06 285.12 297.67 289.57 C 295.82 292.96 291.66 293.90 288.09 293.78 C 274.46 293.51 261.10 290.17 248.29 285.71 C 217.35 274.75 188.96 257.93 160.97 241.04 C 151.69 235.53 141.82 230.59 134.12 222.87 C 130.56 219.21 127.30 214.31 128.32 208.96 C 129.87 200.33 135.45 193.27 139.87 185.94 C 149.71 169.65 162.05 154.88 176.21 142.18 C 185.92 133.72 196.73 125.80 209.36 122.45 Z" />
<path fill="#8ed944" d=" M 442.44 127.63 C 452.20 126.40 461.86 129.99 470.15 134.87 C 483.43 142.88 494.46 154.42 502.46 167.66 C 508.42 177.83 513.14 189.81 510.80 201.77 C 508.15 212.02 500.89 220.36 492.98 227.06 C 478.18 239.36 460.35 246.99 444.00 256.89 C 421.57 270.25 399.93 285.53 375.17 294.38 C 369.59 296.10 363.54 298.03 357.72 296.36 C 353.59 295.23 351.20 291.04 350.86 286.99 C 349.97 279.62 352.91 272.54 355.89 265.98 C 358.98 259.48 362.53 253.20 365.53 246.66 C 379.06 217.95 395.86 190.97 411.48 163.40 C 416.60 153.97 420.11 143.47 427.38 135.36 C 431.21 131.01 436.73 128.38 442.44 127.63 Z" />
<path fill="#8ed944" d=" M 522.25 256.34 C 527.91 254.86 533.55 257.64 537.82 261.17 C 545.69 267.78 552.00 276.79 553.66 287.10 C 557.37 307.85 556.61 329.39 551.86 349.91 C 549.15 360.14 545.18 370.91 536.64 377.71 C 533.02 380.46 528.55 382.16 523.98 382.12 C 506.44 382.48 489.07 378.80 472.42 373.53 C 448.54 365.95 425.98 354.95 403.03 345.02 C 393.83 341.31 383.97 338.89 375.59 333.37 C 372.06 330.98 368.44 327.55 368.43 322.96 C 368.52 318.14 372.25 314.47 375.90 311.81 C 384.74 305.55 395.24 302.41 405.06 298.07 C 437.06 284.38 469.24 270.04 503.64 263.51 C 510.19 262.05 515.73 257.87 522.25 256.34 Z" />
<path fill="#8ed944" d=" M 121.47 257.61 C 128.17 256.92 134.93 257.92 141.44 259.51 C 154.84 262.94 167.36 268.96 180.38 273.52 C 196.67 279.32 213.37 284.00 229.31 290.74 C 234.47 292.84 239.38 295.51 244.61 297.46 C 252.17 300.33 260.05 302.72 266.87 307.20 C 270.52 309.66 274.12 313.30 274.17 318.00 C 274.43 322.53 271.47 326.46 268.16 329.23 C 263.01 333.41 256.90 336.13 250.95 338.93 C 244.61 341.82 238.59 345.35 232.38 348.50 C 203.99 362.66 173.91 373.19 143.30 381.38 C 133.31 383.87 122.39 385.35 112.54 381.49 C 104.72 378.53 99.01 371.65 95.98 364.03 C 91.57 352.93 90.67 340.86 90.21 329.05 C 90.11 314.50 89.76 299.71 93.37 285.50 C 95.45 277.62 98.87 269.69 105.12 264.23 C 109.62 260.23 115.54 258.17 121.47 257.61 Z" />
<path fill="#ffffff" d=" M 0.00 321.33 C 0.91 360.87 9.85 399.80 23.04 436.96 C 29.46 455.66 36.68 474.21 46.69 491.33 C 56.13 507.32 68.37 521.42 80.88 535.05 C 110.34 566.31 146.47 590.96 185.66 608.40 C 206.02 617.42 226.98 625.32 248.73 630.29 C 268.33 634.95 288.41 637.14 308.51 638.00 L 0.00 638.00 L 0.00 321.33 Z" />
<path fill="#ffffff" d=" M 610.95 455.01 C 628.71 415.96 638.46 373.38 640.00 330.54 L 640.00 638.00 L 321.47 638.00 C 342.82 637.27 363.99 634.21 385.15 631.50 C 406.68 628.39 428.38 624.34 448.37 615.45 C 485.10 599.90 518.58 576.92 546.71 548.67 C 573.41 521.56 595.31 489.71 610.95 455.01 Z" />
<path fill="#8ed944" d=" M 279.40 343.63 C 283.78 342.81 289.19 342.99 292.22 346.78 C 295.92 351.65 295.29 358.26 294.19 363.92 C 292.42 373.39 287.51 381.78 283.32 390.33 C 268.29 419.76 251.86 448.46 236.89 477.93 C 232.32 486.84 228.08 496.02 221.88 503.95 C 217.65 509.22 212.13 514.53 205.02 515.03 C 191.66 516.05 178.81 510.33 168.02 502.93 C 154.14 493.18 142.31 479.84 136.22 463.86 C 132.67 454.41 131.70 443.47 136.06 434.11 C 141.26 423.27 149.83 414.46 159.04 406.91 C 184.30 386.60 214.66 374.43 243.68 360.67 C 255.63 355.11 266.18 346.14 279.40 343.63 Z" />
<path fill="#8ed944" d=" M 357.40 351.52 C 364.55 349.22 371.88 352.26 378.89 353.72 C 397.98 357.64 416.14 365.02 433.64 373.46 C 453.51 383.19 474.82 389.86 494.01 401.00 C 503.11 406.51 512.56 412.98 517.24 422.89 C 520.98 431.56 516.91 441.01 512.88 448.79 C 501.14 469.57 483.59 486.25 465.53 501.52 C 457.68 508.20 449.68 515.22 439.85 518.78 C 433.46 521.05 425.59 521.39 420.02 516.97 C 413.57 511.80 411.03 503.58 407.52 496.42 C 398.90 478.55 390.76 460.46 382.56 442.40 C 375.96 427.80 368.60 413.56 362.21 398.87 C 357.55 387.34 352.44 375.56 351.85 362.97 C 351.51 358.58 352.88 353.25 357.40 351.52 Z" />
<path fill="#8ed944" d=" M 318.23 366.36 C 323.32 364.35 328.96 366.72 332.22 370.82 C 340.09 380.24 342.59 392.62 347.34 403.67 C 362.37 437.66 374.24 472.97 384.19 508.76 C 386.94 519.07 390.44 530.54 385.96 540.87 C 382.04 549.45 372.31 552.48 363.95 554.87 C 340.46 560.67 315.79 558.34 292.30 553.75 C 282.72 551.49 272.72 549.91 264.02 545.04 C 259.37 542.52 255.52 538.19 254.44 532.91 C 251.94 521.32 254.82 509.41 258.38 498.36 C 264.94 478.55 275.29 460.29 282.90 440.91 C 289.62 421.30 293.21 400.48 303.05 382.04 C 306.64 375.70 311.10 369.00 318.23 366.36 Z" />
</svg>
