<?xml version="1.0" encoding="UTF-8" standalone="no"?>
<!-- Created with Inkscape (http://www.inkscape.org/) -->

<svg
   xmlns:dc="http://purl.org/dc/elements/1.1/"
   xmlns:cc="http://creativecommons.org/ns#"
   xmlns:rdf="http://www.w3.org/1999/02/22-rdf-syntax-ns#"
   xmlns:svg="http://www.w3.org/2000/svg"
   xmlns="http://www.w3.org/2000/svg"
   xmlns:sodipodi="http://sodipodi.sourceforge.net/DTD/sodipodi-0.dtd"
   xmlns:inkscape="http://www.inkscape.org/namespaces/inkscape"
   width="96"
   height="96"
   id="svg6517"
   version="1.1"
   inkscape:version="0.91 r13725"
   sodipodi:docname="icon.svg">
  <defs
     id="defs6519">
    <linearGradient
       id="Background">
      <stop
         id="stop4178"
         offset="0"
         style="stop-color:#b8b8b8;stop-opacity:1" />
      <stop
         id="stop4180"
         offset="1"
         style="stop-color:#c9c9c9;stop-opacity:1" />
    </linearGradient>
    <filter
       style="color-interpolation-filters:sRGB;"
       inkscape:label="Inner Shadow"
       id="filter1121">
      <feFlood
         flood-opacity="0.59999999999999998"
         flood-color="rgb(0,0,0)"
         result="flood"
         id="feFlood1123" />
      <feComposite
         in="flood"
         in2="SourceGraphic"
         operator="out"
         result="composite1"
         id="feComposite1125" />
      <feGaussianBlur
         in="composite1"
         stdDeviation="1"
         result="blur"
         id="feGaussianBlur1127" />
      <feOffset
         dx="0"
         dy="2"
         result="offset"
         id="feOffset1129" />
      <feComposite
         in="offset"
         in2="SourceGraphic"
         operator="atop"
         result="composite2"
         id="feComposite1131" />
    </filter>
    <filter
       style="color-interpolation-filters:sRGB;"
       inkscape:label="Drop Shadow"
       id="filter950">
      <feFlood
         flood-opacity="0.25"
         flood-color="rgb(0,0,0)"
         result="flood"
         id="feFlood952" />
      <feComposite
         in="flood"
         in2="SourceGraphic"
         operator="in"
         result="composite1"
         id="feComposite954" />
      <feGaussianBlur
         in="composite1"
         stdDeviation="1"
         result="blur"
         id="feGaussianBlur956" />
      <feOffset
         dx="0"
         dy="1"
         result="offset"
         id="feOffset958" />
      <feComposite
         in="SourceGraphic"
         in2="offset"
         operator="over"
         result="composite2"
         id="feComposite960" />
    </filter>
    <clipPath
       clipPathUnits="userSpaceOnUse"
       id="clipPath873">
      <g
         transform="matrix(0,-0.66666667,0.66604479,0,-258.25992,677.00001)"
         id="g875"
         inkscape:label="Layer 1"
         style="fill:#ff00ff;fill-opacity:1;stroke:none;display:inline">
        <path
           style="fill:#ff00ff;fill-opacity:1;stroke:none;display:inline"
           d="m 46.702703,898.22775 50.594594,0 C 138.16216,898.22775 144,904.06497 144,944.92583 l 0,50.73846 c 0,40.86071 -5.83784,46.69791 -46.702703,46.69791 l -50.594594,0 C 5.8378378,1042.3622 0,1036.525 0,995.66429 L 0,944.92583 C 0,904.06497 5.8378378,898.22775 46.702703,898.22775 Z"
           id="path877"
           inkscape:connector-curvature="0"
           sodipodi:nodetypes="sssssssss" />
      </g>
    </clipPath>
    <filter
       inkscape:collect="always"
       id="filter891"
       inkscape:label="Badge Shadow">
      <feGaussianBlur
         inkscape:collect="always"
         stdDeviation="0.71999962"
         id="feGaussianBlur893" />
    </filter>
    <clipPath
       clipPathUnits="userSpaceOnUse"
       id="clipPath18">
      <path
         d="M 0,580 650,580 650,0 0,0 0,580 Z"
         id="path20"
         inkscape:connector-curvature="0" />
    </clipPath>
  </defs>
  <sodipodi:namedview
     id="base"
     pagecolor="#ffffff"
     bordercolor="#666666"
     borderopacity="1.0"
     inkscape:pageopacity="0.0"
     inkscape:pageshadow="2"
     inkscape:zoom="11.524529"
     inkscape:cx="48.122302"
     inkscape:cy="48.761601"
     inkscape:document-units="px"
     inkscape:current-layer="layer3"
     showgrid="true"
     fit-margin-top="0"
     fit-margin-left="0"
     fit-margin-right="0"
     fit-margin-bottom="0"
     inkscape:window-width="1920"
     inkscape:window-height="1056"
     inkscape:window-x="1280"
     inkscape:window-y="24"
     inkscape:window-maximized="1"
     showborder="true"
     showguides="true"
     inkscape:guide-bbox="true"
     inkscape:showpageshadow="false">
    <inkscape:grid
       type="xygrid"
       id="grid821" />
    <sodipodi:guide
       orientation="1,0"
       position="16,48"
       id="guide823" />
    <sodipodi:guide
       orientation="0,1"
       position="64,80"
       id="guide825" />
    <sodipodi:guide
       orientation="1,0"
       position="80,40"
       id="guide827" />
    <sodipodi:guide
       orientation="0,1"
       position="64,16"
       id="guide829" />
  </sodipodi:namedview>
  <metadata
     id="metadata6522">
    <rdf:RDF>
      <cc:Work
         rdf:about="">
        <dc:format>image/svg+xml</dc:format>
        <dc:type
           rdf:resource="http://purl.org/dc/dcmitype/StillImage" />
        <dc:title />
      </cc:Work>
    </rdf:RDF>
  </metadata>
  <g
     inkscape:label="BACKGROUND"
     inkscape:groupmode="layer"
     id="layer1"
     transform="translate(268,-635.29076)"
     style="display:inline">
    <path
       style="fill:none;fill-opacity:1;stroke:none;display:inline;filter:url(#filter1121)"
       d="m -268,700.15563 0,-33.72973 c 0,-27.24324 3.88785,-31.13513 31.10302,-31.13513 l 33.79408,0 c 27.21507,0 31.1029,3.89189 31.1029,31.13513 l 0,33.72973 c 0,27.24325 -3.88783,31.13514 -31.1029,31.13514 l -33.79408,0 C -264.11215,731.29077 -268,727.39888 -268,700.15563 Z"
       id="path6455"
       inkscape:connector-curvature="0"
       sodipodi:nodetypes="sssssssss" />
  </g>
  <g
     inkscape:groupmode="layer"
     id="layer3"
     inkscape:label="PLACE YOUR PICTOGRAM HERE"
     style="display:inline">
    <g
       id="g14"
       transform="matrix(0.13407174,0,0,-0.13407174,4.2104369,87.100276)">
      <g
         id="g16"
         clip-path="url(#clipPath18)">
        <g
           id="g22"
           transform="translate(160.1055,167.1387)">
          <path
             d="m 0,0 0,30.553 c 0,4.011 2.51,7.238 6.664,7.238 l 1.152,0 c 4.155,0 6.653,-3.228 6.653,-7.238 l 0,-64.321 c 0,-15.685 -7.75,-28.164 -21.252,-36.115 -6.262,-3.683 -13.18,-5.574 -20.438,-5.574 l -2.869,0 c -15.687,0 -28.152,7.756 -36.115,21.25 -3.695,6.266 -5.572,13.174 -5.572,20.439 l 0,2.868 c 0,15.689 7.754,28.162 21.246,36.127 6.265,3.699 13.174,5.574 20.441,5.574 l 2.869,0 C -16.604,10.801 -7.596,6.686 0,0 m -57.311,-32.332 c 0,-11.33 5.493,-19.848 15.42,-25.279 4.014,-2.198 8.373,-3.377 12.953,-3.377 11.122,0 19.37,5.246 25.059,14.67 2.647,4.384 3.879,9.179 3.879,14.279 0,9.822 -4.65,17.486 -12.564,23.18 -4.799,3.451 -10.202,5.181 -16.092,5.181 -12.121,0 -20.844,-6.123 -26.08,-17.002 -1.768,-3.677 -2.575,-7.584 -2.575,-11.652 m 121.973,43.133 2.006,0 c 16.764,0 29.512,-8.133 37.592,-22.766 3.23,-5.853 4.959,-12.242 4.959,-18.935 l 0,-2.868 c 0,-15.683 -7.735,-28.181 -21.258,-36.117 -6.262,-3.672 -13.178,-5.572 -20.434,-5.572 l -2.865,0 c -15.687,0 -28.154,7.756 -36.115,21.25 -3.695,6.266 -5.576,13.174 -5.576,20.439 l 0,2.868 c 0,15.691 7.783,28.123 21.242,36.123 6.258,3.718 13.178,5.578 20.449,5.578 M 37.438,-32.332 c 0,-10.998 5.398,-19.088 14.687,-24.775 4.361,-2.672 9.164,-3.881 14.262,-3.881 10.867,0 18.898,5.509 24.49,14.681 2.666,4.373 3.871,9.176 3.871,14.268 0,10.226 -4.926,18.039 -13.346,23.701 -4.615,3.106 -9.752,4.66 -15.308,4.66 -12.121,0 -20.844,-6.123 -26.078,-17.002 -1.772,-3.677 -2.578,-7.584 -2.578,-11.652 m 131.929,27.498 c -2.183,1.023 -6.273,1.363 -8.635,1.453 -12.087,0.455 -20.834,-6.351 -25.964,-17.015 -1.772,-3.678 -2.58,-7.573 -2.58,-11.643 0,-12.393 6.505,-21.068 17.568,-26.357 4.041,-1.932 9.258,-2.299 13.674,-2.299 3.884,0 9.373,2.381 12.82,4.017 l 0.598,0.283 2.673,0 0.295,-0.06 c 3.291,-0.684 5.776,-2.77 5.776,-6.311 l 0,-1.431 c 0,-8.809 -16.1,-10.826 -22.242,-11.254 -21.678,-1.502 -37.891,10.404 -44.073,31.082 -1.074,3.59 -1.556,7.156 -1.556,10.898 l 0,2.864 c 0,15.689 7.785,28.117 21.242,36.111 6.258,3.717 13.178,5.582 20.447,5.582 l 2.867,0 c 7.711,0 14.815,-2.19 21.182,-6.539 l 0.523,-0.361 0.331,-0.545 C 185,2.5 185.592,1.184 185.592,-0.174 l 0,-1.431 c 0,-3.694 -2.764,-5.68 -6.1,-6.323 l -0.275,-0.049 -0.856,0 c -2.16,0 -7.066,2.237 -8.994,3.143 m 46.93,-9.797 c 5.619,5.627 11.26,11.244 16.963,16.779 1.59,1.543 7.607,8.079 9.976,8.079 l 2.592,0 0.295,-0.061 c 3.301,-0.686 5.773,-2.775 5.773,-6.322 l 0,-1.432 c 0,-2.42 -2.833,-5.23 -4.396,-6.887 -3.324,-3.523 -6.824,-6.931 -10.227,-10.382 l -17.478,-17.745 c 7.525,-7.543 15.045,-15.093 22.51,-22.695 2.064,-2.101 4.131,-4.207 6.164,-6.34 0.719,-0.756 1.779,-1.697 2.383,-2.746 0.646,-0.98 1.044,-2.088 1.044,-3.269 l 0,-1.496 -0.083,-0.344 c -0.813,-3.301 -2.909,-5.965 -6.567,-5.965 l -1.15,0 c -2.395,0 -5.098,2.709 -6.739,4.256 -3.377,3.185 -6.64,6.535 -9.953,9.789 l -11.107,10.904 0,-17.428 c 0,-4.013 -2.514,-7.24 -6.664,-7.24 l -1.141,0 c -4.154,0 -6.664,3.227 -6.664,7.24 l 0,98.207 c 0,4.016 2.512,7.227 6.664,7.227 l 1.141,0 c 4.15,0 6.664,-3.211 6.664,-7.227 l 0,-44.902 z m 180.328,24.858 1.436,0 c 4.339,0 7.236,-2.924 7.236,-7.239 0,-5.99 -5.727,-7.523 -10.682,-7.523 -6.498,0 -12.701,-3.934 -17.179,-8.346 -5.586,-5.506 -8.032,-12.558 -8.032,-20.31 l 0,-35.028 c 0,-4.015 -2.506,-7.238 -6.666,-7.238 l -1.14,0 c -4.159,0 -6.664,3.223 -6.664,7.238 l 0,37.037 c 0,14.223 6.923,25.832 18.464,33.975 6.895,4.865 14.788,7.434 23.227,7.434 M 293.789,-59.188 c 5.266,-1.837 11.27,-1.576 16.672,-0.634 2.762,1.174 9.828,4.256 12.428,3.804 l 0.406,-0.068 0.373,-0.184 c 1.586,-0.769 3.102,-1.857 3.91,-3.47 1.895,-3.787 0.985,-7.592 -2.734,-9.74 l -1.239,-0.715 c -13.724,-7.922 -28.322,-6.825 -42.001,0.574 -6.541,3.535 -11.545,8.785 -15.237,15.183 l -0.863,1.497 c -8.811,15.257 -7.621,31.308 2.314,45.818 3.432,5.016 7.914,8.891 13.157,11.92 l 1.982,1.144 c 12.926,7.461 26.777,6.952 40.053,0.403 7.136,-3.522 12.92,-8.772 16.904,-15.674 l 0.717,-1.242 c 2.894,-5.016 -0.856,-9.387 -4.727,-12.373 -4.492,-3.467 -9.027,-7.637 -13.334,-11.354 -9.599,-8.287 -19.185,-16.594 -28.781,-24.889 m -12.426,8.727 c 10.739,9.207 21.479,18.42 32.186,27.664 3.658,3.156 7.672,6.432 11.303,9.75 -2.914,3.67 -7.78,6.317 -11.914,7.895 -8.344,3.179 -16.575,2.111 -24.227,-2.307 -10.02,-5.783 -14.285,-14.996 -13.91,-26.459 0.146,-4.514 1.361,-8.863 3.758,-12.705 0.843,-1.354 1.787,-2.625 2.804,-3.838"
             style="fill:#394d54;fill-opacity:1;fill-rule:evenodd;stroke:none"
             id="path24"
             inkscape:connector-curvature="0" />
        </g>
        <g
           id="g26"
           transform="translate(363.3867,406.6094)">
          <path
             d="m 0,0 42.695,0 0,-43.646 21.588,0 c 9.969,0 20.223,1.777 29.664,4.976 4.639,1.572 9.846,3.762 14.422,6.515 -6.027,7.869 -9.103,17.804 -10.01,27.598 -1.23,13.322 1.457,30.661 10.473,41.086 l 4.488,5.192 5.348,-4.299 c 13.465,-10.818 24.789,-25.935 26.785,-43.166 16.213,4.768 35.248,3.64 49.539,-4.608 l 5.863,-3.382 -3.085,-6.024 c -12.086,-23.588 -37.354,-30.894 -62.057,-29.601 -36.965,-92.069 -117.442,-135.657 -215.02,-135.657 -50.412,0 -96.664,18.846 -123.002,63.573 l -0.431,0.73 -3.838,7.807 c -8.902,19.687 -11.86,41.256 -9.854,62.805 l 0.602,6.455 36.51,0 0,43.646 42.693,0 0,42.695 85.393,0 0,42.696 L 0,85.391 0,0 Z"
             style="fill:#394d54;fill-opacity:1;fill-rule:evenodd;stroke:none"
             id="path28"
             inkscape:connector-curvature="0" />
        </g>
        <g
           id="g30"
           transform="translate(501.7129,390.4629)">
          <path
             d="m 0,0 c 2.863,22.248 -13.787,39.725 -24.113,48.021 -11.899,-13.757 -13.748,-49.812 4.92,-64.992 -10.418,-9.254 -32.371,-17.642 -54.85,-17.642 l -273.627,0 c -2.185,-23.465 1.934,-45.073 11.342,-63.569 l 3.113,-5.693 c 1.971,-3.345 4.124,-6.573 6.451,-9.681 l 0.001,0 c 11.249,-0.722 21.621,-0.972 31.11,-0.762 l 0.005,0 c 18.647,0.413 33.862,2.613 45.394,6.609 1.717,0.597 3.588,-0.313 4.182,-2.029 0.593,-1.715 -0.315,-3.587 -2.03,-4.182 -1.533,-0.531 -3.132,-1.028 -4.783,-1.5 -0.002,-0.001 -0.004,-0.001 -0.006,-0.002 -9.08,-2.592 -18.816,-4.337 -31.379,-5.112 0.745,-0.012 -0.777,-0.112 -0.781,-0.112 -0.427,-0.027 -0.965,-0.087 -1.394,-0.112 -4.944,-0.277 -10.281,-0.335 -15.737,-0.335 -5.966,0 -11.844,0.114 -18.414,0.447 l -0.168,-0.112 c 22.799,-25.625 58.448,-40.994 103.131,-40.994 94.57,0 174.785,41.922 210.305,136.039 25.201,-2.586 49.42,3.84 60.437,25.346 C 35.561,9.76 12.994,6.531 0,0"
             style="fill:#00aada;fill-opacity:1;fill-rule:nonzero;stroke:none"
             id="path32"
             inkscape:connector-curvature="0" />
        </g>
        <g
           id="g34"
           transform="translate(501.7129,390.4629)">
          <path
             d="m 0,0 c 2.863,22.248 -13.787,39.725 -24.113,48.021 -11.899,-13.757 -13.748,-49.812 4.92,-64.992 -10.418,-9.254 -32.371,-17.642 -54.85,-17.642 l -257.424,0 c -1.117,-35.936 12.219,-63.214 35.814,-79.705 l 0.005,0 c 18.647,0.413 33.862,2.613 45.394,6.609 1.717,0.597 3.588,-0.313 4.182,-2.029 0.593,-1.715 -0.315,-3.587 -2.03,-4.182 -1.533,-0.531 -3.132,-1.028 -4.783,-1.5 -0.002,-0.001 -0.004,-0.001 -0.006,-0.002 -9.08,-2.592 -19.653,-4.56 -32.215,-5.336 -0.004,0 -0.305,0.291 -0.309,0.29 32.185,-16.509 78.852,-16.45 132.356,4.103 C -93.064,-93.318 -37.24,-49.408 1.713,0.814 1.125,0.549 0.553,0.277 0,0"
             style="fill:#24b8eb;fill-opacity:1;fill-rule:nonzero;stroke:none"
             id="path36"
             inkscape:connector-curvature="0" />
        </g>
        <g
           id="g38"
           transform="translate(154.5547,327.3398)">
          <path
             d="m 0,0 c 1.701,-12.568 5.377,-24.338 10.83,-35.059 l 3.113,-5.693 c 1.971,-3.345 4.124,-6.573 6.453,-9.681 11.25,-0.722 21.624,-0.972 31.114,-0.762 18.647,0.413 33.862,2.613 45.394,6.609 1.717,0.597 3.588,-0.313 4.182,-2.029 0.594,-1.715 -0.315,-3.587 -2.029,-4.182 -1.534,-0.531 -3.133,-1.028 -4.784,-1.5 -0.002,-0.001 -0.003,-0.001 -0.005,-0.002 -9.08,-2.592 -19.598,-4.449 -32.161,-5.224 -0.43,-0.027 -1.183,-0.032 -1.618,-0.056 -4.942,-0.277 -10.223,-0.446 -15.68,-0.446 -5.966,0 -12.068,0.113 -18.637,0.446 22.799,-25.625 58.67,-41.05 103.353,-41.05 80.961,0 151.399,30.731 192.282,98.629 L 0,0 Z"
             style="fill:#008bb8;fill-opacity:1;fill-rule:nonzero;stroke:none"
             id="path40"
             inkscape:connector-curvature="0" />
        </g>
        <g
           id="g42"
           transform="translate(172.709,327.3398)">
          <path
             d="m 0,0 c 4.84,-22.069 16.471,-39.395 33.355,-51.195 18.648,0.413 33.863,2.613 45.395,6.609 1.717,0.597 3.588,-0.313 4.182,-2.029 0.593,-1.715 -0.315,-3.587 -2.03,-4.182 -1.533,-0.531 -3.132,-1.028 -4.783,-1.5 -0.002,-0.001 -0.004,-0.001 -0.006,-0.002 -9.08,-2.592 -19.82,-4.449 -32.383,-5.224 32.182,-16.507 78.715,-16.27 132.215,4.281 32.366,12.435 63.516,30.947 91.463,53.242 L 0,0 Z"
             style="fill:#039bc6;fill-opacity:1;fill-rule:nonzero;stroke:none"
             id="path44"
             inkscape:connector-curvature="0" />
        </g>
        <path
           d="m 191.182,399.494 37.002,0 0,-37.004 -37.002,0 0,37.004 z m 3.082,-3.084 2.92,0 0,-30.838 -2.92,0 0,30.838 z m 5.49,0 3.037,0 0,-30.838 -3.037,0 0,30.838 z m 5.605,0 3.037,0 0,-30.838 -3.037,0 0,30.838 z m 5.608,0 3.037,0 0,-30.838 -3.037,0 0,30.838 z m 5.607,0 3.037,0 0,-30.838 -3.037,0 0,30.838 z m 5.606,0 2.922,0 0,-30.838 -2.922,0 0,30.838 z"
           style="fill:#00acd3;fill-opacity:1;fill-rule:evenodd;stroke:none"
           id="path46"
           inkscape:connector-curvature="0" />
        <path
           d="m 233.875,442.189 37.006,0 0,-37.003 -37.006,0 0,37.003 z m 3.086,-3.084 2.918,0 0,-30.836 -2.918,0 0,30.836 z m 5.49,0 3.035,0 0,-30.836 -3.035,0 0,30.836 z m 5.604,0 3.037,0 0,-30.836 -3.037,0 0,30.836 z m 5.607,0 3.037,0 0,-30.836 -3.037,0 0,30.836 z m 5.608,0 3.037,0 0,-30.836 -3.037,0 0,30.836 z m 5.605,0 2.924,0 0,-30.836 -2.924,0 0,30.836 z"
           style="fill:#00acd3;fill-opacity:1;fill-rule:evenodd;stroke:none"
           id="path48"
           inkscape:connector-curvature="0" />
        <path
           d="m 233.875,399.494 37.006,0 0,-37.004 -37.006,0 0,37.004 z m 3.086,-3.084 2.918,0 0,-30.838 -2.918,0 0,30.838 z m 5.49,0 3.035,0 0,-30.838 -3.035,0 0,30.838 z m 5.604,0 3.037,0 0,-30.838 -3.037,0 0,30.838 z m 5.607,0 3.037,0 0,-30.838 -3.037,0 0,30.838 z m 5.608,0 3.037,0 0,-30.838 -3.037,0 0,30.838 z m 5.605,0 2.924,0 0,-30.838 -2.924,0 0,30.838 z"
           style="fill:#20c2ef;fill-opacity:1;fill-rule:evenodd;stroke:none"
           id="path50"
           inkscape:connector-curvature="0" />
        <path
           d="m 276.572,399.494 37.004,0 0,-37.004 -37.004,0 0,37.004 z m 3.084,-3.084 2.918,0 0,-30.838 -2.918,0 0,30.838 z m 5.489,0 3.037,0 0,-30.838 -3.037,0 0,30.838 z m 5.607,0 3.037,0 0,-30.838 -3.037,0 0,30.838 z m 5.607,0 3.037,0 0,-30.838 -3.037,0 0,30.838 z m 5.606,0 3.039,0 0,-30.838 -3.039,0 0,30.838 z m 5.607,0 2.92,0 0,-30.838 -2.92,0 0,30.838 z"
           style="fill:#00acd3;fill-opacity:1;fill-rule:evenodd;stroke:none"
           id="path52"
           inkscape:connector-curvature="0" />
        <path
           d="m 276.572,442.189 37.004,0 0,-37.003 -37.004,0 0,37.003 z m 3.084,-3.084 2.918,0 0,-30.836 -2.918,0 0,30.836 z m 5.489,0 3.037,0 0,-30.836 -3.037,0 0,30.836 z m 5.607,0 3.037,0 0,-30.836 -3.037,0 0,30.836 z m 5.607,0 3.037,0 0,-30.836 -3.037,0 0,30.836 z m 5.606,0 3.039,0 0,-30.836 -3.039,0 0,30.836 z m 5.607,0 2.92,0 0,-30.836 -2.92,0 0,30.836 z"
           style="fill:#20c2ef;fill-opacity:1;fill-rule:evenodd;stroke:none"
           id="path54"
           inkscape:connector-curvature="0" />
        <path
           d="m 319.268,399.494 37.004,0 0,-37.004 -37.004,0 0,37.004 z m 3.084,-3.084 2.92,0 0,-30.838 -2.92,0 0,30.838 z m 5.49,0 3.037,0 0,-30.838 -3.037,0 0,30.838 z m 5.605,0 3.037,0 0,-30.838 -3.037,0 0,30.838 z m 5.608,0 3.037,0 0,-30.838 -3.037,0 0,30.838 z m 5.607,0 3.037,0 0,-30.838 -3.037,0 0,30.838 z m 5.606,0 2.922,0 0,-30.838 -2.922,0 0,30.838 z"
           style="fill:#20c2ef;fill-opacity:1;fill-rule:evenodd;stroke:none"
           id="path56"
           inkscape:connector-curvature="0" />
        <path
           d="m 319.268,442.189 37.004,0 0,-37.003 -37.004,0 0,37.003 z m 3.084,-3.084 2.92,0 0,-30.836 -2.92,0 0,30.836 z m 5.49,0 3.037,0 0,-30.836 -3.037,0 0,30.836 z m 5.605,0 3.037,0 0,-30.836 -3.037,0 0,30.836 z m 5.608,0 3.037,0 0,-30.836 -3.037,0 0,30.836 z m 5.607,0 3.037,0 0,-30.836 -3.037,0 0,30.836 z m 5.606,0 2.922,0 0,-30.836 -2.922,0 0,30.836 z"
           style="fill:#00acd3;fill-opacity:1;fill-rule:evenodd;stroke:none"
           id="path58"
           inkscape:connector-curvature="0" />
        <path
           d="m 319.268,484.885 37.004,0 0,-37.004 -37.004,0 0,37.004 z m 3.084,-3.082 2.92,0 0,-30.838 -2.92,0 0,30.838 z m 5.49,0 3.037,0 0,-30.838 -3.037,0 0,30.838 z m 5.605,0 3.037,0 0,-30.838 -3.037,0 0,30.838 z m 5.608,0 3.037,0 0,-30.838 -3.037,0 0,30.838 z m 5.607,0 3.037,0 0,-30.838 -3.037,0 0,30.838 z m 5.606,0 2.922,0 0,-30.838 -2.922,0 0,30.838 z"
           style="fill:#20c2ef;fill-opacity:1;fill-rule:evenodd;stroke:none"
           id="path60"
           inkscape:connector-curvature="0" />
        <path
           d="m 361.963,399.494 37.004,0 0,-37.004 -37.004,0 0,37.004 z m 3.082,-3.084 2.922,0 0,-30.838 -2.922,0 0,30.838 z m 5.49,0 3.037,0 0,-30.838 -3.037,0 0,30.838 z m 5.608,0 3.037,0 0,-30.838 -3.037,0 0,30.838 z m 5.605,0 3.037,0 0,-30.838 -3.037,0 0,30.838 z m 5.609,0 3.035,0 0,-30.838 -3.035,0 0,30.838 z m 5.606,0 2.92,0 0,-30.838 -2.92,0 0,30.838 z"
           style="fill:#00acd3;fill-opacity:1;fill-rule:evenodd;stroke:none"
           id="path62"
           inkscape:connector-curvature="0" />
        <g
           id="g64"
           transform="translate(268.5645,302.4961)">
          <path
             d="m 0,0 c 5.637,0 10.207,-4.572 10.207,-10.209 0,-5.637 -4.57,-10.207 -10.207,-10.207 -5.639,0 -10.209,4.57 -10.209,10.207 C -10.209,-4.572 -5.639,0 0,0"
             style="fill:#d4edf1;fill-opacity:1;fill-rule:evenodd;stroke:none"
             id="path66"
             inkscape:connector-curvature="0" />
        </g>
        <g
           id="g68"
           transform="translate(268.5645,299.5996)">
          <path
             d="M 0,0 C 0.934,0 1.824,-0.176 2.646,-0.494 1.756,-1.01 1.152,-1.975 1.152,-3.078 c 0,-1.649 1.336,-2.983 2.985,-2.983 1.129,0 2.109,0.627 2.617,1.553 0.357,-0.863 0.557,-1.81 0.557,-2.805 0,-4.037 -3.274,-7.31 -7.311,-7.31 -4.037,0 -7.313,3.273 -7.313,7.31 C -7.313,-3.273 -4.037,0 0,0"
             style="fill:#394d54;fill-opacity:1;fill-rule:evenodd;stroke:none"
             id="path70"
             inkscape:connector-curvature="0" />
        </g>
        <g
           id="g72"
           transform="translate(88,323.6504)">
          <path
             d="M 0,0 223.613,0 251.27,0 474.877,0 C 464.537,2.623 442.162,6.166 445.852,19.717 427.051,-2.039 381.709,4.453 370.266,15.182 357.523,-3.301 283.34,3.725 278.166,18.123 262.191,-0.625 212.689,-0.625 196.713,18.123 191.537,3.725 117.355,-3.301 104.611,15.182 93.168,4.453 47.83,-2.039 29.027,19.717 32.717,6.166 10.342,2.623 0,0"
             style="fill:#394d54;fill-opacity:1;fill-rule:evenodd;stroke:none"
             id="path74"
             inkscape:connector-curvature="0" />
        </g>
        <g
           id="g76"
           transform="translate(295.7012,228.9316)">
          <path
             d="m 0,0 c -25.281,11.997 -39.158,28.306 -46.879,46.109 -9.391,-2.68 -20.68,-4.393 -33.795,-5.13 -4.941,-0.277 -10.139,-0.418 -15.594,-0.418 -6.287,0 -12.914,0.185 -19.869,0.554 23.184,-23.17 51.705,-41.01 104.516,-41.336 3.898,0 7.769,0.076 11.621,0.221"
             style="fill:#bfdbe0;fill-opacity:1;fill-rule:nonzero;stroke:none"
             id="path78"
             inkscape:connector-curvature="0" />
        </g>
        <g
           id="g80"
           transform="translate(258.2129,258.6133)">
          <path
             d="M 0,0 C -3.498,4.748 -6.891,10.715 -9.385,16.43 -18.777,13.748 -30.068,12.034 -43.186,11.298 -34.176,6.406 -21.289,1.875 0,0"
             style="fill:#d4edf1;fill-opacity:1;fill-rule:nonzero;stroke:none"
             id="path82"
             inkscape:connector-curvature="0" />
        </g>
      </g>
    </g>
  </g>
  <g
     inkscape:groupmode="layer"
     id="layer2"
     inkscape:label="BADGE"
     style="display:none"
     sodipodi:insensitive="true">
    <g
       style="display:inline"
       transform="translate(-340.00001,-581)"
       id="g4394"
       clip-path="none">
      <g
         id="g855">
        <g
           inkscape:groupmode="maskhelper"
           id="g870"
           clip-path="url(#clipPath873)"
           style="opacity:0.6;filter:url(#filter891)">
          <path
             transform="matrix(1.4999992,0,0,1.4999992,-29.999795,-237.54282)"
             d="m 264,552.36218 a 12,12 0 0 1 -12,12 12,12 0 0 1 -12,-12 12,12 0 0 1 12,-12 12,12 0 0 1 12,12 z"
             sodipodi:ry="12"
             sodipodi:rx="12"
             sodipodi:cy="552.36218"
             sodipodi:cx="252"
             id="path844"
             style="color:#000000;fill:#000000;fill-opacity:1;fill-rule:nonzero;stroke:none;stroke-width:4;marker:none;visibility:visible;display:inline;overflow:visible;enable-background:accumulate"
             sodipodi:type="arc" />
        </g>
        <g
           id="g862">
          <path
             sodipodi:type="arc"
             style="color:#000000;fill:#f5f5f5;fill-opacity:1;fill-rule:nonzero;stroke:none;stroke-width:4;marker:none;visibility:visible;display:inline;overflow:visible;enable-background:accumulate"
             id="path4398"
             sodipodi:cx="252"
             sodipodi:cy="552.36218"
             sodipodi:rx="12"
             sodipodi:ry="12"
             d="m 264,552.36218 a 12,12 0 0 1 -12,12 12,12 0 0 1 -12,-12 12,12 0 0 1 12,-12 12,12 0 0 1 12,12 z"
             transform="matrix(1.4999992,0,0,1.4999992,-29.999795,-238.54282)" />
          <path
             transform="matrix(1.25,0,0,1.25,33,-100.45273)"
             d="m 264,552.36218 a 12,12 0 0 1 -12,12 12,12 0 0 1 -12,-12 12,12 0 0 1 12,-12 12,12 0 0 1 12,12 z"
             sodipodi:ry="12"
             sodipodi:rx="12"
             sodipodi:cy="552.36218"
             sodipodi:cx="252"
             id="path4400"
             style="color:#000000;fill:#dd4814;fill-opacity:1;fill-rule:nonzero;stroke:none;stroke-width:4;marker:none;visibility:visible;display:inline;overflow:visible;enable-background:accumulate"
             sodipodi:type="arc" />
          <path
             sodipodi:type="star"
             style="color:#000000;fill:#f5f5f5;fill-opacity:1;fill-rule:nonzero;stroke:none;stroke-width:3;marker:none;visibility:visible;display:inline;overflow:visible;enable-background:accumulate"
             id="path4459"
             sodipodi:sides="5"
             sodipodi:cx="666.19574"
             sodipodi:cy="589.50385"
             sodipodi:r1="7.2431178"
             sodipodi:r2="4.3458705"
             sodipodi:arg1="1.0471976"
             sodipodi:arg2="1.6755161"
             inkscape:flatsided="false"
             inkscape:rounded="0.1"
             inkscape:randomized="0"
             d="m 669.8173,595.77657 c -0.39132,0.22593 -3.62645,-1.90343 -4.07583,-1.95066 -0.44938,-0.0472 -4.05653,1.36297 -4.39232,1.06062 -0.3358,-0.30235 0.68963,-4.03715 0.59569,-4.47913 -0.0939,-0.44198 -2.5498,-3.43681 -2.36602,-3.8496 0.18379,-0.41279 4.05267,-0.59166 4.44398,-0.81759 0.39132,-0.22593 2.48067,-3.48704 2.93005,-3.4398 0.44938,0.0472 1.81505,3.67147 2.15084,3.97382 0.3358,0.30236 4.08294,1.2817 4.17689,1.72369 0.0939,0.44198 -2.9309,2.86076 -3.11469,3.27355 -0.18379,0.41279 0.0427,4.27917 -0.34859,4.5051 z"
             transform="matrix(1.511423,-0.16366377,0.16366377,1.511423,-755.37346,-191.93651)" />
        </g>
      </g>
    </g>
  </g>
</svg>
